<svg width="60" height="36" viewBox="0 0 60 36" fill="none" xmlns="http://www.w3.org/2000/svg">
<path d="M11 34V29C11 28.7348 10.8946 28.4804 10.7071 28.2929C10.5195 28.1054 10.2652 28 9.99997 28H4.99997V30H7.58597L3.29297 34.293L4.70697 35.707L8.99997 31.414V34H11Z" fill="#1B4965"/>
<path d="M50.2928 4.70697L53.2928 7.70697L54.7068 6.29297L53.4138 4.99997H59.9998V2.99997H53.4138L54.7068 1.70697L53.2928 0.292969L50.2928 3.29297C50.1053 3.4805 50 3.7348 50 3.99997C50 4.26513 50.1053 4.51944 50.2928 4.70697Z" fill="#1B4965"/>
<path d="M30 27C31.5823 27 33.129 26.5308 34.4446 25.6518C35.7602 24.7727 36.7855 23.5233 37.391 22.0615C37.9965 20.5997 38.155 18.9911 37.8463 17.4393C37.5376 15.8874 36.7757 14.462 35.6569 13.3431C34.538 12.2243 33.1126 11.4624 31.5607 11.1537C30.0089 10.845 28.4003 11.0035 26.9385 11.609C25.4767 12.2145 24.2273 13.2399 23.3482 14.5554C22.4692 15.871 22 17.4178 22 19C22.0024 21.121 22.846 23.1545 24.3458 24.6542C25.8456 26.154 27.879 26.9976 30 27ZM30 13C31.1867 13 32.3467 13.3519 33.3334 14.0112C34.3201 14.6705 35.0892 15.6075 35.5433 16.7039C35.9974 17.8003 36.1162 19.0067 35.8847 20.1705C35.6532 21.3344 35.0818 22.4035 34.2426 23.2426C33.4035 24.0818 32.3344 24.6532 31.1705 24.8847C30.0067 25.1162 28.8003 24.9974 27.7039 24.5433C26.6075 24.0892 25.6705 23.3201 25.0112 22.3334C24.3519 21.3467 24 20.1867 24 19C24.0016 17.4092 24.6342 15.884 25.7591 14.7591C26.884 13.6342 28.4092 13.0016 30 13Z" fill="#1B4965"/>
<path d="M34 17H32V19H34V17Z" fill="#1B4965"/>
<path d="M30 20H28V22H30V20Z" fill="#1B4965"/>
<path d="M0.757906 18.0689L2.71491 18.5579L1.57391 19.0999C1.40437 19.1809 1.26107 19.3079 1.16042 19.4666C1.05976 19.6252 1.00582 19.809 1.00478 19.9968C1.00373 20.1847 1.05563 20.369 1.15451 20.5288C1.2534 20.6885 1.39528 20.8171 1.56391 20.9C1.56391 20.9 16.0699 27.9249 16.0999 27.9369C21.585 30.0505 27.3969 31.1902 33.2739 31.3049C37.4382 31.3615 41.5685 30.5474 45.3999 28.9149C47.1917 28.0178 48.9136 26.9872 50.5509 25.8319C51.8875 24.969 53.1687 24.0232 54.3869 22.9999H56.9999C57.532 23.0225 58.0587 22.8849 58.5118 22.605C58.965 22.3252 59.3238 21.9158 59.5419 21.4299C59.8067 20.7468 59.8743 20.003 59.7371 19.2833C59.5999 18.5636 59.2634 17.8968 58.7659 17.3589C58.6686 17.2635 58.5617 17.1784 58.4469 17.1049C55.9309 15.8469 55.1919 14.6449 53.9699 12.6529C53.3969 11.7209 52.7489 10.6649 51.7999 9.39995C48.3999 4.87295 43.0869 2.52195 35.0639 1.99995C22.9819 1.22295 12.5999 4.89995 3.32991 13.2569C3.13285 13.4346 3.01445 13.6833 3.00076 13.9483C2.98707 14.2133 3.07921 14.4729 3.25691 14.6699C3.4346 14.867 3.6833 14.9854 3.94829 14.9991C4.21328 15.0128 4.47285 14.9206 4.66991 14.7429C13.5159 6.76595 23.4169 3.25295 34.9359 3.99995C42.3359 4.47995 47.1809 6.57695 50.1999 10.5999C51.0929 11.7909 51.7159 12.7999 52.2649 13.6999C52.3649 13.8569 52.4529 13.9999 52.5469 14.1549C52.5469 14.1549 42.4029 9.42895 41.4469 9.17395L36.6269 5.31795C36.5246 5.2337 36.4067 5.1706 36.2798 5.13234C36.153 5.09407 36.0198 5.0814 35.888 5.09505C35.7562 5.1087 35.6284 5.1484 35.5121 5.21186C35.3958 5.27531 35.2933 5.36124 35.2104 5.46466C35.1276 5.56809 35.0662 5.68694 35.0297 5.81431C34.9932 5.94168 34.9824 6.07504 34.9979 6.20662C35.0134 6.33821 35.0548 6.46541 35.1199 6.58083C35.185 6.69625 35.2723 6.79758 35.3769 6.87895L37.1659 8.30995C34.626 7.9561 32.053 7.90441 29.5009 8.15595C29.4388 8.11185 29.3716 8.07526 29.3009 8.04695L23.3009 6.14695C23.1741 6.10104 23.0393 6.08126 22.9046 6.08881C22.7699 6.09635 22.6382 6.13107 22.5173 6.19086C22.3963 6.25065 22.2888 6.33428 22.201 6.43673C22.1133 6.53917 22.0472 6.65831 22.0067 6.78697C21.9662 6.91563 21.9521 7.05116 21.9654 7.18539C21.9786 7.31962 22.0189 7.44979 22.0837 7.56806C22.1486 7.68633 22.2367 7.79026 22.3428 7.87359C22.4488 7.95692 22.5706 8.01793 22.7009 8.05295L25.2539 8.86195C23.846 9.19215 22.4589 9.60554 21.0999 10.0999L16.1999 9.11995C15.9416 9.07213 15.6748 9.12791 15.4572 9.27523C15.2396 9.42255 15.0888 9.64958 15.0373 9.90723C14.9858 10.1649 15.0378 10.4324 15.182 10.6521C15.3262 10.8717 15.551 11.0258 15.8079 11.0809L17.7759 11.4749L14.2519 13.1329H14.2459L10.2459 12.1329C9.98851 12.0688 9.71617 12.1095 9.48878 12.2461C9.26139 12.3827 9.09759 12.6041 9.03341 12.8614C8.96922 13.1188 9.00992 13.3912 9.14654 13.6186C9.28316 13.846 9.50451 14.0098 9.76191 14.0739L11.3929 14.4819L5.49991 17.2489C5.42105 17.1968 5.3352 17.156 5.24491 17.1279L1.24491 16.1279C0.987513 16.0638 0.715166 16.1045 0.487778 16.2411C0.26039 16.3777 0.0965881 16.5991 0.0324057 16.8564C-0.0317767 17.1138 0.00891839 17.3862 0.145539 17.6136C0.282159 17.841 0.503513 18.0048 0.760906 18.0689H0.757906ZM57.3579 18.7989C57.5627 19.0455 57.7029 19.3391 57.7657 19.6534C57.8286 19.9677 57.8121 20.2926 57.7179 20.5989C57.6587 20.7352 57.5564 20.8483 57.4266 20.9207C57.2969 20.9932 57.147 21.021 56.9999 20.9999H53.9999C53.7374 21.0013 53.486 21.1058 53.2999 21.2909C52.8661 21.6869 52.4118 22.0597 51.9389 22.4079C51.9539 22.3349 51.9719 22.2629 51.9859 22.1879C52.4357 20.3935 52.4285 18.5149 51.9649 16.7239C51.8839 16.4419 51.7969 16.1989 51.7089 15.9699L57.3579 18.7989ZM40.7469 11.0569C41.6979 11.3029 48.9829 14.6089 48.9829 14.6089C49.0479 15.0089 49.8449 16.6009 50.0389 17.2769C50.4086 18.7669 50.4014 20.3255 50.0179 21.8119C49.838 22.6781 49.5644 23.522 49.2019 24.3289C47.736 25.3569 46.1981 26.2779 44.5999 27.0849C41.9862 28.2143 39.2069 28.913 36.3699 29.1539C37.8977 28.2025 39.191 26.9184 40.1533 25.3974C41.1156 23.8764 41.7221 22.1578 41.9275 20.3697C42.133 18.5816 41.932 16.7702 41.3398 15.0706C40.7475 13.371 39.7791 11.8271 38.5069 10.5539C39.2159 10.6919 40.7129 11.0469 40.7469 11.0569ZM23.5169 11.3979C27.038 10.3068 30.7249 9.84941 34.4059 10.0469C36.334 10.997 37.9042 12.5437 38.8833 14.4573C39.8624 16.3708 40.1981 18.5491 39.8405 20.6687C39.483 22.7882 38.4513 24.7359 36.8987 26.2224C35.3461 27.7089 33.3555 28.6549 31.2224 28.92C29.0893 29.185 26.9277 28.7549 25.0585 27.6936C23.1893 26.6322 21.7123 24.9963 20.847 23.0287C19.9816 21.0611 19.774 18.8669 20.255 16.7719C20.736 14.6769 21.8799 12.793 23.5169 11.3999V11.3979ZM13.0469 15.9059L19.3999 12.9159C19.5139 12.8659 19.6279 12.8239 19.7409 12.7749C18.3252 15.1047 17.747 17.8479 18.1019 20.5508C18.4569 23.2538 19.7237 25.7547 21.6929 27.6399C19.8559 27.1399 18.2059 26.589 16.8449 26.08L12.4779 23.9639C10.6889 21.6139 10.8709 19.0409 13.0469 15.9059ZM9.94691 17.3629C9.21115 18.9846 9.05887 20.8108 9.51591 22.5319L4.31591 20.0129L9.94691 17.3629Z" fill="#1B4965"/>
</svg>
