<svg width="80" height="80" viewBox="0 0 80 80" fill="none" xmlns="http://www.w3.org/2000/svg">
<g clip-path="url(#clip0_13_39)">
<path d="M76.879 26.8511C76.0668 26.852 75.2884 27.1744 74.7143 27.7475C74.1399 28.3206 73.8171 29.0976 73.816 29.9081V30.9164C73.8156 31.0185 73.7943 31.1194 73.7536 31.213C73.7125 31.3065 73.6531 31.3907 73.5781 31.4603C73.5035 31.5299 73.4149 31.5834 73.3187 31.6176C73.2221 31.6518 73.1198 31.6658 73.0178 31.6589C72.8225 31.6343 72.6434 31.538 72.5154 31.3889C72.3871 31.2398 72.3194 31.0485 72.3248 30.8521V29.9081C72.3248 29.0973 72.0019 28.3197 71.4275 27.7465C70.8531 27.1731 70.074 26.8511 69.2617 26.8511C68.4495 26.8511 67.6704 27.1731 67.096 27.7465C66.5212 28.3197 66.1987 29.0973 66.1987 29.9081V30.9164C66.2008 32.2024 66.5644 33.462 67.248 34.552C67.9316 35.642 68.9079 36.519 70.0661 37.0825V40.8786C70.0682 41.7791 69.7324 42.6477 69.1248 43.313C68.5169 43.9784 67.6816 44.3923 66.7832 44.4736C65.8844 44.5545 64.9882 44.2966 64.2707 43.7507C63.5536 43.2048 63.0671 42.4103 62.9079 41.5241C64.0491 40.9537 65.0091 40.078 65.6808 38.9948C66.3526 37.9115 66.7093 36.6632 66.7115 35.3891V34.3808C66.7115 33.57 66.3886 32.7925 65.8142 32.2192C65.2398 31.6459 64.4607 31.3238 63.6484 31.3238C62.8358 31.3238 62.0567 31.6459 61.4823 32.2192C60.9079 32.7925 60.5853 33.57 60.5853 34.3808V35.3891C60.5843 35.4665 60.5709 35.5432 60.5457 35.6165V4.54639C60.5446 4.35808 60.4938 4.17344 60.398 4.01113C59.7306 1.74177 56.8646 0.0827637 53.3284 0.0827637C49.7922 0.0827637 46.9259 1.74188 46.2585 4.01113C46.1626 4.17344 46.1118 4.35808 46.1107 4.54639V41.978H43.6563V4.54639C43.6549 4.35808 43.6041 4.17344 43.5086 4.01113C42.8408 1.74177 39.9745 0.0827637 36.4383 0.0827637C32.9022 0.0827637 30.0362 1.74188 29.3687 4.01113C29.273 4.17344 29.222 4.35808 29.2209 4.54639V41.978H23.5633C21.8794 41.9762 20.265 41.3076 19.0743 40.1194C17.8836 38.9311 17.2138 37.3199 17.2119 35.6393V32.7132C18.9274 32.0305 20.4153 30.8789 21.5045 29.3904C22.5938 27.9019 23.2404 26.1371 23.3701 24.2984C24.5008 23.7223 25.4507 22.8467 26.1158 21.7675C26.7809 20.6883 27.1356 19.4473 27.1408 18.1803V17.1716C27.1408 16.3608 26.8181 15.5832 26.2437 15.0099C25.6693 14.4366 24.8901 14.1146 24.0778 14.1146C23.2654 14.1146 22.4863 14.4366 21.9119 15.0099C21.3374 15.5832 21.0147 16.3608 21.0147 17.1716V18.116C21.0202 18.3123 20.9522 18.5036 20.8242 18.6527C20.6962 18.8018 20.5172 18.898 20.322 18.9227C20.2197 18.9295 20.1172 18.9153 20.0207 18.8811C19.9242 18.8468 19.8357 18.7932 19.7607 18.7236C19.6856 18.6543 19.6258 18.5703 19.585 18.4768C19.5442 18.3832 19.5232 18.2823 19.5235 18.1803V17.1716C19.5235 16.3608 19.2008 15.5832 18.6263 15.0099C18.0519 14.4366 17.2728 14.1146 16.4604 14.1146C15.648 14.1146 14.8689 14.4366 14.2945 15.0099C13.72 15.5832 13.3973 16.3608 13.3973 17.1716V18.1803C13.3994 19.4545 13.7564 20.7031 14.4283 21.7865C15.1003 22.87 16.0608 23.7457 17.2026 24.3159C17.0406 25.2001 16.5532 25.9919 15.8361 26.5358C15.119 27.0796 14.2241 27.3363 13.3271 27.2554C12.4301 27.1744 11.5958 26.7616 10.9882 26.0982C10.3805 25.4347 10.0433 24.5685 10.0429 23.6696V19.8738C11.2009 19.3099 12.1772 18.4332 12.8608 17.3431C13.5445 16.2531 13.908 14.9935 13.9101 13.7075V12.6993C13.9101 11.8886 13.5874 11.111 13.0129 10.5377C12.4385 9.96441 11.6594 9.64235 10.847 9.64235C10.0346 9.64235 9.25554 9.96441 8.68109 10.5377C8.10664 11.111 7.78394 11.8886 7.78394 12.6993V13.6434C7.78938 13.8397 7.72149 14.0309 7.59349 14.18C7.46549 14.3291 7.28653 14.4254 7.09136 14.4502C6.98931 14.4571 6.88686 14.4431 6.79046 14.409C6.69403 14.3748 6.60567 14.3213 6.53078 14.2517C6.45594 14.1821 6.39619 14.0979 6.35529 14.0043C6.31435 13.9107 6.29313 13.8098 6.29287 13.7077V12.6993C6.29287 11.8886 5.97017 11.111 5.39572 10.5377C4.82131 9.96441 4.04217 9.64235 3.22981 9.64235C2.41744 9.64235 1.63834 9.96441 1.0639 10.5377C0.489464 11.111 0.166748 11.8886 0.166748 12.6993V13.7077C0.171997 14.9706 0.524441 16.208 1.18568 17.2848C1.84692 18.3617 2.7916 19.2368 3.9168 19.8148V23.6698C3.927 25.6199 4.52055 27.5225 5.62131 29.1337C6.7221 30.745 8.27994 31.9914 10.0952 32.7132V35.6392C10.0992 39.203 11.5195 42.6196 14.0445 45.1396C16.5694 47.6593 19.9928 49.077 23.5636 49.081H29.2213V74.9366C29.2213 75.0067 29.2281 75.0765 29.2417 75.1452C29.5123 77.7645 32.5719 79.7224 36.4387 79.7224C40.3043 79.7224 43.363 77.7659 43.6354 75.1481C43.6495 75.0787 43.6563 75.0078 43.6563 74.9366V66.29H46.1107V74.9366C46.1107 75.0067 46.1176 75.0765 46.1313 75.1452C46.4019 77.7645 49.4617 79.7224 53.3284 79.7224C57.1951 79.7224 60.2542 77.7649 60.5252 75.1463C60.5389 75.0772 60.5457 75.0071 60.5457 74.9366V65.6847C63.2873 64.8295 65.6841 63.1233 67.3868 60.8148C69.0898 58.5059 70.0098 55.715 70.0134 52.8483V49.9222C71.8286 49.2004 73.3868 47.9539 74.4877 46.3427C75.5882 44.7315 76.1817 42.8289 76.1918 40.8786V37.0235C77.3172 36.4456 78.2617 35.5705 78.923 34.4936C79.5843 33.4167 79.9367 32.1794 79.9421 30.9164V29.9081C79.941 29.0976 79.6181 28.3206 79.0437 27.7475C78.4697 27.1744 77.6909 26.8521 76.879 26.8511ZM29.2214 46.9231H23.5637C20.5661 46.9199 17.6923 45.7298 15.5727 43.6144C13.4531 41.499 12.2608 38.6308 12.2574 35.6393V31.9462C12.2574 31.714 12.1824 31.4881 12.0434 31.3018C11.9045 31.1156 11.7091 30.9791 11.4862 30.9126C9.92815 30.4398 8.56264 29.4816 7.58963 28.1783C6.61662 26.875 6.08725 25.295 6.07896 23.6698V19.1148C6.07896 18.8956 6.01208 18.6816 5.88718 18.5013C5.76231 18.321 5.58534 18.1829 5.37986 18.1054C4.48581 17.7656 3.71579 17.1636 3.1712 16.3785C2.62662 15.5935 2.33298 14.6623 2.32895 13.7075V12.6993C2.32895 12.4609 2.42386 12.2322 2.59282 12.0636C2.76177 11.895 2.99091 11.8002 3.22985 11.8002C3.46878 11.8002 3.69792 11.895 3.86689 12.0636C4.03583 12.2322 4.13075 12.4609 4.13075 12.6993V13.7077C4.131 14.1053 4.21309 14.4986 4.37194 14.8633C4.53075 15.228 4.76293 15.5562 5.0541 15.8277C5.34523 16.0991 5.68916 16.308 6.06451 16.4414C6.43986 16.5747 6.83867 16.6297 7.23619 16.603C7.979 16.5426 8.6714 16.2039 9.17413 15.6548C9.67687 15.1057 9.95269 14.387 9.9461 13.6433V12.6993C9.9461 12.4609 10.041 12.2322 10.21 12.0636C10.3789 11.895 10.6081 11.8002 10.847 11.8002C11.0859 11.8002 11.3151 11.895 11.484 12.0636C11.653 12.2322 11.7479 12.4609 11.7479 12.6993V13.7077C11.7461 14.6803 11.4427 15.6285 10.8794 16.4222C10.316 17.2158 9.52037 17.816 8.60159 18.1404C8.39082 18.2148 8.20833 18.3526 8.07925 18.5348C7.95021 18.717 7.88087 18.9347 7.88087 19.1578V23.6698C7.88347 24.4264 8.03536 25.1751 8.32786 25.8731C8.62037 26.5712 9.04779 27.2049 9.5857 27.7381C10.672 28.8149 12.1425 29.4169 13.6737 29.4117C14.4318 29.4091 15.182 29.2575 15.8814 28.9656C16.5808 28.6737 17.2158 28.2471 17.7501 27.7102C18.2843 27.1734 18.7074 26.5368 18.9951 25.8368C19.2828 25.1368 19.4296 24.387 19.427 23.6304C19.427 23.4073 19.3577 23.1896 19.2286 23.0074C19.0995 22.8252 18.9171 22.6874 18.7063 22.613C17.7874 22.2887 16.9916 21.6886 16.4282 20.8949C15.8648 20.1013 15.5613 19.153 15.5595 18.1803V17.1716C15.5595 16.9331 15.6544 16.7044 15.8234 16.5358C15.9923 16.3672 16.2215 16.2724 16.4604 16.2724C16.6993 16.2724 16.9285 16.3672 17.0974 16.5358C17.2664 16.7044 17.3613 16.9331 17.3613 17.1716V18.1803C17.3616 18.5779 17.4436 18.9713 17.6024 19.336C17.7612 19.7007 17.9934 20.0289 18.2845 20.3004C18.5757 20.5719 18.9196 20.7807 19.2949 20.9141C19.6703 21.0475 20.0691 21.1025 20.4666 21.0758C21.2095 21.0155 21.902 20.6768 22.4048 20.1277C22.9076 19.5786 23.1835 18.8599 23.1769 18.1161V17.1716C23.1769 16.9332 23.2718 16.7045 23.4407 16.5358C23.6097 16.3672 23.8389 16.2725 24.0778 16.2725C24.3167 16.2725 24.5458 16.3672 24.7148 16.5358C24.8838 16.7045 24.9787 16.9332 24.9787 17.1716V18.1803C24.9746 19.1352 24.6809 20.0664 24.1363 20.8515C23.5917 21.6366 22.8217 22.2387 21.9276 22.5786C21.7222 22.6561 21.5453 22.7942 21.4204 22.9745C21.2955 23.1548 21.2287 23.3688 21.2287 23.588V23.6698C21.2204 25.2951 20.691 26.8751 19.7179 28.1784C18.7448 29.4817 17.3793 30.4398 15.8211 30.9126C15.5983 30.9791 15.4029 31.1156 15.2639 31.3019C15.125 31.4881 15.05 31.7141 15.05 31.9462V35.6393C15.0525 37.8921 15.9502 40.0517 17.5463 41.6446C19.1424 43.2375 21.3063 44.1334 23.5635 44.1359H29.2211L29.2214 46.9231ZM41.4942 74.8186C41.4924 74.8348 41.4909 74.8507 41.4898 74.8668C41.4052 76.1695 39.3551 77.5645 36.4387 77.5645C33.5225 77.5645 31.4726 76.1695 31.3878 74.8668C31.3867 74.8507 31.3853 74.8348 31.3835 74.8186V8.58755C32.9125 9.49666 34.6591 9.97657 36.439 9.97657C38.2185 9.97657 39.9652 9.49666 41.4942 8.58755V74.8186ZM36.4387 7.8187C33.4596 7.8187 31.3835 6.34886 31.3835 5.02969C31.3835 3.71051 33.4596 2.24067 36.4387 2.24067C39.4178 2.24067 41.4942 3.71051 41.4942 5.02969C41.4942 6.34886 39.4181 7.8187 36.4387 7.8187ZM53.3284 2.2406C56.3075 2.2406 58.3835 3.71043 58.3835 5.02961C58.3835 6.34879 56.3075 7.81863 53.3284 7.81863C50.3493 7.81863 48.2729 6.34879 48.2729 5.02961C48.2729 3.71043 50.3493 2.2406 53.3284 2.2406ZM48.2729 8.58751C49.8019 9.49659 51.5486 9.97653 53.3284 9.97653C55.1079 9.97653 56.8545 9.49659 58.3835 8.58751V32.4262C57.981 31.943 57.4394 31.5953 56.8315 31.4306C56.2239 31.2659 55.5803 31.2922 54.9882 31.5059C54.3961 31.7196 53.8844 32.1103 53.523 32.6247C53.1616 33.1392 52.9677 33.7524 52.968 34.3808V35.3891C52.9731 36.656 53.3277 37.8971 53.9929 38.9764C54.6581 40.0557 55.608 40.9314 56.7389 41.5072C56.8567 43.2137 57.4243 44.8584 58.3839 46.2754V58.9141C57.7879 59.095 57.168 59.187 56.5453 59.187H48.2729V8.58751ZM43.6563 44.1359H46.1107V46.9231H43.6563V44.1359ZM43.6563 49.081H46.1107V59.187H43.6563V49.081ZM58.3835 74.8197C58.3817 74.8355 58.3807 74.851 58.3796 74.8668C58.2949 76.1695 56.2448 77.5645 53.3284 77.5645C50.412 77.5645 48.3619 76.1695 48.2772 74.8668C48.2761 74.8507 48.2747 74.8348 48.2729 74.8186V66.29H56.545C57.1601 66.2889 57.7745 66.2461 58.3835 66.1616V74.8197ZM77.7799 30.9165C77.776 31.8714 77.4823 32.8026 76.9374 33.5877C76.3929 34.3727 75.6228 34.9749 74.7288 35.3148C74.5234 35.3923 74.3464 35.5304 74.2217 35.7107C74.0967 35.891 74.03 36.105 74.03 36.324V40.8786C74.0217 42.5042 73.4924 44.0841 72.5194 45.3874C71.5464 46.6908 70.1807 47.6489 68.6225 48.1215C68.3998 48.188 68.2044 48.3247 68.0653 48.511C67.9266 48.6969 67.8513 48.9231 67.8513 49.1551V52.8486C67.848 55.8402 66.6556 58.7083 64.536 60.8238C62.4163 62.9392 59.5428 64.1293 56.545 64.1325H43.6563V61.3453H56.545C58.8023 61.3427 60.9662 60.4469 62.5623 58.854C64.1583 57.2611 65.056 55.1015 65.0585 52.8486V49.1551C65.0585 48.9231 64.9835 48.6969 64.8444 48.511C64.7057 48.3247 64.5104 48.188 64.2873 48.1215C62.7291 47.6489 61.3637 46.6904 60.3907 45.3874C59.4178 44.0841 58.8884 42.5042 58.8801 40.8786V40.7969C58.8801 40.5775 58.8134 40.3636 58.6884 40.1834C58.5637 40.0032 58.3864 39.8651 58.181 39.7874C57.287 39.4475 56.5169 38.8455 55.9724 38.0604C55.4279 37.2753 55.1342 36.3442 55.1302 35.3893V34.3809C55.1302 34.1425 55.225 33.9138 55.394 33.7452C55.563 33.5766 55.7922 33.4818 56.0311 33.4818C56.27 33.4818 56.4992 33.5766 56.6682 33.7452C56.8372 33.9138 56.932 34.1425 56.932 34.3809V35.325C56.9194 35.896 57.0758 36.4582 57.3817 36.9408C57.6877 37.4235 58.1295 37.8054 58.652 38.0385C59.1745 38.2719 59.754 38.346 60.3187 38.2514C60.883 38.1571 61.407 37.8989 61.825 37.5083C62.1154 37.2368 62.3471 36.9084 62.5057 36.5441C62.6646 36.1794 62.7468 35.7866 62.7475 35.3893V34.3809C62.7475 34.1425 62.8423 33.9138 63.0113 33.7452C63.1803 33.5766 63.4095 33.4818 63.6484 33.4818C63.8873 33.4818 64.1165 33.5766 64.2855 33.7452C64.4545 33.9138 64.5493 34.1425 64.5493 34.3809V35.3893C64.5475 36.3618 64.2441 37.3102 63.6808 38.1039C63.1176 38.8973 62.3219 39.4975 61.403 39.8219C61.1915 39.8993 61.0088 40.0399 60.8801 40.224C60.7511 40.4085 60.6819 40.6279 60.6823 40.8527C60.679 42.3808 61.2837 43.8478 62.3641 44.9307C63.4441 46.0136 64.9111 46.6239 66.4423 46.6275C67.9734 46.6307 69.4434 46.0273 70.5284 44.949C71.6134 43.8708 72.225 42.4067 72.2286 40.8789V36.3665C72.2286 36.1435 72.159 35.9258 72.03 35.7436C71.901 35.5613 71.7187 35.4235 71.5079 35.3491C70.5889 35.0248 69.7933 34.4246 69.2297 33.631C68.6664 32.8373 68.363 31.889 68.3612 30.9164V29.9081C68.3612 29.6696 68.4563 29.4409 68.625 29.2723C68.794 29.1037 69.0232 29.009 69.2621 29.009C69.501 29.009 69.7302 29.1037 69.8992 29.2723C70.0682 29.4409 70.163 29.6696 70.163 29.9081V30.8521C70.1565 31.596 70.4325 32.3148 70.9353 32.8639C71.4383 33.413 72.1309 33.7517 72.8736 33.8118C73.2711 33.8386 73.67 33.7835 74.0452 33.6501C74.4207 33.5167 74.7644 33.3078 75.0556 33.0363C75.3468 32.7649 75.5789 32.4367 75.7374 32.072C75.8963 31.7073 75.9785 31.314 75.9785 30.9164V29.9081C75.9785 29.6696 76.0736 29.4409 76.2426 29.2723C76.4113 29.1037 76.6405 29.009 76.8794 29.009C77.1183 29.009 77.3475 29.1037 77.5165 29.2723C77.6855 29.4409 77.7803 29.6696 77.7803 29.9081L77.7799 30.9165ZM60.5457 57.7657V48.5865C61.2628 49.1396 62.0538 49.5892 62.8963 49.9222V52.8483C62.8963 53.7909 62.6852 54.7217 62.2787 55.5722C61.8718 56.4232 61.2798 57.1727 60.5457 57.7657Z" fill="#1B4965"/>
</g>
<defs>
<clipPath id="clip0_13_39">
<rect width="80" height="80" fill="white"/>
</clipPath>
</defs>
</svg>
