<svg width="82" height="82" viewBox="0 0 82 82" fill="none" xmlns="http://www.w3.org/2000/svg">
<path d="M7.21001 28.1C6.93001 27.41 6.70001 26.69 6.54001 25.95C6.42001 25.41 5.89001 25.08 5.35001 25.19C4.81001 25.31 4.47001 25.84 4.59001 26.38C4.78001 27.23 5.04001 28.06 5.37001 28.86C5.53001 29.25 5.90001 29.48 6.29001 29.48C6.42001 29.48 6.54001 29.46 6.67001 29.4C7.18001 29.19 7.42001 28.61 7.21001 28.1Z" fill="#1B4965"/>
<path d="M8.87999 31.01C8.54999 30.57 7.91999 30.48 7.47999 30.82C7.03999 31.15 6.96 31.78 7.29 32.22C10.12 35.94 14.45 38.07 19.17 38.07C19.72 38.07 20.17 37.62 20.17 37.07C20.17 36.52 19.72 36.07 19.17 36.07C15.08 36.07 11.33 34.22 8.87999 31.01Z" fill="#1B4965"/>
<path d="M81.32 14.83C79.38 6.1 71.77 0 62.83 0C57.94 0 53.96 3.98 53.96 8.87C53.96 11.24 54.88 13.47 56.56 15.14L58.95 17.54H55.5C48.33 17.54 42.5 23.37 42.5 30.54V46C42.5 46.83 41.83 47.5 41 47.5C40.17 47.5 39.5 46.83 39.5 46V30.54C39.5 23.37 33.67 17.54 26.5 17.54H23.04L25.44 15.14C27.12 13.47 28.04 11.24 28.04 8.87C28.04 3.98 24.06 0 19.17 0C10.22 0 2.62 6.1 0.680005 14.83C-0.219995 18.89 -0.219995 23.18 0.680005 27.24C2.62 35.97 10.22 42.07 19.17 42.07C24.06 42.07 28.04 38.09 28.04 33.2C28.04 30.83 27.12 28.6 25.44 26.93L23.05 24.54H27.5C30.26 24.54 32.5 26.78 32.5 29.54V47.57C28.28 48.11 25 51.73 25 56.09C25 60.83 27.31 65.31 31.17 68.07L32.5 69.02V81C32.5 81.55 32.95 82 33.5 82H48.5C49.05 82 49.5 81.55 49.5 81V69.02L50.83 68.07C54.69 65.32 57 60.84 57 56.09C57 51.72 53.72 48.11 49.5 47.57V29.54C49.5 26.78 51.74 24.54 54.5 24.54H58.95L56.56 26.93C54.88 28.61 53.96 30.83 53.96 33.2C53.96 38.09 57.94 42.07 62.83 42.07C71.78 42.07 79.38 35.97 81.32 27.24C82.22 23.18 82.22 18.89 81.32 14.83ZM79.37 26.81C77.63 34.62 70.83 40.08 62.83 40.08C59.04 40.08 55.96 37 55.96 33.21C55.96 31.37 56.67 29.65 57.97 28.35L60.94 25.38C61.2 25.12 61.42 24.84 61.63 24.54H63.55C65.73 24.54 67.51 26.32 67.51 28.5C67.51 29.05 67.96 29.5 68.51 29.5C69.06 29.5 69.51 29.05 69.51 28.5C69.51 25.21 66.84 22.54 63.55 22.54H54.51C50.65 22.54 47.51 25.68 47.51 29.54V48.08C47.45 48.21 47.42 48.35 47.42 48.5C47.42 49.05 47.87 49.5 48.42 49.5C52.05 49.5 55.01 52.46 55.01 56.09C55.01 60.19 53.02 64.06 49.68 66.44L47.93 67.69C47.67 67.88 47.51 68.18 47.51 68.5V80H34.51V68.5C34.51 68.18 34.35 67.87 34.09 67.69L32.34 66.44C29 64.06 27.01 60.19 27.01 56.09C27.01 52.46 29.97 49.5 33.6 49.5C34.15 49.5 34.6 49.05 34.6 48.5C34.6 48.35 34.57 48.21 34.51 48.08V29.54C34.51 25.68 31.37 22.54 27.51 22.54H18.47C15.18 22.54 12.51 25.21 12.51 28.5C12.51 29.05 12.96 29.5 13.51 29.5C14.06 29.5 14.51 29.05 14.51 28.5C14.51 26.32 16.29 24.54 18.47 24.54H20.38C20.59 24.84 20.81 25.12 21.07 25.38L24.04 28.35C25.34 29.65 26.05 31.37 26.05 33.21C26.05 37 22.97 40.08 19.18 40.08C11.18 40.08 4.38 34.62 2.64 26.81C1.8 23.03 1.8 19.04 2.64 15.26C4.38 7.45 11.18 1.99 19.18 1.99C22.97 1.99 26.05 5.07 26.05 8.86C26.05 10.7 25.34 12.42 24.04 13.72L21.07 16.69C20.81 16.95 20.59 17.23 20.38 17.53H18.55C16.32 17.53 14.51 15.72 14.51 13.49C14.51 12.94 14.06 12.49 13.51 12.49C12.96 12.49 12.51 12.94 12.51 13.49C12.51 16.82 15.22 19.53 18.55 19.53H26.51C32.58 19.53 37.51 24.46 37.51 30.53V45.99C37.51 47.92 39.08 49.49 41.01 49.49C42.94 49.49 44.51 47.92 44.51 45.99V30.53C44.51 24.46 49.44 19.53 55.51 19.53H63.47C66.8 19.53 69.51 16.82 69.51 13.49C69.51 12.94 69.06 12.49 68.51 12.49C67.96 12.49 67.51 12.94 67.51 13.49C67.51 15.72 65.7 17.53 63.47 17.53H61.63C61.42 17.23 61.2 16.95 60.94 16.69L57.97 13.72C56.67 12.42 55.96 10.7 55.96 8.86C55.96 5.07 59.04 1.99 62.83 1.99C70.83 1.99 77.63 7.45 79.37 15.26C80.21 19.04 80.21 23.03 79.37 26.8V26.81Z" fill="#1B4965"/>
<path d="M70.97 6.38002C70.51 6.08002 69.89 6.21002 69.59 6.68002C69.29 7.14002 69.42 7.76002 69.89 8.06002C72.74 9.90002 74.72 12.77 75.47 16.13C75.57 16.6 75.99 16.91 76.45 16.91C76.52 16.91 76.59 16.91 76.67 16.89C77.21 16.77 77.55 16.24 77.43 15.7C76.57 11.82 74.28 8.51002 70.98 6.38002H70.97Z" fill="#1B4965"/>
<path d="M66.05 4.34C65 4.11 63.91 4 62.83 4C62.28 4 61.83 4.45 61.83 5C61.83 5.55 62.28 6 62.83 6C63.77 6 64.72 6.1 65.63 6.3C65.7 6.32 65.77 6.32 65.84 6.32C66.3 6.32 66.72 6 66.82 5.53C66.94 4.99 66.59 4.46 66.05 4.34Z" fill="#1B4965"/>
<path d="M46.45 55.11L46.07 54.92C42.9 53.34 39.11 53.34 35.94 54.92L35.56 55.11C35.07 55.36 34.87 55.96 35.11 56.45C35.36 56.94 35.96 57.14 36.45 56.9L36.83 56.71C39.44 55.4 42.56 55.4 45.17 56.71L45.55 56.9C45.69 56.97 45.85 57.01 46 57.01C46.37 57.01 46.72 56.81 46.9 56.46C47.15 55.97 46.95 55.37 46.45 55.12V55.11Z" fill="#1B4965"/>
</svg>
