<svg width="80" height="92" viewBox="0 0 80 92" fill="none" xmlns="http://www.w3.org/2000/svg">
<path d="M8.24607 62.547C7.56248 64.215 7.18747 66.0197 7.18747 67.8751C7.18747 68.1329 7.19528 68.3868 7.24607 68.6446C7.3906 69.379 8.02341 69.8282 8.73827 69.8282C8.85155 69.8282 8.96482 69.8165 9.0781 69.7931C9.92576 69.6251 10.4765 68.7228 10.3086 67.8751C10.3086 63.9806 12.4024 60.3556 15.7734 58.4181C16.5234 57.9884 16.7812 57.0314 16.3515 56.2853C15.9218 55.5392 14.9648 55.2775 14.2187 55.7072C12.4453 56.7267 10.9648 58.1213 9.81253 59.7424C6.48053 58.8556 4.05863 55.801 4.05863 52.2502C4.05863 47.9416 7.56253 44.4377 11.8711 44.4377C12.7344 44.4377 13.4336 43.7384 13.4336 42.8752C13.4336 42.0119 12.7344 41.3127 11.8711 41.3127C11.4102 41.3127 10.9727 41.3947 10.5234 41.4494C10.3945 40.8908 10.3086 40.3205 10.3086 39.7502C10.3086 37.5783 11.2383 35.5705 12.7891 34.0979C14.7969 36.5706 17.8203 38.1877 21.2461 38.1877C22.1094 38.1877 22.8086 37.4885 22.8086 36.6252C22.8086 35.7619 22.1094 35.0627 21.2461 35.0627C16.9375 35.0627 13.4336 31.5588 13.4336 27.2502C13.4336 24.719 14.6289 22.4338 16.5586 21.0002C16.5586 21.8635 17.2578 22.5627 18.1211 22.5627C18.9844 22.5627 19.6836 21.8635 19.6836 21.0002C19.6836 13.8166 25.5274 7.96918 32.7146 7.96918C34.6794 7.96918 36.5974 8.44965 38.4334 9.34808V86.6251C38.4334 86.7813 38.4803 86.922 38.5232 87.0665C37.0388 87.7891 35.4099 88.1876 33.7459 88.1876C27.7147 88.1876 22.8079 83.2814 22.8079 77.2496C22.8079 76.3863 22.1087 75.6871 21.2454 75.6871C20.3821 75.6871 19.6829 76.3863 19.6829 77.2496C19.6829 77.7535 19.7806 78.2301 19.8314 78.7184C18.3978 78.527 17.0111 78.0543 15.7611 77.3122C15.0189 76.8747 14.0619 77.1169 13.6205 77.8591C13.183 78.6013 13.4252 79.5622 14.1673 79.9997C16.1009 81.1442 18.2885 81.7731 20.5307 81.8864C22.4604 87.3552 27.6245 91.3083 33.7457 91.3083C35.9254 91.3083 38.0582 90.7731 39.9957 89.8122C41.9332 90.777 44.066 91.3083 46.2457 91.3083C52.3746 91.3083 57.5466 87.3435 59.4686 81.8591C66.8827 81.4763 72.8086 75.3786 72.8086 67.8711C72.8086 66.0156 72.4336 64.2109 71.75 62.543C76.0312 61.0547 79.0586 56.9492 79.0586 52.246C79.0586 47.7655 76.3438 43.914 72.4805 42.226C72.6759 41.4096 72.8087 40.5776 72.8087 39.7455C72.8087 38.8275 72.711 38.058 72.5001 37.3158C72.2618 36.4876 71.3907 36.0228 70.5665 36.2416C69.7384 36.4798 69.2579 37.3432 69.4923 38.1752C69.6212 38.6283 69.6837 39.1283 69.6837 39.7455C69.6837 40.3158 69.5978 40.8822 69.4688 41.4447C69.0235 41.39 68.5821 41.3079 68.1211 41.3079C67.2579 41.3079 66.5586 42.0072 66.5586 42.8704C66.5586 43.7337 67.2579 44.4329 68.1211 44.4329C72.4297 44.4329 75.9336 47.9368 75.9336 52.2454C75.9336 55.7962 73.5117 58.8509 70.1836 59.7376C69.0313 58.1165 67.5547 56.7181 65.7813 55.6907C65.0313 55.2532 64.0743 55.5111 63.6485 56.2611C63.215 57.0071 63.4728 57.9642 64.2189 58.3939C67.5939 60.347 69.6877 63.9759 69.6877 67.8705C69.6877 73.4135 65.5236 77.9605 60.1682 78.6635C60.215 78.1908 60.3127 77.7299 60.3127 77.2455C60.3127 76.3822 59.6135 75.683 58.7502 75.683C57.8869 75.683 57.1877 76.3822 57.1877 77.2455C57.1877 83.2767 52.2815 88.1835 46.2497 88.1835C44.5856 88.1835 42.9567 87.785 41.4724 87.0624C41.5154 86.9178 41.5622 86.7772 41.5622 86.6209V9.33195C42.1404 9.04679 42.7184 8.79289 43.277 8.61711C44.1013 8.3593 44.5582 7.48431 44.3004 6.66011C44.0426 5.83589 43.1715 5.37491 42.3434 5.63671C41.57 5.8789 40.7809 6.20312 39.9918 6.60546C37.6715 5.43746 35.2262 4.84766 32.7145 4.84766C25.1247 4.84766 18.7805 10.1289 17.0585 17.1997C12.996 18.8599 10.3085 22.7739 10.3085 27.2547C10.3085 28.7352 10.6093 30.1453 11.1445 31.4305C8.67967 33.5125 7.18357 36.4969 7.18357 39.7547C7.18357 40.5867 7.31638 41.4188 7.51169 42.2352C3.64449 43.9227 0.933594 47.7743 0.933594 52.2552C0.933594 56.9583 3.96089 61.0638 8.24219 62.5522L8.24607 62.547Z" fill="#1B4965"/>
<path d="M25.938 64.75C25.938 65.6133 26.6372 66.3125 27.5005 66.3125C30.0864 66.3125 32.188 68.4141 32.188 71C32.188 71.8633 32.8872 72.5625 33.7505 72.5625C34.6138 72.5625 35.313 71.8633 35.313 71C35.313 66.6914 31.8091 63.1875 27.5005 63.1875C26.6372 63.1875 25.938 63.8867 25.938 64.75Z" fill="#1B4965"/>
<path d="M23.2701 43.602C21.7935 45.0786 20.981 47.0395 20.981 49.1254C20.981 49.9887 21.6802 50.6879 22.5435 50.6879C23.4067 50.6879 24.106 49.9887 24.106 49.1254C24.106 47.8715 24.5942 46.6957 25.481 45.8129C26.0903 45.2036 26.0903 44.2152 25.481 43.602C24.8716 42.9927 23.8794 42.9927 23.2701 43.602Z" fill="#1B4965"/>
<path d="M54.52 43.6021C53.9106 44.2153 53.9106 45.2036 54.52 45.8129C55.4067 46.6958 55.895 47.8716 55.895 49.1255C55.895 49.9887 56.5942 50.688 57.4575 50.688C58.3208 50.688 59.02 49.9887 59.02 49.1255C59.02 47.0396 58.2075 45.0747 56.7309 43.6021C56.1216 42.9966 55.1293 42.9927 54.52 43.6021Z" fill="#1B4965"/>
<path d="M46.25 72.562C47.1133 72.562 47.8125 71.8628 47.8125 70.9995C47.8125 68.4136 49.9141 66.312 52.5 66.312C53.3633 66.312 54.0625 65.6128 54.0625 64.7495C54.0625 63.8862 53.3633 63.187 52.5 63.187C48.1914 63.187 44.6875 66.6909 44.6875 70.9995C44.6875 71.8628 45.3867 72.562 46.25 72.562Z" fill="#1B4965"/>
<path d="M61.875 35.062C71.3516 35.062 79.063 27.3511 79.063 17.874C79.063 8.39693 71.3521 0.686035 61.875 0.686035C52.3979 0.686035 44.687 8.39693 44.687 17.874C44.687 27.3511 52.3979 35.062 61.875 35.062ZM61.875 3.81204C69.6289 3.81204 75.937 10.1206 75.937 17.874C75.937 25.6274 69.6284 31.936 61.875 31.936C54.1216 31.936 47.813 25.6274 47.813 17.874C47.813 10.1206 54.1216 3.81204 61.875 3.81204Z" fill="#1B4965"/>
<path d="M57.188 22.562V27.2495C57.188 28.1128 57.8872 28.812 58.7505 28.812H65.0005C65.8638 28.812 66.563 28.1128 66.563 27.2495V22.562H71.2505C72.1138 22.562 72.813 21.8628 72.813 20.9995V14.7495C72.813 13.8862 72.1138 13.187 71.2505 13.187H66.563V8.49951C66.563 7.63623 65.8638 6.93701 65.0005 6.93701H58.7505C57.8872 6.93701 57.188 7.63623 57.188 8.49951V13.187H52.5005C51.6372 13.187 50.938 13.8862 50.938 14.7495V20.9995C50.938 21.8628 51.6372 22.562 52.5005 22.562H57.188ZM54.063 16.312H58.7505C59.6138 16.312 60.313 15.6128 60.313 14.7495V10.062H63.438V14.7495C63.438 15.6128 64.1372 16.312 65.0005 16.312H69.688V19.437H65.0005C64.1372 19.437 63.438 20.1362 63.438 20.9995V25.687H60.313V20.9995C60.313 20.1362 59.6138 19.437 58.7505 19.437H54.063V16.312Z" fill="#1B4965"/>
<path d="M35.312 22.562C35.312 21.6987 34.6128 20.9995 33.7495 20.9995C32.8862 20.9995 32.187 21.6987 32.187 22.562C32.187 24.2847 30.7847 25.687 29.062 25.687C28.1987 25.687 27.4995 26.3862 27.4995 27.2495C27.4995 28.1128 28.1987 28.812 29.062 28.812C32.5073 28.812 35.312 26.0073 35.312 22.562Z" fill="#1B4965"/>
<path d="M12.0232 74.133C12.0232 76.215 8.89819 76.215 8.89819 74.133C8.89819 72.0471 12.0232 72.0471 12.0232 74.133Z" fill="#1B4965"/>
</svg>
