<svg width="82" height="88" viewBox="0 0 82 88" fill="none" xmlns="http://www.w3.org/2000/svg">
<path fill-rule="evenodd" clip-rule="evenodd" d="M58.4179 0.554688H67.0077C67.9413 0.554688 68.7929 0.937497 69.41 1.55078C70.0272 2.16797 70.4061 3.01558 70.4061 3.95308V12.0078H78.4608C79.3944 12.0078 80.246 12.3906 80.8631 13.0039C81.4803 13.6211 81.8592 14.4687 81.8592 15.4062V23.996C81.8592 24.9296 81.4764 25.7812 80.8631 26.3983C80.2459 27.0155 79.3983 27.3944 78.4608 27.3944H70.4061V35.4491C70.4061 36.3826 70.0233 37.2343 69.41 37.8514C68.7928 38.4686 67.9452 38.8475 67.0077 38.8475H58.4179C57.4843 38.8475 56.6327 38.4646 56.0156 37.8514C55.3984 37.2342 55.0195 36.3866 55.0195 35.4491V27.3944H46.9648C46.0312 27.3944 45.1796 27.0115 44.5625 26.3983C43.9453 25.7811 43.5664 24.9335 43.5664 23.996V15.4062C43.5664 14.4726 43.9492 13.621 44.5625 13.0039C45.1797 12.3867 46.0273 12.0078 46.9648 12.0078H55.0195V3.95308C55.0195 3.01949 55.4023 2.16788 56.0156 1.55078C56.6328 0.933587 57.4844 0.554688 58.4179 0.554688ZM78.4259 65.1917C74.3868 71.9769 68.6525 77.6217 61.8089 81.5237C55.2034 85.2932 47.5669 87.4456 39.4339 87.4456C31.3011 87.4456 23.6639 85.2933 17.0589 81.5237C10.2191 77.6214 4.48089 71.9768 0.441894 65.1917C0.242674 64.8557 0.141113 64.4886 0.141113 64.1253C0.141113 63.762 0.242674 63.3987 0.441894 63.0589C4.48099 56.2737 10.2153 50.6289 17.0589 46.7269C23.6644 42.9574 31.3009 40.805 39.4339 40.805C47.5667 40.805 55.2039 42.9573 61.8089 46.7269C68.6487 50.6331 74.3869 56.2738 78.4259 63.0589C78.6251 63.3948 78.7267 63.762 78.7267 64.1253C78.7267 64.4886 78.6251 64.8518 78.4259 65.1917ZM60.8789 79.8867C67.4414 76.1406 72.9409 70.7344 76.8089 64.2347C76.8284 64.2034 76.8362 64.1683 76.8362 64.1292C76.8362 64.0902 76.8284 64.055 76.8089 64.0237C72.9378 57.5237 67.4417 52.1137 60.8789 48.3717C54.5508 44.7623 47.2339 42.6998 39.4339 42.6998C31.6331 42.6998 24.3169 44.7623 17.9889 48.3717C11.4264 52.1178 5.92689 57.524 2.05889 64.0237C2.03936 64.055 2.03155 64.0941 2.03155 64.1292C2.03155 64.1644 2.03936 64.2034 2.05889 64.2347C5.92999 70.7347 11.4261 76.1447 17.9889 79.8867C24.317 83.4961 31.6339 85.5586 39.4339 85.5586C47.2347 85.5586 54.5509 83.4961 60.8789 79.8867ZM39.4339 58.0747C37.762 58.0747 36.2503 58.7544 35.1527 59.8481C34.055 60.9458 33.3793 62.4575 33.3793 64.1293C33.3793 65.8011 34.059 67.3129 35.1527 68.4105C36.2504 69.5082 37.7621 70.1839 39.4339 70.1839C41.1057 70.1839 42.6175 69.5081 43.7151 68.4105C44.8127 67.3129 45.4885 65.8011 45.4885 64.1293C45.4885 62.4575 44.8088 60.9457 43.7151 59.8481C42.6174 58.7504 41.1057 58.0747 39.4339 58.0747ZM42.3792 61.1802C41.6253 60.4263 40.5862 59.9614 39.4339 59.9614C38.2855 59.9614 37.2425 60.4262 36.4886 61.1802C35.7347 61.9341 35.2698 62.9732 35.2698 64.1255C35.2698 65.2739 35.7346 66.3169 36.4886 67.0708C37.2425 67.8247 38.2816 68.2896 39.4339 68.2896C40.5823 68.2896 41.6253 67.8247 42.3792 67.0708C43.1331 66.3169 43.598 65.2778 43.598 64.1255C43.598 62.9771 43.1332 61.9341 42.3792 61.1802ZM39.4339 49.5352C35.4066 49.5352 31.7542 51.168 29.1139 53.8086C26.4736 56.4492 24.8405 60.0977 24.8405 64.1286C24.8405 68.1559 26.4733 71.8083 29.1139 74.4486C31.7545 77.0889 35.403 78.722 39.4339 78.722C43.4612 78.722 47.1136 77.0892 49.7539 74.4486C52.3942 71.808 54.0273 68.1595 54.0273 64.1286C54.0273 60.1013 52.3945 56.4489 49.7539 53.8086C47.1094 51.168 43.4609 49.5352 39.4339 49.5352ZM48.4144 55.1446C46.1136 52.8438 42.9378 51.4219 39.43 51.4219C35.9222 51.4219 32.7464 52.8438 30.4456 55.1446C28.1448 57.4454 26.7229 60.6212 26.7229 64.129C26.7229 67.6368 28.1448 70.8126 30.4456 73.1134C32.7464 75.4142 35.9222 76.8361 39.43 76.8361C42.9378 76.8361 46.1136 75.4142 48.4144 73.1134C50.7152 70.8126 52.1371 67.6368 52.1371 64.129C52.1371 60.6173 50.7152 57.4415 48.4144 55.1446ZM67.0084 2.44159H58.4186C58.0045 2.44159 57.6256 2.60956 57.3522 2.8869C57.0788 3.16034 56.9069 3.53924 56.9069 3.9533V12.9533C56.9069 13.4767 56.485 13.8986 55.9616 13.8986H46.9616C46.5475 13.8986 46.1686 14.0666 45.8952 14.3439C45.6217 14.6174 45.4499 14.9963 45.4499 15.4103V24.0001C45.4499 24.4142 45.6178 24.7931 45.8952 25.0665C46.1686 25.34 46.5475 25.5118 46.9616 25.5118H55.9616C56.485 25.5118 56.9069 25.9337 56.9069 26.4571V35.4571C56.9069 35.8712 57.0749 36.2501 57.3522 36.5235C57.6256 36.797 58.0045 36.9688 58.4186 36.9688H67.0084C67.4225 36.9688 67.8014 36.8009 68.0748 36.5235C68.3482 36.2501 68.5201 35.8712 68.5201 35.4571V26.4571C68.5201 25.9337 68.942 25.5118 69.4654 25.5118H78.4654C78.8795 25.5118 79.2584 25.3439 79.5318 25.0665C79.8053 24.7931 79.9771 24.4142 79.9771 24.0001V15.4103C79.9771 14.9963 79.8092 14.6173 79.5318 14.3439C79.2584 14.0705 78.8795 13.8986 78.4654 13.8986H69.4654C68.942 13.8986 68.5201 13.4767 68.5201 12.9533V3.9533C68.5201 3.53924 68.3521 3.16033 68.0748 2.8869C67.8014 2.61346 67.4264 2.44159 67.0084 2.44159Z" fill="#1B4965"/>
</svg>
