<svg width="80" height="80" viewBox="0 0 80 80" fill="none" xmlns="http://www.w3.org/2000/svg">
<g clip-path="url(#clip0_13_26)">
<path d="M59.6737 79.8763C57.094 79.8766 54.515 78.8947 52.5513 76.9309C49.8213 74.2012 48.8969 70.2423 50.0978 66.6626L32.3893 48.9539C32.1245 48.6892 32.0118 48.3084 32.0901 47.9422L33.1816 42.8253C33.2958 42.2896 33.7853 41.9175 34.332 41.953L45.555 42.6655C45.8733 42.6856 46.1824 42.5685 46.4072 42.3435C46.5641 42.1864 46.6693 41.988 46.7106 41.7692L48.1767 34.0547C48.2532 33.6527 48.5458 33.3254 48.9369 33.205C49.3283 33.0839 49.7542 33.1904 50.0434 33.4797L66.6622 50.0982C70.2414 48.8971 74.2006 49.8215 76.9305 52.5517C80.8578 56.479 80.8576 62.8695 76.9296 66.7977C74.9953 68.732 72.4249 69.7705 69.7486 69.7495C69.7712 72.4346 68.7312 74.9959 66.797 76.9305C64.833 78.8945 62.2532 79.8763 59.6737 79.8763ZM34.3769 47.816L52.1645 65.6039C52.4823 65.9217 52.576 66.4001 52.4014 66.8143C51.1694 69.7382 51.8417 73.096 54.1139 75.3685C57.1796 78.4337 62.1681 78.4341 65.2341 75.3681C66.9955 73.6065 67.8067 71.1793 67.4598 68.7086C67.4114 68.365 67.5274 68.0189 67.7725 67.7738C68.0176 67.5287 68.3643 67.412 68.7073 67.4609C71.1787 67.8061 73.6056 66.9961 75.367 65.2352C78.433 62.1687 78.4335 57.18 75.3679 54.1144C73.0954 51.8421 69.7374 51.1703 66.8138 52.4019C66.3999 52.5769 65.9212 52.4828 65.6034 52.165L49.9577 36.5194L48.8819 42.1818C48.7575 42.8379 48.4421 43.4341 47.9698 43.9062C47.2962 44.58 46.3641 44.9298 45.4149 44.8713L35.1435 44.2193L34.3769 47.816Z" fill="#1B4965"/>
<path d="M26.3212 42.4274C26.0321 42.4274 25.7501 42.314 25.5397 42.1036L13.3377 29.9016C9.75764 31.1025 5.79896 30.1781 3.06946 27.4484C1.16714 25.5458 0.119408 23.0161 0.119629 20.3252C0.11985 17.6344 1.1678 15.1047 3.07034 13.2024C5.00471 11.2682 7.56581 10.2253 10.2516 10.2508C10.2288 7.56502 11.2688 5.00413 13.2032 3.06955C17.1309 -0.85796 23.5214 -0.85818 27.4487 3.06911C30.1786 5.79905 31.1031 9.75772 29.9019 13.3374L43.138 26.5734C43.3968 26.832 43.5106 27.2017 43.4423 27.5611L41.7793 36.3144C41.6752 36.8616 41.1833 37.2459 40.6237 37.211L29.444 36.5012C28.9026 36.4647 28.4067 36.8417 28.2933 37.3734L27.4016 41.5529C27.3172 41.9489 27.0226 42.2669 26.6343 42.3821C26.5311 42.4126 26.4257 42.4274 26.3212 42.4274ZM13.6147 27.5116C13.9022 27.5116 14.1848 27.6238 14.3963 27.8351L25.6646 39.1034L26.132 36.9124C26.4721 35.3173 27.9561 34.1938 29.5839 34.2954L39.7901 34.9436L41.1618 27.7228L27.8352 14.3962C27.5174 14.0784 27.4237 13.5997 27.5983 13.1858C28.8303 10.2618 28.1583 6.90402 25.8858 4.63176C22.8202 1.56591 17.8314 1.56635 14.7656 4.6322C13.0045 6.3933 12.1932 8.82071 12.54 11.2916C12.5881 11.6351 12.4721 11.9814 12.227 12.2265C11.9817 12.4718 11.6356 12.5867 11.2922 12.5394C8.82128 12.1924 6.39388 13.0039 4.633 14.765C1.5667 17.8313 1.56626 22.8201 4.63211 25.8857C6.9046 28.1582 10.2622 28.83 13.1861 27.5982C13.3245 27.5398 13.4701 27.5116 13.6147 27.5116Z" fill="#1B4965"/>
<path d="M22.0295 53.7624C21.7466 53.7624 21.4639 53.6545 21.248 53.4386C20.8164 53.0072 20.8164 52.3076 21.248 51.8762L25.1547 47.9695C25.5863 47.5379 26.2858 47.5379 26.7174 47.9695C27.149 48.4008 27.149 49.1005 26.7174 49.5319L22.8106 53.4386C22.595 53.6545 22.3121 53.7624 22.0295 53.7624Z" fill="#1B4965"/>
<path d="M30.0552 60.5524C29.445 60.5524 28.9502 60.0578 28.9502 59.4475V53.9226C28.9502 53.3122 29.445 52.8176 30.0552 52.8176C30.6656 52.8176 31.1601 53.3122 31.1601 53.9226V59.4475C31.1601 60.0578 30.6656 60.5524 30.0552 60.5524Z" fill="#1B4965"/>
<path d="M20.5524 45.5249H15.0276C14.4174 45.5249 13.9226 45.0303 13.9226 44.4199C13.9226 43.8095 14.4174 43.3149 15.0276 43.3149H20.5524C21.1626 43.3149 21.6574 43.8095 21.6574 44.4199C21.6574 45.0303 21.1626 45.5249 20.5524 45.5249Z" fill="#1B4965"/>
<path d="M48.7509 27.0408C48.4683 27.0408 48.1852 26.933 47.9697 26.7173C47.5381 26.2857 47.5381 25.586 47.9697 25.1546L51.8764 21.2479C52.3076 20.8165 53.0077 20.8165 53.4389 21.2479C53.8705 21.6795 53.8705 22.3791 53.4389 22.8105L49.5321 26.7173C49.3164 26.933 49.0336 27.0408 48.7509 27.0408Z" fill="#1B4965"/>
<path d="M59.4475 31.1601H53.9226C53.3122 31.1601 52.8176 30.6656 52.8176 30.0552C52.8176 29.445 53.3122 28.9502 53.9226 28.9502H59.4475C60.0578 28.9502 60.5524 29.445 60.5524 30.0552C60.5524 30.6656 60.0578 31.1601 59.4475 31.1601Z" fill="#1B4965"/>
<path d="M44.4199 21.6574C43.8095 21.6574 43.3149 21.1626 43.3149 20.5524V15.0276C43.3149 14.4174 43.8095 13.9226 44.4199 13.9226C45.0303 13.9226 45.5249 14.4174 45.5249 15.0276V20.5524C45.5249 21.1626 45.0303 21.6574 44.4199 21.6574Z" fill="#1B4965"/>
<path d="M56.7349 63.7806C56.4523 63.7806 56.1692 63.6727 55.9537 63.4568L46.5984 54.1015C46.1668 53.6701 46.1668 52.9704 46.5984 52.539C47.0295 52.1074 47.7296 52.1074 48.1608 52.539L57.5161 61.8944C57.9477 62.3258 57.9477 63.0254 57.5161 63.4568C57.3005 63.6727 57.0176 63.7806 56.7349 63.7806Z" fill="#1B4965"/>
<path d="M22.8918 9.44191C22.6089 9.44191 22.3263 9.33407 22.1104 9.11815C21.6589 8.66666 21.0596 8.41738 20.4231 8.4165C20.422 8.4165 20.4209 8.4165 20.4198 8.4165C19.7851 8.4165 19.1884 8.66401 18.7391 9.11329C18.3075 9.54467 17.6081 9.54467 17.1765 9.11329C16.7449 8.68169 16.7449 7.98202 17.1765 7.55064C18.0452 6.68235 19.197 6.20412 20.4264 6.20655C21.6518 6.20832 22.805 6.68744 23.6733 7.55572C24.1049 7.98733 24.1049 8.68677 23.6733 9.11838C23.4573 9.33385 23.1745 9.44191 22.8918 9.44191Z" fill="#1B4965"/>
<path d="M59.4308 74.0145C59.4286 74.0145 59.4263 74.0145 59.4244 74.0143C58.1987 74.0128 57.0456 73.5334 56.1775 72.6654C55.7461 72.2338 55.7461 71.5343 56.1777 71.1027C56.6093 70.6716 57.3088 70.6713 57.7404 71.1029C58.1919 71.5547 58.791 71.8037 59.4275 71.8048C59.4286 71.8048 59.4299 71.8048 59.431 71.8048C60.0657 71.8048 60.6624 71.5573 61.1119 71.108C61.543 70.6764 62.2432 70.6764 62.6743 71.108C63.1059 71.5394 63.1059 72.2391 62.6743 72.6705C61.8076 73.5372 60.6557 74.0145 59.4308 74.0145Z" fill="#1B4965"/>
<path d="M8.38621 60.0933C8.10334 60.0933 7.82069 59.9854 7.60477 59.7695C5.81494 57.9797 5.81737 55.0652 7.60964 53.2729C8.04124 52.8413 8.74069 52.8413 9.17229 53.2729C9.60389 53.7043 9.60389 54.404 9.17229 54.8354C8.24146 55.7664 8.23925 57.2789 9.16743 58.2071C9.59903 58.6384 9.59903 59.3381 9.16743 59.7697C8.95173 59.9854 8.66908 60.0933 8.38621 60.0933Z" fill="#1B4965"/>
</g>
<defs>
<clipPath id="clip0_13_26">
<rect width="80" height="80" fill="white"/>
</clipPath>
</defs>
</svg>
