<svg width="80" height="88" viewBox="0 0 80 88" fill="none" xmlns="http://www.w3.org/2000/svg">
<path d="M75.2379 25.219C68.7379 12.172 58.1329 4.875 43.6559 10.844C42.5075 11.3401 41.4059 11.9456 40.3747 12.6487C39.1364 10.7893 38.6716 8.5237 39.07 6.3284C39.3513 4.8323 38.9528 3.2932 37.9841 2.1214C37.0193 0.945596 35.5818 0.261996 34.0622 0.250296H32.4997C27.2536 0.0667062 26.1638 7.4808 27.3552 10.8983C28.945 14.7147 30.9021 18.3671 33.2029 21.7963C32.2147 24.8666 32.2537 28.1752 33.3123 31.2221C34.5623 34.2026 34.4881 37.5698 33.1092 40.4916C29.203 48.2064 21.7382 57.0536 17.6322 61.6636C15.9799 63.0074 15.851 66.2339 13.5384 66.2574C9.49149 66.2105 6.43679 67.6636 4.74149 70.523C2.85089 74.0035 1.49929 77.7535 0.741494 81.64C0.206334 84.1088 1.72977 86.558 4.17899 87.1752L5.81179 87.5815V87.5854C7.10089 87.9057 8.46409 87.6674 9.56569 86.9291C10.6712 86.1908 11.4134 85.0229 11.6126 83.7103C12.3196 80.5345 11.9603 75.3353 16.7415 76.6087C20.0657 81.6517 26.429 83.1165 32.2185 82.8509C68.3205 83.0462 88.6135 52.0539 75.2385 25.2179L75.2379 25.219ZM41.6329 78.969C40.0157 79.2503 38.3087 79.4065 38.2618 79.4065C32.4806 79.7659 25.3828 80.7385 20.7928 76.5393C19.7498 75.8205 19.324 74.3596 18.2069 73.7776H18.203C16.3007 73.0862 14.1991 73.1799 12.3671 74.0471C10.8007 74.9495 9.72653 76.5119 9.43743 78.2971C9.04681 80.0393 8.7304 81.7151 8.49993 83.2659C8.44524 83.7073 8.19915 84.1058 7.82415 84.3479C7.05071 84.9729 5.76945 84.2581 4.95305 84.1448C4.13664 83.9456 3.62495 83.1331 3.79285 82.3089C4.48816 78.7503 5.71475 75.3206 7.42955 72.1249C8.80065 70.1327 11.1756 69.078 13.574 69.3983C15.6443 69.41 17.5193 68.1874 18.3435 66.2928C18.7459 65.3592 19.2967 64.4959 19.9724 63.7342C24.1755 59.0311 31.8274 49.9492 35.9104 41.9222C37.6877 38.2347 37.8166 33.9652 36.2698 30.1762C35.3479 27.5707 35.3909 24.7231 36.3831 22.145C36.5276 21.6684 36.469 21.1528 36.2269 20.7192C33.9417 17.309 31.9652 13.6997 30.3246 9.93821C29.9027 8.24291 29.9886 6.45771 30.5746 4.80931C30.8363 3.97337 31.6137 3.40311 32.4887 3.40311H34.0512C34.6488 3.40311 35.2114 3.67264 35.5864 4.13358C35.9614 4.59842 36.1059 5.20388 35.9809 5.78978C35.309 10.1101 36.3793 11.8836 38.5981 15.9698L38.602 15.9659C39.0473 16.4698 39.7582 16.6456 40.3872 16.4073C41.8325 15.3096 43.4028 14.3878 45.063 13.6612C51.8989 10.9073 59.93 11.1534 65.309 16.7354C73.0707 24.8213 80.84 39.0944 72.9926 57.0404C66.6996 68.9894 55.0156 77.1574 41.6336 78.9624L41.6329 78.969Z" fill="#1B4965"/>
<path d="M56.2299 16.125C48.3783 14.5625 37.1319 20.2891 39.9999 28.859C41.8944 33.6637 41.6835 39.047 39.4218 43.695C35.3749 51.6911 28.2268 60.429 22.9378 66.351C22.0159 67.3666 21.5472 68.7182 21.6409 70.0854C21.7347 71.4565 22.387 72.7299 23.4417 73.6088C25.6526 75.7572 29.2112 75.765 32.1761 75.7572C40.2659 75.4447 44.5201 75.1986 54.3211 70.7064C75.2231 58.6984 74.4501 39.1554 68.9071 28.3544C66.2938 23.5146 62.1376 17.0844 56.2311 16.1244L56.2299 16.125ZM47.683 20.2344C57.1361 16.336 61.91 22.0196 66.093 29.7539V29.75C67.343 32.3164 68.218 35.0469 68.6985 37.8594C66.4524 38.2657 65.9954 39.2656 63.5227 39.2539C60.2688 39.1875 60.175 37.6289 56.4836 37.6914C52.7844 37.6328 52.6906 39.1953 49.425 39.2539C46.9797 39.2656 46.5109 38.2656 44.2961 37.8594C44.5852 34.4571 44.1282 31.0313 42.9641 27.8244C41.9602 24.9689 43.9525 21.7851 47.683 20.2344ZM66.613 53.9334C60.0505 66.7344 45.746 73.7184 28.644 72.5154C26.5932 72.4334 23.4721 70.6599 25.2885 68.4373C30.683 62.3826 38.0225 53.4143 42.2265 45.1173V45.1212C42.8906 43.797 43.414 42.4024 43.7773 40.965C45.8828 41.4767 46.4609 42.4103 49.4218 42.3947V42.3908C50.8671 42.4299 52.3007 42.1096 53.5937 41.465C55.4296 40.6369 57.5312 40.6369 59.3671 41.465C60.6562 42.1056 62.0819 42.426 63.5233 42.3908C66.4413 42.3908 67.0428 41.5471 69.0741 40.9846C69.3945 45.4416 68.5466 49.9063 66.613 53.9334Z" fill="#1B4965"/>
<path d="M47.363 47.7729C46.4958 47.7729 45.7927 48.4761 45.7927 49.3394C45.7927 50.2065 46.4958 50.9096 47.363 50.9096C48.2263 50.9096 48.9294 50.2065 48.9294 49.3394C48.9294 48.4761 48.2263 47.7729 47.363 47.7729Z" fill="#1B4965"/>
<path d="M40.281 61.883C40.3162 63.1603 41.3591 64.176 42.6365 64.176C43.9099 64.176 44.9529 63.1604 44.9881 61.883C44.9529 60.6096 43.91 59.5939 42.6365 59.5939C41.3592 59.5939 40.3162 60.6095 40.281 61.883Z" fill="#1B4965"/>
<path d="M55.9648 47.7701C55.9961 49.0474 57.039 50.063 58.3164 50.063C59.5938 50.063 60.6367 49.0475 60.668 47.7701C60.6368 46.4967 59.5938 45.4771 58.3164 45.4771C57.039 45.4771 55.9961 46.4966 55.9648 47.7701Z" fill="#1B4965"/>
<path d="M53.637 57.184C52.7698 57.184 52.0667 57.8871 52.0667 58.7504C52.0667 59.6175 52.7698 60.3207 53.637 60.3207C54.5002 60.3207 55.2034 59.6175 55.2034 58.7504C55.2034 57.8871 54.5002 57.184 53.637 57.184Z" fill="#1B4965"/>
</svg>
