<svg width="88" height="98" viewBox="0 0 88 98" fill="none" xmlns="http://www.w3.org/2000/svg">
<path d="M38.4478 20.0485C38.2349 20.3476 37.8198 20.4176 37.5207 20.2047C37.2215 19.9919 37.1516 19.5768 37.3644 19.2776C38.8267 17.2146 40.8272 15.259 43.7408 13.9735C44.9197 13.4533 46.2462 13.0442 47.7446 12.784C45.9116 10.7561 45.5068 6.25889 45.2339 3.22524C45.168 2.49304 45.1105 1.85481 45.0381 1.34794C44.9864 0.984075 45.2394 0.647108 45.6032 0.595342C45.9671 0.543575 46.3041 0.796575 46.3558 1.16044C46.4246 1.64219 46.4862 2.32609 46.5568 3.11064C46.8773 6.67217 47.4046 12.5282 50.0807 12.5128C51.6834 12.4126 53.4547 12.4662 55.4161 12.7071C57.3986 12.9505 59.6642 13.7721 61.9935 14.6169C62.2137 14.6967 62.4345 14.7768 62.6556 14.8566C63.64 15.1586 64.46 15.1347 65.1702 14.9245C65.899 14.7087 66.5394 14.2885 67.1302 13.8173C68.8731 12.4274 70.526 11.1111 72.3581 10.0856C74.224 9.04126 76.2547 8.30876 78.7077 8.12408C79.0744 8.09676 79.3939 8.37191 79.4212 8.73866C79.4485 9.10541 79.1734 9.42489 78.8066 9.45221C76.573 9.62037 74.7177 10.2908 73.0091 11.2471C71.2667 12.2223 69.6565 13.5047 67.9584 14.859C67.3975 15.3063 66.7889 15.718 66.0927 16.0063C66.2208 16.0434 66.3483 16.0795 66.4753 16.1144C67.3451 16.3534 68.2041 16.5407 69.0396 16.6428C69.8454 16.7411 70.614 16.756 71.3277 16.6545C71.6916 16.6028 72.0285 16.8558 72.0803 17.2196C72.1321 17.5835 71.8791 17.9205 71.5152 17.9722C70.6739 18.0919 69.79 18.077 68.8781 17.9657C67.996 17.858 67.072 17.6555 66.1263 17.3956C64.5985 16.9759 63.0557 16.4164 61.5404 15.8669C59.2895 15.0506 57.1002 14.2567 55.2547 14.03C50.5023 13.4464 46.9617 14.0078 44.2773 15.1922C41.6191 16.3651 39.7887 18.1566 38.4478 20.0485ZM23.3998 86.4664C23.522 86.2723 23.7785 86.214 23.9727 86.3362C24.1668 86.4584 24.2251 86.715 24.1029 86.9091C23.5305 87.8189 22.7806 89.3157 22.2575 90.7425C21.8631 91.8184 21.602 92.8385 21.6583 93.495C21.6771 93.7242 21.5066 93.9254 21.2774 93.9442C21.0482 93.9631 20.8471 93.7926 20.8282 93.5634C20.7607 92.7767 21.0444 91.634 21.4762 90.456C22.0179 88.9784 22.8003 87.4194 23.3998 86.4664ZM64.1452 19.2493C63.9295 19.1711 63.818 18.9328 63.8962 18.7171C63.9744 18.5014 64.2127 18.3899 64.4284 18.4681C65.2967 18.7836 66.1505 19.0441 66.9751 19.2129C67.7878 19.3794 68.5745 19.4574 69.3216 19.412C69.5508 19.3985 69.7476 19.5734 69.7611 19.8026C69.7746 20.0318 69.5997 20.2285 69.3705 20.242C68.5498 20.292 67.6916 20.2075 66.8091 20.0267C65.9386 19.8484 65.0466 19.577 64.1452 19.2493ZM15.1581 57.5998L18.3132 62.0366C18.5261 62.3358 18.4561 62.7508 18.157 62.9637C17.8578 63.1765 17.4427 63.1066 17.2299 62.8074L14.5357 59.0188C14.2279 59.6218 13.8705 60.2135 13.4636 60.8118C13.258 61.1153 12.8452 61.1946 12.5418 60.9889C12.2383 60.7833 12.159 60.3705 12.3647 60.067C13.1686 58.8848 13.7588 57.7371 14.1348 56.4602C14.512 55.1796 14.6768 53.7587 14.6292 52.0315C14.6192 51.6648 14.9083 51.3593 15.2751 51.3492C15.6418 51.3392 15.9473 51.6283 15.9574 51.9951C16.0089 53.8696 15.8268 55.4228 15.4109 56.8352C15.3344 57.0948 15.2501 57.3492 15.1581 57.5998ZM33.0571 13.3758C33.7749 13.3758 34.4249 13.6668 34.8953 14.1373C35.3658 14.6078 35.6568 15.2577 35.6568 15.9755C35.6568 16.6934 35.3658 17.3433 34.8953 17.8138C34.4249 18.2843 33.7749 18.5753 33.0571 18.5753C32.3393 18.5753 31.6894 18.2843 31.2189 17.8138C30.7484 17.3433 30.4574 16.6934 30.4574 15.9755C30.4574 15.2577 30.7484 14.6078 31.2189 14.1373C31.6894 13.6668 32.3393 13.3758 33.0571 13.3758ZM33.9526 15.08C33.7235 14.8509 33.4069 14.7092 33.0571 14.7092C32.7074 14.7092 32.3907 14.8509 32.1616 15.08C31.9325 15.3091 31.7907 15.6258 31.7907 15.9755C31.7907 16.3253 31.9325 16.6419 32.1616 16.8711C32.3907 17.1002 32.7074 17.2419 33.0571 17.2419C33.4069 17.2419 33.7235 17.1002 33.9526 16.8711C34.1818 16.6419 34.3235 16.3253 34.3235 15.9755C34.3235 15.6258 34.1818 15.3091 33.9526 15.08ZM31.1668 22.0343C31.9736 22.0343 32.7041 22.3614 33.2329 22.8902C33.7616 23.4189 34.0887 24.1494 34.0887 24.9562C34.0887 25.763 33.7616 26.4935 33.2329 27.0222C32.7041 27.551 31.9736 27.8781 31.1668 27.8781C30.36 27.8781 29.6296 27.551 29.1008 27.0222C28.572 26.4935 28.2449 25.763 28.2449 24.9562C28.2449 24.1494 28.572 23.4189 29.1008 22.8902C29.6296 22.3614 30.36 22.0343 31.1668 22.0343ZM32.2902 23.8329C32.0027 23.5454 31.6056 23.3676 31.1668 23.3676C30.7281 23.3676 30.3309 23.5454 30.0435 23.8329C29.7561 24.1203 29.5783 24.5175 29.5783 24.9562C29.5783 25.3949 29.7561 25.7921 30.0435 26.0795C30.3309 26.367 30.7281 26.5448 31.1668 26.5448C31.6056 26.5448 32.0027 26.367 32.2902 26.0795C32.5776 25.7921 32.7554 25.3949 32.7554 24.9562C32.7554 24.5175 32.5776 24.1203 32.2902 23.8329ZM29.6124 33.3266C30.5081 33.3266 31.3192 33.6898 31.9062 34.2769C32.4933 34.8639 32.8564 35.675 32.8564 36.5707C32.8564 37.4665 32.4933 38.2775 31.9062 38.8646C31.3191 39.4516 30.5081 39.8148 29.6124 39.8148C28.7166 39.8148 27.9056 39.4516 27.3185 38.8646C26.7315 38.2775 26.3683 37.4665 26.3683 36.5707C26.3683 35.675 26.7315 34.8639 27.3185 34.2768C27.9056 33.6898 28.7166 33.3266 29.6124 33.3266ZM30.9635 35.2196C30.6178 34.8738 30.1401 34.66 29.6124 34.66C29.0847 34.66 28.607 34.8738 28.2612 35.2195C27.9155 35.5653 27.7017 36.043 27.7017 36.5707C27.7017 37.0984 27.9155 37.5761 28.2612 37.9219C28.607 38.2676 29.0847 38.4814 29.6124 38.4814C30.1401 38.4814 30.6178 38.2676 30.9635 37.9219C31.3092 37.5761 31.5231 37.0984 31.5231 36.5707C31.5231 36.043 31.3092 35.5653 30.9635 35.2196ZM32.4959 44.8646C33.5695 44.8646 34.5416 45.2999 35.2453 46.0036C35.949 46.7073 36.3843 47.6794 36.3843 48.7531C36.3843 49.8268 35.949 50.7989 35.2453 51.5025C34.5416 52.2062 33.5695 52.6415 32.4959 52.6415C31.4222 52.6415 30.4501 52.2062 29.7464 51.5025C29.0427 50.7988 28.6074 49.8267 28.6074 48.7531C28.6074 47.6794 29.0427 46.7073 29.7464 46.0036C30.4501 45.2999 31.4222 44.8646 32.4959 44.8646ZM34.3026 46.9463C33.8403 46.4839 33.2015 46.198 32.4959 46.198C31.7902 46.198 31.1514 46.484 30.6891 46.9463C30.2268 47.4086 29.9408 48.0474 29.9408 48.7531C29.9408 49.4587 30.2267 50.0975 30.6891 50.5598C31.1514 51.0222 31.7902 51.3081 32.4959 51.3081C33.2015 51.3081 33.8403 51.0222 34.3026 50.5598C34.765 50.0975 35.0509 49.4587 35.0509 48.7531C35.0509 48.0474 34.765 47.4086 34.3026 46.9463ZM34.0964 91.8349C34.8142 91.8349 35.4642 92.1259 35.9346 92.5964C36.4051 93.0669 36.6961 93.7168 36.6961 94.4346C36.6961 95.1524 36.4051 95.8023 35.9346 96.2728C35.4641 96.7433 34.8142 97.0343 34.0964 97.0343C33.3786 97.0343 32.7286 96.7433 32.2582 96.2728C31.7877 95.8023 31.4967 95.1524 31.4967 94.4346C31.4967 93.7168 31.7877 93.0669 32.2582 92.5964C32.7286 92.1259 33.3786 91.8349 34.0964 91.8349ZM34.9919 93.5391C34.7628 93.31 34.4462 93.1682 34.0964 93.1682C33.7466 93.1682 33.43 93.31 33.2009 93.5391C32.9717 93.7682 32.83 94.0848 32.83 94.4346C32.83 94.7844 32.9717 95.101 33.2009 95.3301C33.43 95.5592 33.7466 95.701 34.0964 95.701C34.4462 95.701 34.7628 95.5592 34.9919 95.3301C35.221 95.101 35.3628 94.7844 35.3628 94.4346C35.3628 94.0848 35.221 93.7682 34.9919 93.5391ZM36.7251 81.9247C37.6208 81.9247 38.4318 82.2879 39.0189 82.875C39.606 83.462 39.9691 84.2731 39.9691 85.1688C39.9691 86.0646 39.606 86.8756 39.0189 87.4626C38.4318 88.0497 37.6208 88.4129 36.7251 88.4129C35.8293 88.4129 35.0183 88.0497 34.4312 87.4626C33.8441 86.8756 33.481 86.0646 33.481 85.1688C33.481 84.2731 33.8441 83.462 34.4312 82.875C35.0183 82.2879 35.8293 81.9247 36.7251 81.9247ZM38.0762 83.8177C37.7305 83.4719 37.2528 83.2581 36.7251 83.2581C36.1974 83.2581 35.7196 83.4719 35.3739 83.8177C35.0282 84.1634 34.8143 84.6411 34.8143 85.1688C34.8143 85.6965 35.0282 86.1742 35.3739 86.5199C35.7196 86.8657 36.1974 87.0795 36.7251 87.0795C37.2528 87.0795 37.7305 86.8657 38.0762 86.5199C38.4219 86.1742 38.6358 85.6965 38.6358 85.1688C38.6358 84.6411 38.4219 84.1634 38.0762 83.8177ZM38.5204 70.2002C39.5941 70.2002 40.5662 70.6355 41.2699 71.3391C41.9735 72.0428 42.4088 73.0149 42.4088 74.0886C42.4088 75.1623 41.9735 76.1344 41.2699 76.8381C40.5662 77.5418 39.5941 77.977 38.5204 77.977C37.4467 77.977 36.4746 77.5418 35.7709 76.8381C35.0672 76.1344 34.632 75.1623 34.632 74.0886C34.632 73.015 35.0672 72.0428 35.7709 71.3391C36.4746 70.6355 37.4467 70.2002 38.5204 70.2002ZM40.3272 72.2818C39.8648 71.8195 39.226 71.5335 38.5204 71.5335C37.8148 71.5335 37.1759 71.8195 36.7136 72.2818C36.2513 72.7442 35.9653 73.383 35.9653 74.0886C35.9653 74.7942 36.2513 75.4331 36.7136 75.8954C37.176 76.3577 37.8148 76.6437 38.5204 76.6437C39.226 76.6437 39.8648 76.3577 40.3272 75.8954C40.7895 75.4331 41.0755 74.7942 41.0755 74.0886C41.0755 73.383 40.7895 72.7442 40.3272 72.2818ZM37.2017 56.4812C38.3494 56.4812 39.3886 56.9465 40.1408 57.6987C40.893 58.4509 41.3583 59.4901 41.3583 60.6378C41.3583 61.7856 40.893 62.8247 40.1408 63.577C39.3886 64.3292 38.3494 64.7945 37.2017 64.7945C36.0539 64.7945 35.0147 64.3292 34.2625 63.577C33.5103 62.8247 33.045 61.7856 33.045 60.6378C33.045 59.4901 33.5103 58.4509 34.2625 57.6987C35.0147 56.9465 36.0539 56.4812 37.2017 56.4812ZM39.1981 58.6414C38.6872 58.1305 37.9814 57.8145 37.2017 57.8145C36.422 57.8145 35.7161 58.1305 35.2052 58.6414C34.6944 59.1522 34.3783 59.8581 34.3783 60.6378C34.3783 61.4175 34.6944 62.1234 35.2052 62.6343C35.7161 63.1451 36.422 63.4611 37.2017 63.4611C37.9814 63.4611 38.6872 63.1451 39.1981 62.6343C39.709 62.1234 40.025 61.4175 40.025 60.6378C40.025 59.8581 39.709 59.1523 39.1981 58.6414ZM60.1134 76.3686C59.8523 77.8416 59.8401 79.2937 59.9601 80.5549C60.1178 82.2124 60.4916 83.5023 60.8207 84.0521C61.9795 85.9877 62.9803 88.4264 63.4367 90.884C63.828 92.9904 63.8205 95.1203 63.1763 96.983C63.0569 97.3296 62.6791 97.5138 62.3325 97.3944C61.9859 97.2751 61.8017 96.8973 61.9211 96.5507C62.4835 94.9245 62.4825 93.0246 62.1294 91.1236C61.7034 88.83 60.7662 86.5487 59.6801 84.7344C59.3037 84.1056 58.8881 82.7806 58.6857 81.1264C58.2283 82.649 57.7404 84.2999 57.2415 86.0891C57.1437 86.4429 56.7776 86.6505 56.4238 86.5527C56.07 86.4549 55.8624 86.0887 55.9602 85.7349C56.6986 83.0869 57.3428 80.9579 57.9177 79.058C60.2542 71.3363 61.4549 67.3679 60.6822 56.922C60.5659 55.3499 60.5482 53.7441 60.7324 52.1201C60.7594 51.8817 60.7909 51.643 60.8269 51.4042C60.0459 52.4549 59.1206 53.6252 58.0113 55.0034C57.7812 55.2896 57.3626 55.3351 57.0764 55.105C56.7902 54.8748 56.7447 54.4563 56.9748 54.1701C59.4572 51.0859 60.9919 49.0765 62.0317 47.1365C62.0349 47.1302 62.0383 47.1241 62.0417 47.1179C62.2581 46.7131 62.453 46.3112 62.6305 45.9029C63.6589 43.5375 64.1358 40.8803 64.8638 36.1485C64.9184 35.7847 65.2577 35.534 65.6216 35.5887C65.9855 35.6433 66.2361 35.9826 66.1815 36.3465C65.4369 41.1866 64.9446 43.915 63.8492 46.4342C63.6594 46.8709 63.4523 47.2989 63.2236 47.728C62.5844 49.2376 62.2266 50.7564 62.0553 52.2659C61.8815 53.7981 61.8993 55.326 62.0104 56.8282C62.692 66.0423 61.8767 70.322 60.1134 76.3686ZM68.2303 30.7551C67.8693 30.827 67.5184 30.5926 67.4464 30.2316C67.3745 29.8706 67.6089 29.5197 67.9699 29.4478C77.7463 27.4925 78.9049 25.5377 82.4025 19.6366C83.4429 17.8813 84.6825 15.7898 86.3828 13.2733C86.5885 12.9684 87.0024 12.888 87.3073 13.0936C87.6122 13.2993 87.6927 13.7132 87.487 14.0181C85.7992 16.5161 84.5755 18.5808 83.5483 20.3137C79.8219 26.6009 78.5874 28.6837 68.2303 30.7551ZM51.8546 40.6845C51.7036 41.0196 51.3095 41.1688 50.9744 41.0178C50.6393 40.8668 50.4901 40.4727 50.6411 40.1376C51.5844 38.0452 52.7135 36.2048 54.396 34.6871C56.0764 33.1712 58.292 31.9957 61.4012 31.2399C61.7579 31.1536 62.117 31.3728 62.2033 31.7295C62.2896 32.0862 62.0704 32.4453 61.7137 32.5316C58.842 33.2297 56.8114 34.3012 55.2866 35.6767C53.764 37.0502 52.7287 38.7456 51.8546 40.6845ZM22.6694 62.5956C22.663 62.5835 22.6571 62.5713 22.6515 62.5591C18.409 54.3642 15.8426 48.3437 12.7393 37.0168C12.6429 36.663 12.8516 36.298 13.2054 36.2017C13.5592 36.1053 13.9242 36.314 14.0206 36.6678C17.0881 47.8641 19.6317 53.8341 23.8335 61.9524C23.8379 61.9601 23.8423 61.9679 23.8465 61.9758C23.8974 62.0725 23.9472 62.1692 23.9961 62.2661C25.161 64.5096 26.4526 66.9216 27.9168 69.6556L28.4389 70.6308C28.6115 70.9544 28.4891 71.3566 28.1655 71.5292C27.8419 71.7018 27.4396 71.5794 27.2671 71.2558L26.7449 70.2806C26.4439 69.7185 26.1505 69.1707 25.8636 68.6343C25.8986 68.9628 25.9254 69.2915 25.9442 69.6205C26.0905 72.1791 25.7566 74.7434 25.1373 77.2588C24.6173 79.3707 23.1293 82.3061 21.5933 85.3361C19.4246 89.6143 17.1569 94.0878 17.5674 96.2417C17.635 96.6027 17.3972 96.9502 17.0362 97.0178C16.6752 97.0853 16.3277 96.8475 16.2601 96.4865C15.7654 93.8912 18.1374 89.212 20.4058 84.7372C21.9073 81.7752 23.3619 78.9057 23.8456 76.9411C24.4357 74.5446 24.7542 72.1098 24.6161 69.6934C24.4791 67.2975 23.8911 64.9136 22.6694 62.5956ZM29.5788 1.97139C29.5113 1.61039 29.7491 1.26292 30.1101 1.19534C30.4711 1.12776 30.8186 1.36559 30.8861 1.72659C31.2482 3.63136 31.3926 5.65309 31.1717 7.49622C30.9757 9.13141 30.4924 10.6354 29.6214 11.8159C28.9619 12.7098 26.4645 14.0468 23.2977 15.4869C20.2374 16.8785 16.4738 18.4111 13.1899 19.717C1.48902 24.3697 1.6209 39.9836 1.72912 52.7916C1.7415 54.2582 1.75359 55.6887 1.74781 57.0671C1.70884 66.3659 7.60345 69.4043 15.0061 73.22C17.0037 74.2496 19.1079 75.3342 21.2554 76.618C21.5703 76.8064 21.6729 77.2145 21.4845 77.5295C21.2961 77.8445 20.888 77.9471 20.5731 77.7587C18.4751 76.5044 16.3829 75.426 14.3968 74.4023C6.59204 70.3794 0.377289 67.1759 0.419672 57.0619C0.425405 55.6939 0.413355 54.266 0.400988 52.8021C0.289322 39.5847 0.153189 23.4718 12.7003 18.4826C15.9375 17.1953 19.6624 15.6778 22.7508 14.2733C25.7328 12.9173 28.0448 11.7122 28.5485 11.0295C29.2723 10.0484 29.6785 8.76039 29.8487 7.33996C30.0531 5.63452 29.9173 3.75197 29.5788 1.97139Z" fill="#1B4965"/>
</svg>
