<svg xmlns="http://www.w3.org/2000/svg" xmlns:xlink="http://www.w3.org/1999/xlink" version="1.1" x="0px" y="0px" viewBox="0 0 136 170" style="enable-background:new 0 0 136 136;" xml:space="preserve"><g><path d="M122.09166,48.20216L122.09166,48.20216c0.40987-0.38974,3.53607-1.66879,2.96094-4.73193   c-0.49561-2.63173-4.1655-4.93274-8.96338-1.10352c-7.18179,5.72993-6.134,12.90477-1.93811,14.26416   c-2.04358,9.29736-5.45734,15.44043-9.90857,17.77686c-3.2132,1.68555-5.99457,0.92383-6.7406,0.66406   c1.84609-10.0291,2.85056-18.15341-0.98645-26.99561c-1.97322-4.79281-4.1139-8.20105,0.55615-11.30029   c8.43861-5.60082,8.22208-11.58321,3.95264-15.65967c-11.06369-10.56627-15.62695,8.58165-26.46631,3.18896   c-3.86552-1.92322-6.75198-6.76732-5.32373-12.68213c0.71916-2.97881,0.78961-5.56687-2.22217-7.47607   c-4.12618-2.61479-10.24474-0.66574-12.80615,7.07715c-0.19601,0.29633-0.84158,4.57681-3.82764,4.53418   c-3.3851-0.04395-6.81333-6.89004-9.65625-8.35498c-5.83775-3.01013-13.08003,2.35216-13.15186,8.625   c-0.06847,6.08337,6.15951,9.77638,5.42529,14.90039c-0.62717,4.37055-6.0385,9.15877-7.5083,14.25342   c-1.93304,6.70264-2.03259,14.10791-0.49683,21.34277c-3.21295,2.56348-7.08856,8.97266-2.31592,24.52686   c-5.40316-0.66432-11.04166,3.97677-11.69849,7.13379c-0.80589,3.88233,3.49181,6.59053,6.37549,3.87012   c1.12552-1.06139,0.78864-1.64837,3.9624-1.17139c6.90259,1.03251,8.3551-7.01859,3.67419-9.16064   c-4.61066-14.09326-2.11981-20.2959,0.52386-22.9834c4.37784,16.8093,15.66175,27.16148,29.96253,36.2959   c-0.46271,6.03418-1.92438,11.83203-4.34845,17.25537c-2.11407,0.05582-4.70646,0.4845-6.14807,2.04004   c-2.65937,2.87069-0.27092,7.34138,3.89014,6.00635c2.43119-0.77936,3.1345,2.61246,6.45605,2.61133   c2.28411,0,4.58055-2.15181,4.59717-4.35107c0.02671-3.53671-3.29864-5.70108-6.66766-6.1875   c2.19714-5.10938,3.58014-10.52783,4.1203-16.15186c4.99894,3.23223,14.86854,9.76971,20.56689,9.11182   c8.87896-1.03401,11.43374-12.13713,14.39581-20.70703c4.64227,5.6709,9.92957,14.4082,11.60388,25.99268   c-5.04691-1.51524-11.57332-0.06267-11.97137,5c-0.1709,2.18994,1.87451,4.3042,3.74854,4.66162   c3.12967,0.59587,4.87647-2.4709,6.50146-2.20313c0.80402,0.23987,3.16922,1.43089,4.94922-0.49316   c1.3291-1.43701,1.0708-3.646,0.05371-4.95068c-0.32709-0.41992-0.71759-0.75391-1.13074-1.03369   c-1.60449-13.34473-7.85168-23.16406-13.00336-29.18994c1.64948-5.05566,2.99347-10.20166,4.03149-15.3999   c0.6087,0.18408,1.63629,0.41797,2.92975,0.41797c9.53801,0,14.08577-11.29288,16.10095-20.61719   C122.82043,56.43523,120.50684,49.70577,122.09166,48.20216z M25.45054,94.85695c0.61426,1.03516,0.01563,2.94727-0.87939,3.61816   c-2.30082,1.72319-5.37242-1.51405-8.23877,1.74561c-1.71114,1.95348-3.82637,0.43401-3.39844-1.62793   C13.71463,94.83815,22.79879,90.38843,25.45054,94.85695z M104.04185,126.64796c-0.40559-0.12592-0.87499-0.40457-1.49902-0.50684   c-2.79638-0.45891-4.243,2.6308-6.45117,2.21191c-0.97998-0.18652-2.21143-1.47754-2.12842-2.54102   c0.383-4.89959,9.76463-4.37229,11.68115-1.91162C106.68243,125.23115,105.78322,127.18928,104.04185,126.64796z    M57.65855,127.1548c0.23145,0.36279,0.26807,0.73389,0.2627,1.42822c-0.0083,1.06738-1.3457,2.24951-2.33838,2.35254   c-2.52479,0.26685-3.52429-3.71834-7.32471-2.50244c-1.04477,0.33569-1.70477,0.07722-2.06982-0.39258   C43.52372,124.61784,54.38961,122.01368,57.65855,127.1548z M88.78453,98.83595   c-7.30732,21.93416-14.10792,15.64387-33.34326,3.81689C29.4459,86.67367,22.19282,63.8202,27.40904,45.73634   c1.37801-4.7747,6.84246-9.47769,7.56592-14.52393c0.87928-6.13592-5.46564-9.80787-5.40479-15.16162   c0.05552-4.85821,5.78885-9.16434,10.23584-6.86963c0.79346,0.40918,1.92188,1.74951,3.01318,3.0459   c3.66643,4.3543,7.51554,7.99587,11.50488,3.49902c0.95689-1.07886,1.3378-2.47194,1.78027-3.87402   c1.6022-4.83955,5.81578-8.56648,9.83691-6.01563c2.1568,1.36626,1.87443,3.14081,1.34912,5.31738   c-1.66833,6.89018,1.8034,12.66622,6.37695,14.94189c12.33612,6.1399,16.39914-12.67776,25.97607-3.53271   c4.60566,4.39713,1.58014,9.05667-3.67773,12.54688c-5.54454,3.67959-3.82422,8.02995-1.37695,13.55176c0,0,0,0,0,0.00049   c0.75494,2.69567,3.54453,6.6004,2.19043,17.91064C94.88831,82.35378,90.89869,92.49039,88.78453,98.83595z M118.244,54.06398   c-0.91699,0.82764-3.10938,1.15088-4.09375,0.34814c-4.15027-3.38012,2.54224-12.09863,6.69238-12.09863   c2.16718,0,3.34968,2.24483,0.89063,3.71436c-2.01173,1.19608-2.29815,2.53959-2.40479,4.91602   C119.20842,52.01445,119.29147,53.11788,118.244,54.06398z"/><path d="M67.55992,41.47462c-7.83562,10.13823-3.36321,25.6792,7.83789,25.6792c12.69669,0,20.00462-19.71881,10.21387-28.62012   C80.26025,33.66808,72.37962,35.2382,67.55992,41.47462z M72.0316,63.11378c-2.85054,1.30507-4.50261-3.78153-1.56885-5.15137   C73.32767,56.62597,74.96536,61.76952,72.0316,63.11378z M74.19963,63.95412c4.11514-4.29316-1.43062-10.96834-5.6889-7.02734   c0.14966-0.52686,0.33624-1.05078,0.60583-1.5542v-0.00049c1.50068-2.80687,4.76962-4.53144,7.36914-2.88135   C80.34815,54.94534,78.94241,62.3098,74.19963,63.95412z M76.43816,65.08058c5.0843-3.21293,5.87514-11.25655,1.11981-14.27783   c-4.47431-2.84062-10.42336,0.96499-11.2724,6.87402c-3.92336-12.82387,9.43439-25.4316,17.98041-17.66357   C92.15094,47.18142,86.98191,63.91732,76.43816,65.08058z"/><path d="M66.83141,38.1255c1.05662-4.19051,8.05574-6.6493,11.1792-5.25244c1.21217,0.53926,2.02106-1.28756,0.81641-1.82568   c-4.08698-1.82726-12.52532,1.00092-13.93506,6.58887C64.56857,38.92155,66.50881,39.40622,66.83141,38.1255z"/><path d="M57.78404,64.24367C66.9896,54.67226,59.7486,35.485,47.2567,36.13039   c-9.98594,0.47614-15.22744,14.04149-8.86621,24.52197l0,0C43.36158,68.84233,52.42749,69.83153,57.78404,64.24367z    M57.20598,58.12209c-1.09556-1.55073-2.84725-2.21907-4.4566-1.8125c-3.46796,0.87827-4.30542,5.92081-1.30975,8.40869   c-3.78731-0.61248-6.17002-4.69499-4.92609-8.1333c1.63782-4.53124,8.10199-4.45877,10.30664,0.4209v0.00049   C56.98552,57.37257,57.11345,57.74562,57.20598,58.12209z M53.02525,63.42238c-2.83827-1.693-1.02372-6.58978,1.73535-4.9165   C57.51275,60.17137,55.81482,65.08731,53.02525,63.42238z M40.10045,59.61476c-5.46219-8.99868-1.24313-21.08321,7.25537-21.48682   c8.23183-0.42825,14.73357,10.18418,11.83331,19.70947c-1.73789-7.85738-12.05648-8.84604-14.55646-1.93262   c-1.24997,3.45573,0.16463,7.62538,3.60535,9.7085C45.05363,65.08205,42.12523,62.9507,40.10045,59.61476z"/><path d="M47.00523,33.25099c3.04443-0.72754,7.48096,0.54297,8.97217,3.53223c0.59287,1.18575,2.37962,0.28843,1.79004-0.89307   c-2.81803-5.64913-12.56782-5.89112-11.96729-3.37939C45.92906,33.04836,46.47008,33.37941,47.00523,33.25099z"/><path d="M81.32018,75.61086c-0.38135,0.3999-0.36621,1.03271,0.0332,1.41406c0.50153,0.47852,0.94904,1.05664,1.34326,1.69873   c-3.04645,1.9082-6.19031,3.39502-9.35303,4.40283c-0.00006,0-0.00018,0-0.00024,0   c-3.81351,1.20934-7.28413,1.63604-10.53485,1.52686c-0.77844-0.25803-9.72435,0.30227-17.69977-7.32373   c2.14335-3.52801,4.46761-3.16356,3.67578-4.6377c-1.15281-2.14217-6.37981,2.90679-7.33838,8.95508   c-0.20695,1.30602,1.76825,1.62047,1.97559,0.31299c0.15265-0.96338,0.42047-1.89111,0.7674-2.76709   c3.29065,3.01025,7.24921,5.20117,11.5423,6.38867l-0.29065,4.80371c-0.03174,0.52539,0.14355,1.04004,0.48096,1.4126   c0.80243,0.88457,1.58919,0.43602,5.42725,0.71875c0.021,0.00098,0.0415,0.00146,0.0625,0.00146   c0.92676,0,1.71875-0.79102,1.77881-1.79297l0.24554-4.05273c0.81129,0.00797,1.59409,0.00107,3.10663-0.13721l0.20789,3.98486   c0.0376,0.73193,0.34912,1.38623,0.854,1.79541c1.06268,0.86164,1.8938,0.18192,5.46387-0.23145   c1.10742-0.17529,1.92188-1.33643,1.85498-2.64355l-0.23932-4.67041c3.01428-1.02686,6.00177-2.44971,8.90143-4.24902   c0.53369,1.38574,0.84033,2.94482,0.86182,4.52783c0.01297,0.96944,1.11395,1.03007,1.01367,0.98633   c0.55225-0.00732,0.99365-0.46143,0.98633-1.01367c-0.05078-3.74316-1.43896-7.27344-3.71289-9.44385   C82.33482,75.19679,81.7025,75.21144,81.32018,75.61086z M61.19908,90.50929l-3.75342-0.14307l0.26074-4.31543   c1.2085,0.22656,2.45752,0.38623,3.73438,0.47754L61.19908,90.50929z M72.73668,90.11183l-3.90088,0.61719   c-0.15607-0.23295-0.05933-0.47991-0.30273-4.42285c1.39014-0.21387,2.78955-0.5166,4.18066-0.90527   C72.77342,88.51723,73.14719,89.82809,72.73668,90.11183z"/></g><text x="0" y="151" fill="#000000" font-size="5px" font-weight="bold" font-family="'Helvetica Neue', Helvetica, Arial-Unicode, Arial, Sans-serif">Created by Vectors Point</text><text x="0" y="156" fill="#000000" font-size="5px" font-weight="bold" font-family="'Helvetica Neue', Helvetica, Arial-Unicode, Arial, Sans-serif">from the Noun Project</text></svg>