<svg width="86" height="80" viewBox="0 0 86 80" fill="none" xmlns="http://www.w3.org/2000/svg">
<path d="M40.1485 29.9671C42.7311 29.9671 43.0717 27.0995 43.3203 25.0058C43.4326 24.0605 43.6184 22.4954 44.0127 22.4124C44.4073 22.4954 44.593 24.0604 44.7053 25.0058C44.9539 27.0995 45.2946 29.9671 47.8772 29.9671C51.2894 29.9671 52.6807 23.6582 52.7955 20.3149C55.4332 17.711 56.3441 9.34133 50.4977 7.83487C49.3689 7.55318 48.1883 7.55227 47.0591 7.83221C45.9299 8.11214 44.8864 8.66441 44.02 9.44073C43.1527 8.66469 42.1087 8.11257 40.9792 7.8325C39.8496 7.55243 38.6686 7.55291 37.5393 7.83391C31.6878 9.32534 32.592 17.7106 35.2301 20.3149C35.3438 23.6265 36.7193 29.9671 40.1485 29.9671ZM37.9344 9.38428C40.1246 8.82528 42.625 9.86495 43.3157 11.1314C43.3843 11.2572 43.4855 11.3624 43.6087 11.4357C43.7318 11.5091 43.8725 11.548 44.0159 11.5484H44.018C44.1611 11.5483 44.3015 11.51 44.4246 11.4373C44.5478 11.3646 44.6492 11.2603 44.7184 11.1351C45.434 9.83859 47.8864 8.81359 50.0983 9.38429C54.6921 10.5677 53.4247 17.8121 51.5069 19.3224C51.4118 19.3973 51.335 19.4929 51.2822 19.6018C51.2294 19.7107 51.202 19.8302 51.202 19.9513C51.2031 22.2804 50.0346 28.3671 47.8772 28.3671C46.8835 28.3671 46.5856 27.272 46.2942 24.8171C46.0863 23.0676 45.797 20.8089 44.0127 20.8089C42.2283 20.8089 41.9374 23.0832 41.7315 24.8171C41.4401 27.272 41.1422 28.3671 40.1485 28.3671C37.9752 28.3671 36.8226 22.2737 36.8237 19.9513C36.8237 19.8302 36.7963 19.7107 36.7435 19.6018C36.6907 19.4929 36.6139 19.3973 36.5188 19.3224C34.5738 17.7906 33.3592 10.5504 37.9344 9.38428Z" fill="#1B4965"/>
<path d="M85.6178 15.9597L84.615 11.7374C84.5908 11.6352 84.5467 11.5387 84.4852 11.4535C84.4237 11.3683 84.346 11.2961 84.2566 11.241C84.1671 11.1858 84.0677 11.1489 83.964 11.1323C83.8602 11.1156 83.7542 11.1196 83.652 11.1439L61.839 16.324C61.4941 13.8403 60.6339 11.456 59.3136 9.32416C57.9933 7.19229 56.2421 5.35985 54.1722 3.94434C52.1024 2.52883 49.7596 1.56149 47.294 1.10434C44.8284 0.647186 42.2945 0.710321 39.8548 1.28969C37.4151 1.86906 35.1233 2.95188 33.1265 4.46871C31.1297 5.98555 29.4719 7.90292 28.2595 10.0979C27.047 12.2929 26.3066 14.717 26.0857 17.2148C25.8649 19.7127 26.1685 22.2291 26.977 24.6028L0.97577 30.7775C0.769353 30.8265 0.59086 30.9555 0.47955 31.1361C0.36824 31.3167 0.333229 31.5342 0.38222 31.7406L1.38499 35.9628C1.40925 36.0651 1.4534 36.1615 1.51493 36.2466C1.57646 36.3318 1.65416 36.404 1.7436 36.4591C1.83303 36.5142 1.93244 36.5512 2.03616 36.5679C2.13988 36.5846 2.24587 36.5807 2.34808 36.5564L10.4256 34.6381V73.3271H5.78222C5.00437 73.3286 4.25887 73.6386 3.70935 74.1891C3.15984 74.7396 2.85121 75.4857 2.85121 76.2635C2.85121 77.0414 3.15984 77.7875 3.70935 78.338C4.25887 78.8885 5.00437 79.1985 5.78222 79.2H82.2434C83.0212 79.1985 83.7667 78.8885 84.3162 78.338C84.8657 77.7875 85.1744 77.0414 85.1744 76.2635C85.1744 75.4857 84.8657 74.7396 84.3162 74.1891C83.7667 73.6386 83.0212 73.3286 82.2434 73.3271H77.5998V18.6859L85.0242 16.9228C85.2306 16.8738 85.4091 16.7448 85.5204 16.5642C85.6317 16.3836 85.6667 16.1661 85.6178 15.9597ZM44.0127 2.39994C47.2557 2.39991 50.426 3.36155 53.1225 5.16326C55.819 6.96497 57.9207 9.52583 59.1617 12.522C60.4028 15.5182 60.7276 18.8151 60.0949 21.9958C59.4622 25.1765 57.9006 28.0982 55.6074 30.3914C53.3143 32.6846 50.3926 34.2463 47.2119 34.879C44.0311 35.5117 40.7342 35.187 37.738 33.946C34.7419 32.7049 32.181 30.6032 30.3792 27.9068C28.5775 25.2103 27.6158 22.0401 27.6158 18.797C27.6207 14.4498 29.3498 10.282 32.4237 7.20802C35.4977 4.13404 39.6655 2.4049 44.0127 2.39994ZM2.12382 32.1494L27.5686 26.1067C27.9551 26.9723 28.4094 27.806 28.9273 28.5999L2.75683 34.8148L2.12382 32.1494ZM83.5797 76.2636C83.5793 76.6179 83.4384 76.9576 83.1879 77.2081C82.9373 77.4587 82.5977 77.5996 82.2434 77.5999H5.78222C5.42841 77.599 5.08942 77.4578 4.83959 77.2072C4.58975 76.9567 4.44945 76.6173 4.44945 76.2635C4.44945 75.9097 4.58975 75.5703 4.83959 75.3198C5.08942 75.0693 5.42841 74.9281 5.78222 74.9271H82.2434C82.5977 74.9275 82.9374 75.0685 83.1879 75.319C83.4384 75.5696 83.5793 75.9093 83.5797 76.2636ZM44.5578 42.0376V55.7902H35.2139V42.0376H44.5578ZM63.7556 68.389H49.1449V42.0376H63.7556V68.389ZM47.5449 68.389H46.1578V42.0376H47.5449V68.389ZM33.6139 55.7902H24.2699V42.0376H33.6139V55.7902ZM24.27 57.3902H44.5578V68.389H24.2699L24.27 57.3902ZM66.139 69.989C66.4165 69.9893 66.6826 70.0997 66.8788 70.296C67.075 70.4923 67.1854 70.7584 67.1856 71.0359V73.3271H20.8398V71.0359C20.8401 70.7583 20.9505 70.4922 21.1468 70.296C21.343 70.0997 21.6092 69.9893 21.8867 69.989H66.139ZM75.9999 73.3271H68.7855V71.0359C68.7848 70.3342 68.5057 69.6614 68.0095 69.1652C67.5133 68.669 66.8406 68.3898 66.1389 68.389H65.3557V42.0376C65.3552 41.6134 65.1864 41.2068 64.8865 40.9068C64.5865 40.6069 64.1798 40.4381 63.7556 40.4376H24.2699C23.8457 40.4381 23.439 40.6069 23.1391 40.9068C22.8391 41.2068 22.6704 41.6135 22.6699 42.0376V68.389H21.8867C21.185 68.3898 20.5122 68.6689 20.0159 69.1651C19.5197 69.6613 19.2406 70.3341 19.2398 71.0359V73.3271H12.0256V34.2581L29.9415 30.0036C32.0686 32.6775 34.9132 34.6905 38.1425 35.8068C41.3718 36.9232 44.8523 37.0968 48.1766 36.3073C51.501 35.5179 54.5318 33.798 56.9144 31.3489C59.297 28.8999 60.9329 25.8229 61.6306 22.4781L75.9998 19.0659L75.9999 73.3271ZM61.9012 20.7695C61.9732 20.1145 62.0095 19.456 62.0098 18.797C62.0098 18.5073 62.0027 18.2192 61.9886 17.9329L83.2431 12.8855L83.8762 15.5509L61.9012 20.7695Z" fill="#1B4965"/>
<path d="M50.9992 57.3902H53.9715C54.1837 57.3902 54.3871 57.3059 54.5372 57.1558C54.6872 57.0058 54.7715 56.8023 54.7715 56.5902C54.7715 56.378 54.6872 56.1745 54.5372 56.0245C54.3871 55.8744 54.1837 55.7902 53.9715 55.7902H50.9992C50.8942 55.7902 50.7901 55.8109 50.6931 55.8511C50.596 55.8913 50.5078 55.9502 50.4335 56.0245C50.3592 56.0988 50.3003 56.187 50.2601 56.284C50.2199 56.3811 50.1992 56.4851 50.1992 56.5902C50.1992 56.6952 50.2199 56.7992 50.2601 56.8963C50.3003 56.9934 50.3592 57.0816 50.4335 57.1558C50.5078 57.2301 50.596 57.2891 50.6931 57.3293C50.7901 57.3695 50.8942 57.3902 50.9992 57.3902Z" fill="#1B4965"/>
</svg>
