<svg width="50" height="62" viewBox="0 0 50 62" fill="none" xmlns="http://www.w3.org/2000/svg">
<path d="M23.1999 60H21.6999L19.9999 50.8C19.8999 50.3 19.4999 50 18.9999 50H12.9999C11.4999 50 10.1999 48.9 9.99995 47.3L8.99995 40.8C8.89995 40.3 8.49995 40 7.99995 40H2.89995C2.09995 40 1.89995 39.1 2.09995 38.6L6.89995 28.8C7.09995 28.5 7.09995 28.1 7.09995 27.7L6.69995 25C6.19995 19 8.19995 13 12.1999 8.6C16.1999 4.4 21.4999 2 27.2999 2C38.6999 2 47.9999 11.6 47.9999 23.3C47.9999 23.9 48.3999 24.3 48.9999 24.3C49.5999 24.3 49.9999 23.9 49.9999 23.3C49.9999 10.5 39.7999 0 27.2999 0C20.9999 0 15.0999 2.6 10.7999 7.3C6.39995 12.1 4.19995 18.6 4.69995 25.2L5.09995 27.9L0.399949 37.7C-0.200052 38.7 -5.17964e-05 40 0.699948 40.9C1.29995 41.6 2.19995 42 3.09995 42H7.19995L8.09995 47.6C8.49995 50.1 10.5999 52 13.0999 52H18.2999L19.9999 61.2C20.0999 61.7 20.4999 62 20.9999 62H23.2999C23.8999 62 24.2999 61.6 24.2999 61C24.2999 60.4 23.7999 60 23.1999 60Z" fill="#1B4965"/>
<path d="M48.2 31.9999C47.6 31.8999 47.2 32.2999 47.1 32.8999L44.1 59.9999H26.9C26.3 59.9999 25.9 60.3999 25.9 60.9999C25.9 61.5999 26.3 61.9999 26.9 61.9999H45C45.5 61.9999 45.9 61.5999 46 61.0999L49.1 33.0999C49.1 32.5999 48.8 32.0999 48.2 31.9999Z" fill="#1B4965"/>
<path d="M48.9 25.9001C48.3 25.8001 47.9 26.2001 47.8 26.8001L47.6 28.9001C47.5 29.4001 47.9 29.9001 48.5 30.0001C48.5 30.0001 49.5 30.0001 49.6 29.1001L49.8 27.0001C49.8 26.4001 49.4 25.9001 48.9 25.9001Z" fill="#1B4965"/>
<path d="M39.9 12.2C40.1 12.5 40.6 12.9001 41.3 12.5001C41.8 12.2001 41.9 11.6001 41.6 11.1001C41.1 10.3001 40.4 9.60005 39.5 8.80005C39.1 8.40005 38.5 8.50005 38.1 8.90005C37.7 9.30005 37.8 10.0001 38.2 10.3001C38.9 11.0001 39.5 11.6 39.9 12.2Z" fill="#1B4965"/>
<path d="M21.7 6.9001C23.3 6.3001 25.1 6.0001 27.1 6.0001C29.6 6.0001 32.1 6.6001 34.5 7.8001C34.6 7.9001 35.5 8.1001 35.8 7.4001C36 6.9001 35.8001 6.3001 35.4001 6.1001C32.7001 4.8001 30 4.1001 27.2 4.1001C24.9 4.1001 22.9 4.5001 21 5.2001C20.5 5.4001 20.2 6.0001 20.4 6.5001C20.6 6.9001 21.1 7.1001 21.7 6.9001Z" fill="#1B4965"/>
<path d="M38 31V29.2C38 28.2 38.6 27.3 39.5 26.9C41.1 26.1 42 24.5 42 22.8V21C42 18.2 39.8 16 37 16C34.2 16 32 18.2 32 21V23C32 23.6 32.4 24 33 24C33.6 24 34 23.6 34 23V21C34 19.3 35.3 18 37 18C38.7 18 40 19.3 40 21V22.8C40 23.8 39.4 24.7 38.6 25.1C37 25.9 36 27.5 36 29.2V31C36 31.6 35.6 32 35 32C34.4 32 34 31.6 34 31V29C34 28.4 33.6 28 33 28C32.4 28 32 28.4 32 29V31C32 32.7 33.3 34 35 34C36.7 34 38 32.7 38 31Z" fill="#1B4965"/>
<path d="M28 57.2C28.1 57.7 28.7 58.1 29.2 58C29.7 57.9 30.1 57.4 30 56.8L29 51C28.3 46.9 24.9 44 20.7 44H13C12.4 44 12 44.4 12 45C12 45.6 12.4 46 13 46H20.8C23.9 46 26.6 48.2 27.1 51.3L28 57.2Z" fill="#1B4965"/>
<path d="M9.2 29.9999C8.7 29.8999 8.1 30.1999 8 30.6999C7.9 31.1999 8.19999 31.7999 8.69999 31.8999L16.7 33.8999C16.8 33.8999 17.3 33.9999 17.6 33.5999L22.8 28.3999C24.4 26.7999 26.6 25.8999 28.9 25.8999C29.5 25.8999 29.9 25.4999 29.9 24.8999C29.9 24.2999 29.5 23.8999 28.9 23.8999C26.1 23.8999 23.3 24.9999 21.4 26.9999L16.6 31.7999L9.2 29.9999Z" fill="#1B4965"/>
<path d="M27 38.5001C30.4 40.7001 32.6 44.2001 33.1 48.3001L34.1 57.2001C34.2 57.7001 34.7 58.1001 35.2 58.1001C35.7 58.0001 36.1 57.5001 36.1 57.0001L35 48.0001C34.5 43.4001 31.9 39.3001 28 36.8001C27.5 36.5001 26.9 36.6001 26.6 37.1001C26.4 37.5001 26.5 38.2001 27 38.5001Z" fill="#1B4965"/>
<path d="M29 30C29.6 30 30 29.6 30 29C30 28.4 29.6 28 29 28C27.5 28 26 28.6 24.9 29.7L20.3 34.3C20.1 34.5 19.6 35.5 20.7 36L24 37C24.1 37 25 37.2 25.3 36.4C25.5 35.9 25.2 35.3 24.7 35.1L23 34.5L26.4001 31.1C27.0001 30.4 28 30 29 30Z" fill="#1B4965"/>
</svg>
