<?xml version="1.0" standalone="no"?>
<!DOCTYPE svg PUBLIC "-//W3C//DTD SVG 20010904//EN"
 "http://www.w3.org/TR/2001/REC-SVG-20010904/DTD/svg10.dtd">
<svg version="1.0" xmlns="http://www.w3.org/2000/svg"
 width="512.000000pt" height="512.000000pt" viewBox="0 0 512.000000 512.000000"
 preserveAspectRatio="xMidYMid meet">

<g transform="translate(0.000000,512.000000) scale(0.100000,-0.100000)"
fill="#000000" stroke="none">
<path d="M2440 5114 c-188 -35 -299 -76 -427 -159 -162 -106 -314 -290 -379
-460 l-29 -75 -583 0 c-633 0 -625 1 -650 -55 -17 -36 -17 -454 0 -490 17 -38
58 -55 128 -55 l60 0 0 -210 0 -210 29 -32 c24 -27 36 -33 71 -33 35 0 47 6
71 33 l29 32 0 210 0 210 423 0 422 0 29 -75 c82 -215 288 -432 504 -531 317
-145 677 -119 968 71 176 115 327 304 395 498 l13 37 423 0 423 0 0 -1410 0
-1410 -350 0 -350 0 -2 893 -3 892 -24 38 c-13 21 -42 50 -64 65 l-41 27 -965
0 -966 0 -38 -24 c-21 -13 -50 -42 -65 -64 l-27 -41 -3 -893 -2 -893 -350 0
-350 0 0 775 c0 833 1 818 -49 845 -25 13 -77 13 -102 0 -50 -27 -49 -12 -49
-845 l0 -775 -60 0 c-70 0 -111 -17 -128 -55 -8 -17 -12 -83 -12 -183 l0 -158
-35 -13 c-60 -21 -65 -42 -65 -290 0 -238 4 -262 51 -287 42 -21 4456 -21
4498 0 47 25 51 49 51 287 0 248 -5 269 -65 290 l-35 13 0 158 c0 100 -4 166
-12 183 -17 38 -58 55 -128 55 l-60 0 0 1410 0 1410 60 0 c70 0 111 17 128 55
17 36 17 454 0 490 -25 56 -17 55 -650 55 l-584 0 -13 38 c-109 307 -382 552
-706 633 -77 20 -297 34 -355 23z m310 -217 c152 -42 271 -109 374 -213 262
-262 310 -666 116 -980 -271 -441 -878 -513 -1244 -148 -294 293 -314 763 -46
1079 120 141 273 231 460 271 80 17 262 12 340 -9z m-1190 -777 l0 -100 -500
0 -500 0 0 100 0 100 500 0 500 0 0 -100z m3000 0 l0 -100 -500 0 -500 0 0
100 0 100 500 0 500 0 0 -100z m-2100 -2260 l0 -860 -400 0 -400 0 0 860 0
860 400 0 400 0 0 -860z m1000 0 l0 -860 -400 0 -400 0 0 860 0 860 400 0 400
0 0 -860z m1100 -1160 l0 -100 -2000 0 -2000 0 0 100 0 100 2000 0 2000 0 0
-100z m100 -400 l0 -100 -2100 0 -2100 0 0 100 0 100 2100 0 2100 0 0 -100z"/>
<path d="M2392 4709 c-45 -13 -108 -79 -121 -126 -6 -21 -11 -66 -11 -99 l0
-61 -84 -5 c-98 -5 -147 -30 -187 -95 -23 -36 -24 -47 -24 -204 0 -163 0 -166
27 -206 42 -64 87 -86 184 -91 l82 -4 4 -82 c5 -97 27 -142 91 -184 40 -27 43
-27 207 -27 164 0 167 0 207 27 64 42 86 87 91 184 l4 82 83 4 c97 5 146 30
186 95 23 36 24 47 24 203 0 156 -1 167 -24 203 -40 65 -89 90 -186 95 l-83 4
-4 82 c-5 97 -27 142 -91 184 -39 26 -46 27 -191 29 -83 1 -166 -2 -184 -8z
m268 -312 c0 -122 0 -124 28 -150 27 -26 31 -27 150 -27 l122 0 0 -100 0 -100
-122 0 c-119 0 -123 -1 -150 -27 -28 -26 -28 -28 -28 -150 l0 -123 -100 0
-100 0 0 123 c0 122 0 124 -28 150 -27 26 -31 27 -150 27 l-122 0 0 100 0 100
122 0 c119 0 123 1 150 27 28 26 28 28 28 150 l0 123 100 0 100 0 0 -123z"/>
<path d="M2111 2046 c-42 -23 -50 -52 -51 -183 0 -135 9 -167 51 -189 52 -27
115 -8 137 41 7 15 12 74 12 145 0 71 -5 130 -12 145 -22 48 -88 68 -137 41z"/>
<path d="M2911 2046 c-42 -23 -50 -52 -51 -183 0 -135 9 -167 51 -189 52 -27
115 -8 137 41 7 15 12 74 12 145 0 71 -5 130 -12 145 -22 48 -88 68 -137 41z"/>
<path d="M607 3069 c-22 -13 -47 -61 -47 -93 0 -14 13 -40 29 -58 24 -27 36
-33 71 -33 35 0 47 6 71 33 16 18 29 44 29 58 0 33 -25 81 -49 94 -25 13 -81
12 -104 -1z"/>
</g>
</svg>
