<svg width="88" height="80" viewBox="0 0 88 80" fill="none" xmlns="http://www.w3.org/2000/svg">
<g clip-path="url(#clip0_13_8)">
<path d="M24.1268 69.1304C23.7561 69.1304 23.3934 68.9545 23.1734 68.6299C22.8266 68.1178 22.9713 67.426 23.4965 67.0879C30.4493 62.6086 35.9651 56.4599 36.6608 52.4251C36.6628 51.7391 36.6608 46.9816 36.3794 41.0125C36.3497 40.398 36.8372 39.8782 37.4675 39.8492C38.0958 39.826 38.6309 40.2956 38.6606 40.9101C38.9679 47.3951 38.9461 52.4715 38.9441 52.5217C38.9441 52.5758 38.9401 52.6318 38.9302 52.6859C38.07 58.1391 30.9785 64.9372 24.7551 68.9468C24.5608 69.0705 24.3428 69.1304 24.1268 69.1304ZM3.34765 62.199C2.81251 62.199 2.33486 61.8299 2.22783 61.2985C-0.231802 48.9642 4.94116 30.7516 14.0048 19.8396C19.041 13.7758 24.8066 10.5159 30.6733 10.4174C30.8001 10.4154 30.9289 10.4348 31.0498 10.4734C33.1091 11.1343 36.0464 13.7816 37.7569 29.0821C37.8242 29.6927 37.3724 30.2434 36.746 30.3091C36.1178 30.3768 35.5569 29.9343 35.4875 29.3236C33.9832 15.8744 31.6008 13.1594 30.4929 12.6493C24.0633 12.8579 18.9498 17.4241 15.7786 21.2405C7.08963 31.7024 2.1208 49.1111 4.46747 60.8734C4.58837 61.4763 4.18405 62.0618 3.56567 62.1777C3.49432 62.1932 3.419 62.199 3.34765 62.199Z" fill="#1B4965"/>
<path d="M76.8752 73.5381C72.7626 73.5381 67.8651 70.854 65.0745 69.0782C58.7579 65.0569 51.5614 58.2125 50.6893 52.684C50.6814 52.6299 50.6754 52.5757 50.6754 52.5197C50.6754 52.4753 50.6556 48.0134 50.9053 42.1236C50.9311 41.5091 51.4623 41.026 52.0925 41.0569C52.7228 41.082 53.2124 41.5999 53.1866 42.2144C52.9587 47.6038 52.9567 51.7815 52.9587 52.4212C53.6563 56.4521 59.3763 62.7922 66.3232 67.2115C71.1889 70.3071 75.6028 71.7815 78.1655 71.169C82.4486 69.283 84.2581 64.8714 85.0232 61.4917C86.0736 56.8482 85.9468 51.0859 84.6525 44.8269C81.4794 29.4724 71.4704 13.0453 59.1246 12.6434C57.977 13.1709 55.5035 16.0328 54.0131 30.4115C53.9497 31.0241 53.3927 31.4685 52.7624 31.4067C52.1342 31.3448 51.6783 30.798 51.7417 30.1873C53.4264 13.9323 56.443 11.1477 58.5677 10.4675C58.6886 10.4289 58.8134 10.4096 58.9442 10.4115C65.3599 10.5197 71.5734 14.3477 76.9129 21.482C81.517 27.6347 85.154 35.9825 86.8922 44.3864C89.2289 55.6926 88.3846 69.2115 79.0039 73.2405C78.9504 73.2637 78.8949 73.283 78.8394 73.2965C78.2131 73.4666 77.5551 73.5381 76.8752 73.5381Z" fill="#1B4965"/>
<path d="M54.3896 47.2443C53.9952 47.2443 53.6107 47.0453 53.4006 46.6878L44.4242 31.5284L36.0166 45.7255C35.7015 46.2569 35.0039 46.4405 34.4568 46.1332C33.9118 45.826 33.7235 45.1458 34.0386 44.6125L43.4352 28.7458C43.6394 28.4018 44.0159 28.1893 44.4242 28.1893C44.8325 28.1893 45.2091 28.4018 45.4132 28.7458L55.3786 45.5748C55.6938 46.1062 55.5075 46.7883 54.9604 47.0956C54.7801 47.196 54.5839 47.2443 54.3896 47.2443ZM60.284 43.9265C59.8896 43.9265 59.5051 43.7274 59.295 43.37L49.3296 26.541C46.7233 22.139 47.1792 13.7255 47.5458 6.96418C47.6608 4.83664 47.7698 2.82891 47.7698 1.19798C47.7698 0.58349 48.2812 0.0849398 48.9114 0.0849398C49.5417 0.0849398 50.053 0.58349 50.053 1.19798C50.053 2.88881 49.9421 4.92553 49.8251 7.08205C49.4743 13.5497 49.0363 21.598 51.3057 25.4279L61.2711 42.2569C61.5862 42.7883 61.3999 43.4704 60.8529 43.7777C60.6745 43.8782 60.4783 43.9265 60.284 43.9265ZM29.1332 42.9622C28.939 42.9622 28.7428 42.9139 28.5644 42.8134C28.0193 42.5062 27.8311 41.826 28.1462 41.2927L38.1116 24.4637C40.3294 20.7168 39.9152 13.0357 39.5822 6.86176C39.4712 4.79413 39.3642 2.8405 39.3642 1.19605C39.3642 0.581558 39.8756 0.0830078 40.5058 0.0830078C41.1361 0.0830078 41.6475 0.581558 41.6475 1.19605C41.6475 2.7806 41.7505 4.70717 41.8615 6.74389C42.2282 13.5478 42.6464 21.2579 40.0896 25.5767L30.1242 42.4057C29.9102 42.7632 29.5276 42.9622 29.1332 42.9622Z" fill="#1B4965"/>
<path d="M19.2649 34.3594C19.2014 34.3594 19.136 34.3536 19.0706 34.3439C18.4483 34.2395 18.0321 33.6637 18.1391 33.0589C19.142 27.3661 16.8924 24.9507 16.7973 24.8502C16.3553 24.4115 16.3652 23.712 16.8151 23.2811C17.265 22.8502 17.9924 22.8598 18.4344 23.2985C18.5652 23.428 21.6056 26.5333 20.3906 33.4357C20.2935 33.9767 19.8099 34.3594 19.2649 34.3594Z" fill="#1B4965"/>
<path d="M19.4116 29.5846C18.9497 29.5846 18.5137 29.3083 18.3413 28.86C18.1213 28.2841 18.4206 27.6426 19.0112 27.4281C22.0377 26.3267 23.5162 23.4204 23.5321 23.3914C23.8076 22.8387 24.4914 22.6088 25.0582 22.8774C25.6251 23.146 25.8609 23.8126 25.5854 24.3653C25.5101 24.518 23.6827 28.1044 19.8119 29.5151C19.6791 29.5614 19.5443 29.5846 19.4116 29.5846Z" fill="#1B4965"/>
<path d="M9.13508 48.2725C8.50878 48.2725 7.99941 47.7798 7.99346 47.1692C7.98751 46.5585 8.48896 46.058 9.11526 46.0484C9.28175 46.0426 12.6095 45.8667 16.0145 41.1692C16.3792 40.6667 17.0908 40.5489 17.6061 40.9025C18.1214 41.258 18.2423 41.9518 17.8796 42.4542C13.7333 48.172 9.3313 48.2725 9.14499 48.2745C9.14103 48.2725 9.13905 48.2725 9.13508 48.2725Z" fill="#1B4965"/>
<path d="M13.8976 53.198C13.7747 53.198 13.6479 53.1787 13.525 53.1362C12.9304 52.9352 12.6133 52.3033 12.8174 51.7236C12.8353 51.6714 13.8738 48.5796 12.5499 45.7487C12.2882 45.1903 12.5419 44.5294 13.1147 44.2743C13.6895 44.0193 14.3654 44.2666 14.627 44.8251C16.3414 48.4908 15.0313 52.2879 14.9758 52.4463C14.8133 52.9082 14.3713 53.198 13.8976 53.198Z" fill="#1B4965"/>
<path d="M31.4224 54.9682C31.4184 54.9682 31.4164 54.9682 31.4125 54.9682C31.2262 54.9662 26.8242 54.8677 22.6779 49.1479C22.3132 48.6455 22.4361 47.9518 22.9514 47.5962C23.4667 47.2406 24.1782 47.3604 24.5429 47.8629C27.9658 52.5836 31.3966 52.7421 31.4303 52.7421C32.0606 52.7479 32.568 53.2484 32.562 53.8648C32.56 54.4754 32.0487 54.9682 31.4224 54.9682Z" fill="#1B4965"/>
<path d="M26.6596 59.8919C26.1859 59.8919 25.7459 59.604 25.5814 59.1441C25.5239 58.9837 24.2158 55.1885 25.9302 51.5228C26.1919 50.9644 26.8697 50.717 27.4425 50.9721C28.0153 51.2272 28.269 51.888 28.0074 52.4465C26.6794 55.2871 27.7299 58.3904 27.7398 58.4214C27.942 59.003 27.6229 59.6349 27.0283 59.8339C26.9074 59.8726 26.7825 59.8919 26.6596 59.8919Z" fill="#1B4965"/>
<path d="M70.3544 34.3593C69.8094 34.3593 69.3258 33.9767 69.2306 33.4337C68.0157 26.5313 71.056 23.426 71.1868 23.2965C71.6288 22.8579 72.3522 22.8521 72.8022 23.2849C73.2481 23.7139 73.258 24.4115 72.824 24.8501C72.711 24.968 70.4852 27.3873 71.4841 33.0569C71.5912 33.6637 71.173 34.2376 70.5526 34.3419C70.4832 34.3535 70.4178 34.3593 70.3544 34.3593Z" fill="#1B4965"/>
<path d="M70.2057 29.5845C70.0729 29.5845 69.9381 29.5614 69.8073 29.513C65.9365 28.1024 64.1091 24.5159 64.0338 24.3633C63.7583 23.8106 63.9942 23.144 64.561 22.8754C65.1279 22.6068 65.8097 22.8348 66.0852 23.3855C66.105 23.4261 67.6133 26.3362 70.6061 27.4261C71.1967 27.6406 71.496 28.2821 71.276 28.858C71.1055 29.3082 70.6695 29.5845 70.2057 29.5845Z" fill="#1B4965"/>
<path d="M80.4824 48.2725C80.4785 48.2725 80.4765 48.2725 80.4725 48.2725C80.2862 48.2706 75.8842 48.172 71.7379 42.4522C71.3732 41.9498 71.4961 41.2561 72.0114 40.9005C72.5268 40.5469 73.2383 40.6648 73.603 41.1672C77.0258 45.888 80.4567 46.0464 80.4904 46.0464C81.1206 46.0522 81.628 46.5546 81.6221 47.1691C81.6181 47.7798 81.1087 48.2725 80.4824 48.2725Z" fill="#1B4965"/>
<path d="M75.7197 53.198C75.246 53.198 74.804 52.9082 74.6415 52.4483C74.584 52.2879 73.2759 48.4927 74.9903 44.827C75.2519 44.2686 75.9298 44.0212 76.5026 44.2763C77.0753 44.5314 77.329 45.1922 77.0674 45.7507C75.7276 48.6164 76.788 51.6908 76.7998 51.7217C77.006 52.3033 76.6889 52.9372 76.0943 53.1362C75.9694 53.1787 75.8445 53.198 75.7197 53.198Z" fill="#1B4965"/>
<path d="M58.1949 54.9681C57.5686 54.9681 57.0592 54.4753 57.0533 53.8647C57.0473 53.2541 57.5488 52.7536 58.1751 52.7439C58.3416 52.7381 61.6693 52.5623 65.0744 47.8647C65.439 47.3623 66.1506 47.2444 66.6659 47.598C67.1812 47.9536 67.3021 48.6473 66.9394 49.1497C62.7931 54.8676 58.3911 54.9681 58.2048 54.97C58.2008 54.9681 58.1989 54.9681 58.1949 54.9681Z" fill="#1B4965"/>
<path d="M62.9577 59.8938C62.8348 59.8938 62.7079 59.8745 62.5851 59.832C61.9905 59.631 61.6733 58.9991 61.8775 58.4194C61.8914 58.3808 62.9378 55.2812 61.6099 52.4445C61.3483 51.8861 61.602 51.2252 62.1748 50.9701C62.7476 50.7151 63.4254 50.9624 63.687 51.5209C65.4014 55.1866 64.0933 58.9817 64.0359 59.1421C63.8733 59.604 63.4314 59.8938 62.9577 59.8938Z" fill="#1B4965"/>
<path d="M12.6885 76.0155C11.0811 76.0155 9.77501 74.7401 9.77501 73.1749V70.3846H6.91303C5.30564 70.3846 3.99951 69.1092 3.99951 67.544C3.99951 65.9788 5.30762 64.7034 6.91303 64.7034H9.77501V61.9131C9.77501 60.3459 11.0831 59.0725 12.6885 59.0725C14.2959 59.0725 15.602 60.3479 15.602 61.9131V64.7034H18.464C20.0714 64.7034 21.3775 65.9788 21.3775 67.544C21.3775 69.1092 20.0694 70.3846 18.464 70.3846H15.602V73.1749C15.602 74.7401 14.2959 76.0155 12.6885 76.0155ZM6.91303 66.9276C6.57212 66.9276 6.28276 67.2097 6.28276 67.5421C6.28276 67.8744 6.57212 68.1566 6.91303 68.1566H10.9166C11.5469 68.1566 12.0583 68.6551 12.0583 69.2696V73.173C12.0583 73.5054 12.3476 73.7875 12.6885 73.7875C13.0314 73.7875 13.3188 73.5054 13.3188 73.173V69.2696C13.3188 68.6551 13.8301 68.1566 14.4604 68.1566H18.464C18.8069 68.1566 19.0943 67.8744 19.0943 67.5421C19.0943 67.2097 18.8049 66.9276 18.464 66.9276H14.4604C13.8301 66.9276 13.3188 66.429 13.3188 65.8145V61.9112C13.3188 61.5788 13.0294 61.2967 12.6885 61.2967C12.3476 61.2967 12.0583 61.5788 12.0583 61.9112V65.8145C12.0583 66.429 11.5469 66.9276 10.9166 66.9276H6.91303Z" fill="#1B4965"/>
<path d="M12.6887 79.8164C5.74777 79.8164 0.0991211 74.3111 0.0991211 67.542C0.0991211 60.7729 5.74777 55.2676 12.6887 55.2676C19.6296 55.2676 25.2782 60.7729 25.2782 67.542C25.2782 74.3111 19.6296 79.8164 12.6887 79.8164ZM12.6887 57.4937C7.00633 57.4937 2.38236 62.0019 2.38236 67.542C2.38236 73.0821 7.00633 77.5903 12.6887 77.5903C18.371 77.5903 22.995 73.0821 22.995 67.542C22.995 62.0019 18.371 57.4937 12.6887 57.4937Z" fill="#1B4965"/>
</g>
<defs>
<clipPath id="clip0_13_8">
<rect width="88" height="80" fill="white"/>
</clipPath>
</defs>
</svg>
