<svg width="84" height="90" viewBox="0 0 84 90" fill="none" xmlns="http://www.w3.org/2000/svg">
<path d="M74.1131 59.8439L55.8751 70.8479C55.6954 69.8908 55.2579 69.0081 54.6329 68.2815C58.1524 66.2229 62.1563 63.3792 66.8439 59.6018C83.0899 45.2968 87.8279 31.0428 80.9259 17.2388C77.3439 10.0982 68.8359 6.03578 62.4459 5.27778C55.6256 4.4809 48.7659 6.50438 43.4769 10.8481C38.1917 6.52388 31.3599 4.49648 24.5629 5.26998C24.4653 5.14889 24.3832 5.01998 24.2817 4.90279C21.6567 1.78949 17.8169 0.000488281 13.7427 0.000488281C10.5239 0.000488281 7.39106 1.14109 4.92236 3.21529C2.11376 5.56689 0.395062 8.87149 0.0707622 12.5239C-0.249548 16.1801 0.871542 19.7427 3.22696 22.5549C3.40274 22.7658 3.59805 22.9572 3.78555 23.1564C0.695753 35.0784 6.17615 47.3404 20.1256 59.6334C22.3053 61.3912 24.4108 62.9928 26.4147 64.4264C25.7311 64.6882 25.0709 65.0007 24.4616 65.3835L15.9108 70.7897H7.10995C6.50839 70.7897 6.01615 71.278 6.01615 71.8795C6.01615 72.481 6.50443 72.9693 7.10995 72.9693H16.2272C16.4342 72.9693 16.6334 72.9107 16.8092 72.8013L25.6217 67.231C30.0084 64.4927 37.6567 65.6333 39.7387 68.5044C39.9418 68.7857 40.2699 68.9536 40.6215 68.9536H52.0395C53.1918 69.5552 53.8793 70.8013 53.77 72.1177C53.6645 73.4497 52.7348 74.5865 51.4419 74.981H37.4219C36.8203 74.981 36.3321 75.4693 36.3321 76.0748C36.3321 76.6764 36.8204 77.1686 37.4219 77.1686H51.5979C51.6916 77.1686 51.7854 77.1569 51.8752 77.1296C53.719 76.6413 55.1486 75.2507 55.7072 73.5007L75.3202 61.6687C75.3788 61.6335 75.4335 61.5944 75.4843 61.5476C76.8398 60.3406 78.9179 60.4031 80.2031 61.6726C81.4726 62.9538 81.539 64.9929 80.3672 66.3445L57.1371 85.7395C55.4691 87.1379 53.5941 87.8176 51.3988 87.8176H1.69985C1.09829 87.8176 0.610052 88.3059 0.610052 88.9074C0.610052 89.5089 1.09833 89.9972 1.69985 89.9972H51.3988C54.1293 89.9972 56.4613 89.1495 58.5355 87.4113L81.8286 67.9663C81.8676 67.935 81.9028 67.8999 81.9379 67.8608C83.9301 65.6538 83.8481 62.2631 81.7426 60.1303C79.6567 58.0639 76.3246 57.9467 74.1137 59.8451L74.1131 59.8439ZM2.23411 12.7189C2.50364 9.64858 3.95291 6.86728 6.31221 4.89078C8.39031 3.14858 11.027 2.18768 13.7341 2.18768C17.1638 2.18768 20.3982 3.69158 22.6013 6.31268C22.7888 6.53924 22.9607 6.77362 23.1326 7.0119C23.1755 7.08221 23.2263 7.14862 23.281 7.20721C24.7966 9.41421 25.4958 12.051 25.2576 14.7502C24.9842 17.8244 23.5271 20.6096 21.1599 22.5979C19.0779 24.3323 16.4451 25.2932 13.738 25.2932C10.3083 25.2932 7.0818 23.7854 4.8864 21.1565C2.9098 18.7893 1.96451 15.7931 2.23411 12.7189ZM29.1871 63.6989C26.7769 62.0505 24.1949 60.1169 21.5269 57.9645C8.72191 46.6795 3.38991 35.5345 5.63191 24.8085C7.96001 26.5194 10.7803 27.4726 13.7413 27.4726C16.9561 27.4726 20.089 26.3359 22.5616 24.2695C25.378 21.9062 27.1046 18.5937 27.4327 14.9414C27.6671 12.2734 27.128 9.66018 25.9054 7.34368C32.0304 6.94524 38.1124 9.01168 42.7494 13.1015C43.1635 13.4648 43.7846 13.4648 44.1947 13.1015C49.1088 8.74598 55.6637 6.68738 62.1827 7.44918C68.1944 8.16012 75.8897 12.0859 78.9677 18.2192C85.37 31.0242 80.8036 44.3992 65.4287 57.9382C60.5654 61.8601 56.292 64.8523 52.7097 66.8601C52.5769 66.8015 52.4324 66.7702 52.2839 66.7702H41.1319C38.9092 64.321 33.8116 62.9694 29.1869 63.6999L29.1871 63.6989ZM60.0391 45.6519C60.7579 45.7495 61.4805 45.8003 62.2032 45.8003C67.6563 45.8003 72.6642 43.0464 75.5902 38.4292C78.6879 33.5581 78.8988 27.4132 76.1371 22.3902C73.8285 18.191 69.8246 15.6832 65.4261 15.6832C62.3089 15.6832 57.4495 16.9371 51.9811 22.902C48.0514 25.8708 47.2311 29.6481 49.5631 33.894C49.274 33.9682 49.0084 34.0073 48.7779 34.0073C48.4029 34.0073 47.6256 34.0073 47.2623 32.2573C47.317 29.2417 46.8053 27.2261 45.6998 26.0932C44.4342 24.8002 42.4537 24.7494 40.1412 25.9291C38.7076 26.5463 38.356 28.5541 38.6842 34.1947C38.7389 35.1166 38.6139 35.3588 38.5592 35.4213C38.5006 35.4838 38.3483 35.5698 37.942 35.6401C38.0905 33.1284 37.5631 31.1674 36.3756 29.8003C34.6686 27.8355 31.7584 27.2378 27.6959 28.0503C27.0788 25.9917 25.9186 25.5191 24.985 25.5191C21.9108 25.5191 18.5514 31.2535 18.2506 33.4136C18.071 34.6831 18.3092 35.7066 18.9538 36.4488C19.9381 37.5777 21.5554 37.7222 22.8522 37.7222C23.4967 37.7222 24.153 37.6831 24.7897 37.6441C25.3639 37.6089 25.9108 37.5737 26.3913 37.5737C27.153 37.5737 27.4499 37.6675 27.5515 37.7144C27.5515 37.898 27.4499 38.6089 26.1648 40.4722C23.7937 43.9253 23.0125 47.4331 23.9031 50.6282C24.8913 54.1673 27.8836 57.222 32.3211 59.222C34.1922 60.0657 36.243 60.4915 38.407 60.4915C47.5125 60.4876 56.7111 52.9646 60.0391 45.6519ZM38.4101 58.3039C36.5585 58.3039 34.8085 57.9406 33.2226 57.2297C29.3867 55.4992 26.8242 52.9445 26.0117 50.0383C25.2891 47.4524 25.9492 44.6516 27.9687 41.7102C29.6289 39.304 30.082 37.8 29.4921 36.679C28.8202 35.3978 27.121 35.3978 26.3944 35.3978C25.8475 35.3978 25.2694 35.4329 24.66 35.472C24.0585 35.5111 23.4373 35.5501 22.8592 35.5501C21.6678 35.5501 20.9061 35.3704 20.6053 35.0267C20.3944 34.7806 20.328 34.3431 20.4178 33.7259C20.6795 31.8626 23.6405 27.7103 24.992 27.7103C25.2381 27.7103 25.5975 28.2806 25.8006 29.5345C25.8475 29.8353 26.0233 30.1009 26.2772 30.2728C26.5311 30.4407 26.8436 30.4954 27.1404 30.4212C30.8318 29.4993 33.4607 29.7806 34.7302 31.2415C35.6912 32.347 35.9997 34.179 35.6482 36.6868C35.6013 37.0032 35.7029 37.3274 35.9138 37.5657C36.1287 37.804 36.4373 37.929 36.7576 37.929C38.2771 37.8899 39.4373 37.7024 40.1678 36.9056C40.8865 36.1244 40.9217 35.0345 40.8631 34.0736C40.5936 29.4798 40.8826 28.2259 41.0975 27.8978C42.5506 27.1634 43.5545 27.0306 44.1366 27.6283C44.5194 28.0189 45.1483 29.1517 45.0741 32.3392C45.0702 32.4173 45.078 32.4954 45.0936 32.5696C45.6952 35.7258 47.6561 36.1985 48.7733 36.1985C49.621 36.1985 50.5545 35.9524 51.6405 35.4485C51.9296 35.3157 52.1444 35.0579 52.2303 34.7532C52.3163 34.4446 52.2616 34.1165 52.0858 33.8509C49.5506 30.0736 49.9569 27.1361 53.367 24.597C53.4217 24.554 53.4725 24.5071 53.5194 24.4564C57.4491 20.1478 61.5663 17.8744 65.4254 17.8744C69.0699 17.8744 72.277 19.9056 74.2223 23.4486C76.5973 27.7728 76.4137 33.0697 73.7457 37.2686C71.2184 41.2491 66.9019 43.628 62.1987 43.628C61.3198 43.628 60.4409 43.542 59.5776 43.3741C59.0581 43.2725 58.5464 43.5538 58.351 44.042C55.6322 50.9248 46.9641 58.3039 38.4101 58.3039ZM6.71511 16.9209H10.551V20.7568C10.551 21.3583 11.0393 21.8466 11.6408 21.8466H15.8322C16.4338 21.8466 16.926 21.3583 16.926 20.7568V16.9209H20.7619C21.3635 16.9209 21.8517 16.4326 21.8517 15.8271V11.6357C21.8517 11.0341 21.3634 10.5459 20.7619 10.5459H16.926V6.70998C16.926 6.10842 16.4377 5.61618 15.8322 5.61618H11.6408C11.0393 5.61618 10.551 6.10446 10.551 6.70998V10.5459H6.71511C6.11355 10.5459 5.62531 11.0342 5.62531 11.6357V15.8271C5.62531 16.4286 6.11359 16.9209 6.71511 16.9209ZM7.80891 12.7256H11.6448C12.2464 12.7256 12.7346 12.2373 12.7346 11.6358V7.79988H14.7463V11.6358C14.7463 12.2412 15.2346 12.7256 15.8361 12.7256H19.672V14.7334H15.8361C15.2346 14.7334 14.7463 15.2217 14.7463 15.8232V19.6591H12.7346V15.8232C12.7346 15.2216 12.2463 14.7334 11.6448 14.7334H7.80891V12.7256Z" fill="#1B4965"/>
</svg>
