<svg width="90" height="90" viewBox="0 0 90 90" fill="none" xmlns="http://www.w3.org/2000/svg">
<path d="M36.617 73.1331L32.9295 76.8245C32.7107 75.6839 32.2381 74.7659 31.5154 74.0901C30.3318 72.9885 28.5427 72.5784 26.1912 72.8713C22.8396 70.383 20.9685 69.7658 19.781 70.7307C18.4998 71.7698 18.8474 74.1096 20.9958 78.758C20.281 80.8791 21.2536 83.2658 23.8825 85.8752L21.6286 88.1291C21.2028 88.5548 21.2028 89.2463 21.6286 89.6721C21.8434 89.8869 22.1208 89.9924 22.402 89.9924C22.6794 89.9924 22.9606 89.8869 23.1716 89.6721L38.1676 74.6761C38.5933 74.2503 38.5933 73.5589 38.1676 73.1331C37.7379 72.7073 37.0467 72.7073 36.617 73.1331ZM23.164 79.1878C23.3046 78.8948 23.3046 78.551 23.164 78.2581C21.332 74.3675 21.1757 72.9534 21.2031 72.5003C21.5937 72.5745 22.6992 72.9573 25.2343 74.8792C25.4687 75.0589 25.7695 75.1331 26.0624 75.0862C27.9491 74.7893 29.2812 74.9885 30.0233 75.68C30.6678 76.2815 30.953 77.3558 30.8788 78.8675L25.4218 84.3284C23.3085 82.2425 22.539 80.5159 23.164 79.1878ZM90 19.5318C90.0039 17.942 89.3906 16.4498 88.2695 15.3326C87.2695 14.3326 85.9922 13.7701 84.6757 13.6412C86.5624 11.3287 86.4374 7.88336 84.2929 5.71536C83.1757 4.59816 81.6913 3.98486 80.1093 3.98486H80.0898C78.7031 3.98877 77.3945 4.46533 76.3554 5.33256C76.2304 3.96926 75.6405 2.69976 74.6562 1.71926C72.3671 -0.569836 68.625 -0.573736 66.3046 1.71926L49.9456 18.0983C49.8674 16.5085 49.2229 14.9421 48.0081 13.7311C45.4143 11.1647 41.2151 11.1686 38.6487 13.735L27.2857 25.098C25.3365 27.0472 24.2154 29.3128 23.8638 32.0121L21.6216 48.4811L0.320556 69.7621C-0.105224 70.1878 -0.105224 70.8793 0.320556 71.3051C0.535396 71.516 0.812746 71.6254 1.094 71.6254C1.37525 71.6254 1.65259 71.5199 1.86353 71.3051L23.4255 49.7621C23.5935 49.5941 23.7029 49.3753 23.7341 49.1371L26.0271 32.2971C26.3201 30.0588 27.2107 28.258 28.8279 26.6409L40.1949 15.2739C41.9176 13.5512 44.734 13.5512 46.4722 15.2739C48.2105 17.0083 48.2105 19.8364 46.4722 21.5747L39.5347 28.5122C39.1089 28.938 39.1089 29.6294 39.5347 30.0552C39.9605 30.481 40.6519 30.481 41.0777 30.0552L48.0152 23.1177L67.8472 3.26567C69.3081 1.82037 71.6714 1.81647 73.1167 3.26176C73.8238 3.96879 74.2105 4.91016 74.2065 5.91406C74.2026 6.89844 73.8237 7.82026 73.1284 8.51566L73.1206 8.52348C73.1167 8.52348 73.1167 8.52738 73.1167 8.52738L57.9017 23.7574C57.4759 24.1832 57.4759 24.8746 57.9017 25.3004C58.3275 25.7262 59.0189 25.7262 59.4447 25.3004L74.6517 10.0704C74.6595 10.0665 74.6634 10.0587 74.6673 10.0548L77.4915 7.25396C78.179 6.55865 79.1048 6.17196 80.097 6.16806C81.1126 6.16415 82.0423 6.55478 82.7454 7.25396C84.1829 8.70706 84.1829 11.0743 82.7493 12.5235L80.2141 15.0587C80.1126 15.1446 80.0188 15.2344 79.9212 15.3282C79.8743 15.3751 79.8313 15.4219 79.7962 15.4727L64.7102 30.5667C64.2844 30.9925 64.2844 31.6839 64.7102 32.1097C65.1359 32.5355 65.8274 32.5355 66.2532 32.1097L81.6982 16.6647C83.167 15.442 85.3584 15.5124 86.7255 16.8757C87.4325 17.5827 87.8193 18.5241 87.8153 19.528C87.8114 20.5201 87.4246 21.446 86.7255 22.1413L69.8505 39.0363C69.4247 39.462 69.4247 40.1535 69.8505 40.5793C70.2762 41.005 70.9677 41.005 71.3935 40.5793L80.9052 31.0559C80.9403 31.0246 80.9794 30.9934 81.0145 30.9582C81.5263 30.4387 82.2176 30.1535 82.9637 30.1496C83.7177 30.177 84.4285 30.4387 84.9481 30.9582C86.0223 32.048 86.0223 33.8254 84.956 34.9074L72.511 47.3524C71.675 45.1805 70.4837 43.1063 68.9094 41.2235C64.7649 36.286 58.6904 33.454 52.2414 33.454C47.1594 33.454 42.2144 35.2509 38.3114 38.5165C29.1278 46.2235 27.9134 59.9505 35.6044 69.1185C39.7489 74.056 45.8234 76.888 52.2724 76.888C56.3505 76.888 60.3349 75.7122 63.7684 73.5677L66.1473 76.3958C65.7957 76.7942 65.7605 77.388 66.1121 77.806L75.1668 88.611C75.9051 89.4977 76.9988 90.0055 78.1668 90.0055C79.0848 90.0055 79.9793 89.6813 80.6824 89.0953C82.3347 87.7125 82.5535 85.2398 81.1668 83.5836L72.1121 72.7786C71.9246 72.556 71.659 72.4193 71.3699 72.3919C71.1355 72.3724 70.9129 72.4466 70.7136 72.5677L68.3581 69.7513C73.3464 64.2396 75.0651 56.6423 73.2643 49.6923L86.5063 36.4543C88.4125 34.5168 88.4125 31.3684 86.4985 29.427C85.7837 28.7122 84.8852 28.2395 83.9047 28.0598L88.2641 23.6926C89.3774 22.5871 89.9946 21.1106 89.9985 19.5324L90 19.5318ZM66.203 71.8248C66.41 71.6529 66.6053 71.4732 66.8046 71.2935L69.0194 73.938L67.8006 74.9614L65.5662 72.3091C65.7771 72.1451 65.996 71.9966 66.203 71.8248ZM79.488 84.9768C80.1013 85.7111 80.0075 86.8049 79.2771 87.4143C78.5739 88.0041 77.4216 87.9025 76.8396 87.2072L68.4841 77.2384L71.1325 75.0118L79.488 84.9768ZM64.804 70.1488C61.2923 73.0863 56.8431 74.7035 52.273 74.7035C46.4683 74.7035 41.003 72.1566 37.277 67.7152C30.359 59.4691 31.4528 47.1212 39.7145 40.1922C43.2262 37.2547 47.6754 35.6375 52.2415 35.6375C58.0462 35.6375 63.5115 38.1844 67.2375 42.6258C74.1437 50.8797 73.0501 63.2278 64.804 70.1488ZM52.242 38.6258C48.3631 38.6258 44.5897 40.0008 41.617 42.493C38.2264 45.3211 36.1482 49.3094 35.7615 53.72C35.3748 58.1223 36.7224 62.4192 39.5584 65.814C42.7146 69.5679 47.3475 71.7202 52.2574 71.7202C56.1285 71.7202 59.898 70.353 62.8704 67.8686C66.2688 65.0209 68.347 61.0209 68.7337 56.6066C69.1165 52.2043 67.765 47.923 64.929 44.5516C61.7884 40.786 57.1644 38.6258 52.242 38.6258ZM66.562 56.4188C66.2261 60.2547 64.4214 63.7235 61.4722 66.1961C58.8902 68.3523 55.6167 69.5399 52.2574 69.5399C47.9879 69.5399 43.9683 67.6688 41.2304 64.411C38.7695 61.4657 37.6015 57.7352 37.9374 53.911C38.2733 50.0829 40.078 46.6219 43.0194 44.1688C45.6014 42.0047 48.8788 40.8133 52.246 40.8133C56.5194 40.8133 60.5312 42.6883 63.266 45.9578C65.7269 48.8836 66.8979 52.5984 66.562 56.4188ZM60.8354 51.5086H55.8979V46.5945C55.8979 45.9929 55.4096 45.5047 54.8081 45.5047H49.687C49.0854 45.5047 48.5932 45.9929 48.5932 46.5945V51.5086H43.6791C43.0775 51.5086 42.5853 51.9968 42.5853 52.5984V57.7429C42.5853 58.3444 43.0736 58.8367 43.6791 58.8367H48.5932V63.7508C48.5932 64.3523 49.0815 64.8446 49.687 64.8446H54.8081C55.4097 64.8446 55.8979 64.3563 55.8979 63.7508V58.8367H60.8354C61.437 58.8367 61.9252 58.3484 61.9252 57.7429V52.5984C61.9252 51.9968 61.4369 51.5086 60.8354 51.5086ZM59.7416 56.6492H54.8041C54.2025 56.6492 53.7103 57.1374 53.7103 57.739V62.6531H50.7728V57.739C50.7728 57.1374 50.2845 56.6492 49.683 56.6492H44.7689V53.6883H49.6869C50.2885 53.6883 50.7767 53.2 50.7767 52.5945V47.6804H53.7142V52.5945C53.7142 53.196 54.2025 53.6883 54.808 53.6883H59.7455L59.7416 56.6492ZM32.0116 40.9302C32.3632 40.9302 32.7069 40.8677 33.0233 40.7427C34.6795 40.1138 34.6835 38.8794 34.6835 38.1372C34.6835 37.7153 34.6835 37.3169 34.8866 36.856C34.9061 36.813 34.9218 36.77 34.9335 36.7271C35.1366 36.0435 35.0155 35.3443 34.578 34.7037C33.6366 33.3248 31.4413 32.5435 30.2733 32.4498C27.6795 32.2076 26.8202 33.3404 26.5585 33.9967C25.9999 35.4186 26.8984 37.2897 29.1601 39.4069C29.9882 40.3912 30.9998 40.9302 32.0116 40.9302ZM28.5936 34.8013C28.6209 34.7583 28.8748 34.602 29.5545 34.602C29.7147 34.602 29.8866 34.6099 30.0858 34.6294C30.9217 34.6958 32.3553 35.3247 32.7772 35.938C32.7967 35.9692 32.8397 36.0356 32.8475 36.0825C32.5037 36.9185 32.5037 37.6177 32.5037 38.1372V38.5747C32.5037 38.5747 32.4491 38.6294 32.242 38.7075C31.8397 38.8638 31.3006 38.5786 30.8006 37.9731C30.7694 37.938 30.7381 37.8989 30.6991 37.8677C28.66 35.9654 28.535 34.9263 28.5936 34.8013ZM10.3906 70.7073C10.3906 71.3088 9.90232 71.7971 9.3008 71.7971C8.69924 71.7971 8.1992 71.3088 8.1992 70.7073C8.1992 70.1057 8.67576 69.6135 9.2812 69.6135H9.30073C9.90229 69.6135 10.3906 70.1057 10.3906 70.7073ZM11.4726 67.3557C11.4726 67.9572 10.9843 68.4495 10.3788 68.4495C9.77724 68.4495 9.2655 67.9612 9.2655 67.3557C9.2655 66.7541 9.73425 66.2659 10.3358 66.2659H10.3788C10.9842 66.2659 11.4726 66.7541 11.4726 67.3557ZM13.7617 69.7776C13.7617 70.3791 13.2734 70.8674 12.6719 70.8674C12.0704 70.8674 11.5586 70.3791 11.5586 69.7776C11.5586 69.176 12.0273 68.6878 12.6289 68.6878H12.6719C13.2734 68.6878 13.7617 69.176 13.7617 69.7776ZM49.9647 27.1756C49.6874 27.1756 49.4061 27.0701 49.1952 26.8553C48.7694 26.4295 48.7577 25.7264 49.1834 25.3006C49.6092 24.8748 50.2889 24.8631 50.7146 25.2888L50.7381 25.3084C51.1639 25.7341 51.1639 26.4256 50.7381 26.8514C50.5232 27.0701 50.2459 27.1756 49.9647 27.1756ZM52.3124 25.3514C52.3124 24.7498 52.8007 24.2498 53.4062 24.2498C54.0078 24.2498 54.496 24.7263 54.496 25.3318V25.3513C54.496 25.9529 54.0077 26.4411 53.4062 26.4411C52.8007 26.4411 52.3124 25.9529 52.3124 25.3514ZM51.9296 27.5506C52.4686 27.281 53.1132 27.4803 53.3827 28.0154L53.4022 28.0584C53.6717 28.5974 53.453 29.2498 52.9139 29.5232C52.7577 29.6013 52.5897 29.6404 52.4257 29.6404C52.0272 29.6404 51.6405 29.4177 51.4491 29.0349C51.1835 28.4958 51.3905 27.8202 51.9296 27.5506ZM28.6996 67.4056L28.723 67.429C29.1488 67.8548 29.1488 68.5462 28.723 68.972C28.5082 69.1868 28.2308 69.2923 27.9535 69.2923C27.6722 69.2923 27.3949 69.1868 27.184 68.972C26.7582 68.5462 26.7465 67.8431 27.1722 67.4173C27.5941 66.9915 28.2739 66.9798 28.6996 67.4056ZM31.4926 70.847C30.891 70.847 30.4028 70.3587 30.4028 69.7532C30.4028 69.1516 30.8911 68.6399 31.4926 68.6399C32.0941 68.6399 32.5824 69.1047 32.5824 69.7102V69.7531C32.5824 70.3547 32.0941 70.847 31.4926 70.847Z" fill="#1B4965"/>
</svg>
