<svg width="110" height="135" viewBox="0 0 110 135" fill="none" xmlns="http://www.w3.org/2000/svg">
<path d="M95.309 44.52H91.8832C91.5394 42.9809 90.5082 41.8833 89.2387 41.8833C87.6918 41.8833 86.4809 43.52 86.4809 45.6099C86.4809 47.6998 87.6918 49.3365 89.2387 49.3365C90.5082 49.3365 91.5434 48.2388 91.8832 46.6998H94.2191V64.2548C94.2191 67.5634 92.7308 70.6454 90.2074 72.7118C89.7386 72.286 89.1293 72.036 88.4847 72.036C88.0784 72.036 87.68 72.1375 87.3363 72.3211C84.8441 73.6023 81.6644 73.6023 79.1722 72.3211C78.8128 72.1336 78.4104 72.036 78.012 72.036C77.3674 72.036 76.7581 72.2899 76.2854 72.7235C73.7424 70.661 72.2424 67.5751 72.2424 64.2547V46.7037H74.5979C74.9377 48.2389 75.9612 49.3404 77.2229 49.3404C78.7815 49.3404 80.0002 47.7037 80.0002 45.6138C80.0002 43.524 78.7814 41.8872 77.2229 41.8872C75.9612 41.8872 74.9377 42.9849 74.5979 44.5239H71.1526C70.551 44.5239 70.0588 45.0122 70.0588 45.6137V64.2617C70.0588 68.3476 71.9416 72.1523 75.1408 74.6207C74.9806 75.1012 74.9689 75.6363 75.1329 76.2262C75.3673 76.8981 75.8204 77.4059 76.3868 77.6715C77.3165 78.1637 78.3399 78.5582 79.4337 78.8473V78.9137C79.4337 80.5699 80.6095 81.9489 82.1564 82.2535V88.1988C82.1564 92.816 78.3986 96.5699 73.7853 96.5699C71.2462 96.5699 68.9729 95.4293 67.4338 93.6402C69.4611 86.7222 70.5821 75.6752 67.797 64.6632C67.0509 61.6866 66.0118 59.0109 64.7072 56.6905C64.59 48.6983 60.4767 43.7725 52.7582 42.3545C53.0004 42.0772 53.2582 41.8076 53.5356 41.5576C55.8325 39.4756 59.0044 38.6045 62.0278 39.2256C62.4575 39.3155 62.895 39.1358 63.1411 38.7803C64.2309 37.21 64.6645 35.2998 64.3599 33.4053C64.2935 32.9795 63.981 32.6358 63.563 32.5225C60.6333 31.7451 57.7232 31.5459 54.8442 31.9248C52.5434 26.2998 47.2348 23.1162 41.5472 23.8545C41.6253 23.292 41.723 22.7725 41.848 22.3037C43.5199 21.628 45.4144 21.206 47.5121 21.0732C48.1136 21.0381 48.5707 20.5185 48.5316 19.917C48.4925 19.3155 47.9691 18.8545 47.3754 18.8975C45.9809 18.9835 44.6645 19.1944 43.4223 19.503C43.4848 19.4561 43.5434 19.3975 43.6098 19.3585C44.1215 19.0421 44.2817 18.3702 43.9652 17.8585C43.6488 17.3468 42.977 17.1866 42.4652 17.503C40.68 18.6046 39.6488 20.8585 39.3011 24.3428C39.0316 24.4287 38.766 24.5225 38.5004 24.628C37.9965 20.9639 38.0472 18.2178 38.6644 16.46C38.8636 15.8897 38.5629 15.2686 37.9965 15.0694C37.43 14.8741 36.8051 15.1709 36.6059 15.7412C35.8246 17.9756 35.7777 21.2334 36.4496 25.6592C36.2309 25.796 36.016 25.9366 35.8012 26.085C35.1957 22.3623 34.1215 20.2842 32.477 19.6045C31.9184 19.378 31.2817 19.6397 31.0512 20.1983C30.8207 20.7569 31.0863 21.3936 31.6449 21.6241C31.7855 21.6827 31.9887 21.8194 32.2191 22.1085C31.7504 22.0147 31.266 21.9444 30.7503 21.921C30.1449 21.8975 29.637 22.3585 29.6097 22.9601C29.5824 23.5616 30.0472 24.0733 30.6488 24.1006C31.684 24.1475 32.5707 24.378 33.309 24.7608C33.5004 25.546 33.6801 26.5264 33.8286 27.7452C32.4536 29.1436 31.2583 30.9405 30.3638 33.1514C29.813 30.878 28.9497 29.0889 26.9732 28.0186C26.0435 27.3819 24.6568 27.3194 23.2466 27.8467C21.4771 28.5108 20.1958 29.9092 19.8247 31.585C19.7817 31.7842 19.7934 31.9874 19.8598 32.1827C20.7934 34.8585 20.9223 36.1749 20.8559 38.1202V38.2022C21.02 42.1241 20.4575 45.8506 19.1997 49.2882C18.1802 50.3312 17.2739 51.4757 16.5083 52.7452C13.5513 57.6475 12.8208 63.7922 14.4536 70.0422C14.7974 71.3586 15.1958 72.5969 15.6372 73.7649C15.6606 73.8704 15.6958 73.972 15.7466 74.0657C17.231 77.8782 19.2271 80.9134 21.563 83.4212C22.1411 85.9759 22.0395 87.9056 21.2466 89.1478C21.0278 89.4915 21.0161 89.9291 21.2192 90.2806C22.5981 92.6673 24.3481 93.3001 25.8247 93.3001C26.1802 93.3001 26.524 93.261 26.8364 93.2024C27.0005 93.1712 27.1528 93.1048 27.2857 93.0032C28.5279 92.0774 29.3755 91.0188 29.8287 89.843C32.9498 91.6594 36.2623 93.1399 39.5396 94.6086C44.981 97.0461 50.6056 99.5617 55.1016 103.558C56.3672 104.675 57.582 104.991 58.5546 104.991C58.9101 104.991 59.2382 104.948 59.5195 104.886C61.9179 104.355 64.1367 101.909 65.9375 97.8157C66.1797 97.2649 65.9297 96.6204 65.3789 96.3782C64.8281 96.136 64.1836 96.386 63.9414 96.9367C62.4726 100.269 60.6914 102.39 59.0469 102.753C58.211 102.941 57.3907 102.663 56.543 101.921C51.8008 97.7102 46.02 95.1203 40.426 92.6164C31.0549 88.4211 22.156 84.4328 17.809 73.3544C18.2934 69.0185 20.4457 65.6513 24.4223 63.0384C28.4848 60.0501 30.6723 56.2415 30.9887 51.6754C31.3442 51.7184 31.6996 51.7496 32.0473 51.7496C35.6606 51.7496 38.9223 49.3902 41.7582 44.7066C41.8715 44.5191 41.9262 44.3082 41.9145 44.0894C41.5785 36.8042 42.8598 34.5035 43.9926 33.8594C44.8871 33.3477 46.1567 33.6641 47.3871 34.2423C46.3012 34.7774 45.223 35.3946 44.1527 36.1017C43.6487 36.4337 43.512 37.1095 43.8441 37.6134C44.1761 38.1134 44.8519 38.254 45.3558 37.9219C50.8324 34.2969 56.5158 33.1289 62.2578 34.4492C62.2812 35.3242 62.082 36.1836 61.6835 36.957C58.2187 36.4844 54.6679 37.5703 52.0546 39.9414C51.2421 40.6758 50.5624 41.5273 49.9921 42.4375C49.8984 42.5391 49.8281 42.6602 49.7773 42.793C48.5625 44.8946 47.9843 47.3438 48.1992 49.8164C47.789 51.1055 47.2734 52.2891 46.6992 53.4062C44.9844 54.3672 42.3672 54.9492 38.8828 55.121C36.7539 54.1757 34.914 53.5819 33.418 53.3515C32.8243 53.2617 32.2657 53.6679 32.1719 54.2656C32.0782 54.8593 32.4883 55.4179 33.086 55.5078C33.6563 55.5976 34.3087 55.7617 35.004 55.9804C33.9024 56.3945 32.9767 56.9336 32.2384 57.5937C31.7891 57.9961 31.754 58.6875 32.1524 59.1328C32.3673 59.375 32.668 59.4961 32.9649 59.4961C33.2227 59.4961 33.4845 59.4024 33.6915 59.2188C34.7774 58.2461 36.4884 57.6055 38.7813 57.3086C41.168 57.2031 43.1719 56.918 44.8477 56.4609C44.0117 57.6797 43.1172 58.8281 42.2032 59.9414C39.1173 61.8672 36.4102 63.0234 34.1524 63.375C34.1211 63.3789 34.0899 63.3867 34.0586 63.3945C30.625 64.2461 28.5508 65.8086 27.8945 68.0351C27.7227 68.6133 28.0547 69.2187 28.6328 69.3906C28.7344 69.4219 28.8398 69.4336 28.9414 69.4336C29.4141 69.4336 29.8477 69.125 29.9883 68.6524C30.4063 67.2305 31.9375 66.1797 34.5391 65.5235C35.8282 65.3164 37.1993 64.9063 38.668 64.2813C38.2227 64.8672 37.7969 65.461 37.3946 66.0625C37.3634 66.1015 37.3399 66.1445 37.3126 66.1875C35.3009 69.2734 34.0392 72.6797 34.7774 77.1365C34.0821 78.9685 33.4766 79.5818 33.1719 79.7771C32.6641 80.1013 32.5156 80.7771 32.8398 81.2849C33.0469 81.6091 33.3984 81.7888 33.7617 81.7888C33.9648 81.7888 34.1641 81.7341 34.3477 81.6169C34.7969 81.3317 35.2109 80.9021 35.6055 80.3357C36.2266 82.1443 37.1367 84.1052 38.418 86.2654C38.6211 86.6092 38.9844 86.8006 39.3555 86.8006C39.543 86.8006 39.7383 86.7498 39.9102 86.6482C40.4297 86.3396 40.6016 85.6717 40.293 85.1521C36.7618 79.1912 36.1914 75.0191 37.1836 71.5041C37.2812 72.7697 37.4648 73.8166 37.7343 74.6252C37.8867 75.0823 38.3125 75.3713 38.7695 75.3713C38.8828 75.3713 39 75.3518 39.1133 75.3127C39.6836 75.1213 39.9922 74.5041 39.8047 73.9338C39.6641 73.508 39.5195 72.883 39.418 71.969C40.4922 73.2581 41.3008 74.5315 41.8282 75.7815C42.004 76.1995 42.4063 76.4495 42.836 76.4495C42.9766 76.4495 43.1211 76.4221 43.2579 76.3636C43.8125 76.1292 44.0743 75.4925 43.8399 74.9339C42.961 72.8401 41.4219 70.7191 39.2852 68.6214C39.293 68.1487 39.3047 67.637 39.3282 67.0902C40.3086 65.6293 41.4923 64.2035 42.7423 62.7035C44.6446 60.4144 46.7111 57.9027 48.3556 54.8793C48.4493 54.766 48.5196 54.6332 48.5626 54.4964C48.9259 53.805 49.2696 53.0902 49.5782 52.3362C50.9923 53.6448 53.0743 53.9495 55.1055 54.2424C57.8243 54.637 60.6328 55.0432 62.6875 57.5862C63.9375 59.7737 64.9336 62.3323 65.6484 65.1917C68.0586 74.7386 67.4257 84.3087 65.8554 90.9577C65.5507 90.0906 65.3789 89.1647 65.3789 88.196L65.414 72.04C65.414 68.8173 62.7929 66.1962 59.5663 66.1962L52.9296 66.1923C52.5077 65.2275 51.5468 64.5517 50.4257 64.5517C48.9062 64.5517 47.6718 65.7783 47.6718 67.2861C47.6718 68.8056 48.9062 70.04 50.4257 70.04C51.5468 70.04 52.5116 69.3525 52.9335 68.3759H59.5663C61.5858 68.3759 63.2304 70.0204 63.2304 72.0361V88.2001C63.2304 90.5048 63.9804 92.6337 65.2421 94.372C65.3046 94.5048 65.3905 94.622 65.5038 94.7197C67.4374 97.1728 70.4296 98.7549 73.785 98.7549C79.6053 98.7549 84.34 94.0205 84.34 88.1999V82.2468C85.8869 81.9421 87.0627 80.5632 87.0627 78.907V78.8406C88.1565 78.5515 89.1721 78.1609 90.0666 77.6883C90.6799 77.3992 91.1291 76.8914 91.3869 76.1492C91.5275 75.6414 91.508 75.114 91.344 74.6062C94.5237 72.1296 96.3987 68.3289 96.3987 64.2542V45.6092C96.3987 45.0076 95.9105 44.52 95.309 44.52ZM89.2387 47.1567C89.0941 47.1059 88.6605 46.5746 88.6605 45.6137C88.6605 44.6371 89.102 44.102 89.2309 44.0707C89.3832 44.0902 89.8246 44.6527 89.8246 45.6137C89.8285 46.5668 89.3949 47.1254 89.2387 47.1567ZM77.2227 44.0669C77.375 44.0864 77.8164 44.6489 77.8164 45.6099C77.8164 46.5708 77.375 47.1333 77.2227 47.1568C77.0859 47.1333 76.6484 46.606 76.6484 45.6099C76.6484 44.6177 77.0899 44.0904 77.2227 44.0669ZM23.0387 38.1528C23.1012 36.1176 22.9566 34.5395 22.0309 31.7934C22.316 30.9613 23.0387 30.2622 24.0114 29.895C24.7965 29.602 25.4919 29.645 25.7536 29.8325C25.7965 29.8637 25.8434 29.8911 25.8903 29.9184C27.8044 30.9301 28.2262 33.0551 28.863 37.0356L29.0349 38.0903C28.7653 39.8286 28.6481 41.7426 28.7185 43.8403C28.6677 43.8598 28.6169 43.8794 28.57 43.9067C26.2223 44.563 24.0934 45.52 22.2302 46.7739C22.8826 44.02 23.1598 41.1372 23.0387 38.1528ZM26.1949 91.0978C25.4253 91.1954 24.4019 91.0548 23.4332 89.6955C23.9488 88.6252 24.1675 87.3478 24.105 85.8478C25.3198 86.883 26.5972 87.8205 27.9214 88.6759C27.691 89.5587 27.1246 90.3595 26.1949 91.0978ZM23.1871 61.2498C19.9332 63.3865 17.7105 66.0936 16.5269 69.3318C15.0972 63.7107 15.7534 58.2268 18.3785 53.8708C20.566 50.2458 23.984 47.6325 28.3277 46.2341C29.8433 52.6716 28.1441 57.6008 23.1871 61.2498ZM42.9251 31.9648C40.4759 33.3593 39.4603 37.1406 39.7298 43.8558C37.1986 47.9222 34.5032 49.7972 31.5228 49.5433C28.9173 34.8243 34.6517 27.8133 40.4408 26.2773C44.8119 25.1211 50.222 26.871 52.6638 32.3242C51.7497 32.539 50.8357 32.8164 49.9255 33.1484C47.0075 31.3476 44.7103 30.9453 42.9251 31.9648ZM55.4521 52.0898C52.6787 51.6874 51.0576 51.3632 50.4052 49.6757C50.2333 47.8202 50.5966 45.9726 51.4208 44.3515C57.9325 45.2421 61.5418 48.5038 62.3588 54.3007C60.1283 52.7655 57.5927 52.3984 55.4521 52.0898ZM50.4287 67.8558C50.1044 67.8558 49.8544 67.6097 49.8544 67.2815C49.8544 66.973 50.1044 66.7308 50.4287 66.7308C50.7334 66.7308 50.9794 66.9769 50.9794 67.2815C50.9794 67.6058 50.7334 67.8558 50.4287 67.8558ZM89.0927 75.7425C88.1005 76.2659 86.9794 76.6604 85.7489 76.9144C85.2411 77.0198 84.8778 77.4651 84.8778 77.9847V78.9144C84.8778 79.5862 84.3504 80.1331 83.702 80.1331H82.7957C82.1473 80.1331 81.6199 79.5863 81.6199 78.9144L81.616 77.9808C81.616 77.4612 81.2527 77.0159 80.7449 76.9105C79.5183 76.6566 78.3933 76.262 77.3582 75.7191C77.3231 75.6995 77.2449 75.6644 77.2098 75.5706C77.1551 75.3831 77.202 75.3011 77.2254 75.2581L77.6707 74.4339C77.7449 74.305 77.8699 74.223 78.0027 74.223C78.0574 74.223 78.1121 74.2386 78.1629 74.262C81.2684 75.8636 85.2059 75.8675 88.3349 74.2542C88.499 74.1683 88.7216 74.262 88.8076 74.4144L89.2451 75.2269C89.2998 75.3363 89.3115 75.4495 89.2998 75.5003C89.249 75.6644 89.1747 75.6995 89.0927 75.7425ZM55.2767 69.3206C55.7728 69.6604 55.9017 70.3401 55.5618 70.8362C54.4056 72.5237 52.4954 73.5003 50.4798 73.5003C50.0853 73.5003 49.6869 73.4612 49.2884 73.387C46.3743 72.8401 44.2572 70.2737 44.2572 67.2815C44.2572 64.3167 46.3705 61.7503 49.2884 61.176C51.7025 60.7072 54.1634 61.7072 55.5618 63.719C55.9056 64.2151 55.7806 64.8948 55.2884 65.2385C54.7923 65.5822 54.1126 65.4611 53.7689 64.965C52.8665 63.6603 51.2689 63.0158 49.7103 63.3166C47.8197 63.6877 46.4447 65.3557 46.4447 67.2814C46.4447 69.2228 47.8158 70.8908 49.7025 71.2423C51.2806 71.547 52.8744 70.9025 53.765 69.6017C54.1009 69.1096 54.7806 68.9807 55.2767 69.3206Z" fill="#1B4965"/>
</svg>
