<svg width="100" height="125" viewBox="0 0 100 125" fill="none" xmlns="http://www.w3.org/2000/svg">
<path d="M54.1113 96.5461C50.4491 96.6689 46.7897 96.123 43.3348 94.6983C36.7109 91.9667 30.7928 86.6402 26.0685 79.942C21.0704 72.8557 17.402 64.2232 15.6472 55.5037C14.2822 48.7214 13.8975 42.529 14.3104 36.8468C14.7239 31.1561 15.9377 25.9719 17.7683 21.2156C19.7712 16.0118 23.0986 11.1753 27.4537 7.83543C31.3157 4.87373 35.9838 3.08632 41.2539 3.25377C44.2061 3.34757 46.8303 3.99262 49.1534 5.0795C51.6537 6.24926 53.7986 7.9263 55.6232 9.97529C58.8988 13.6537 61.0584 18.0772 62.4334 22.7287C64.1404 28.5032 64.6354 34.6295 64.5563 40.1083C64.5433 41.0097 64.519 41.869 64.4949 42.722C64.1287 55.6694 66.5608 60.1495 70.7868 72.0161C71.2147 73.2175 71.5955 74.4529 71.9047 75.6999C72.8579 78.5353 74.1443 81.1469 75.7408 83.5516C77.8467 86.7238 80.4942 89.5384 83.6293 92.0346C84.6003 92.6997 85.7606 93.4921 86.9989 93.1063C87.2586 93.0254 87.4607 92.8931 87.5909 92.728C87.7088 92.5785 87.7692 92.3971 87.7592 92.2004C87.7347 91.716 87.3193 91.1298 86.3683 90.595C78.2061 86.0046 75.502 79.1562 72.5912 71.7844C68.1384 60.5071 66.3602 54.4529 66.3769 42.3018C66.3779 41.5504 66.379 40.793 66.3741 40.0217C66.3411 34.7656 66.0001 29.0382 64.7045 23.5329C63.4173 18.063 61.1849 12.8152 57.3676 8.47991C55.4457 6.29721 53.1893 4.46482 50.5208 3.18035C47.8541 1.8967 44.7669 1.15675 41.1793 1.15675C35.0134 1.15675 29.8358 3.02104 25.6626 6.20002C21.0775 9.69279 17.6918 14.7762 15.5291 20.7235C13.6935 25.7716 12.7046 31.673 12.3667 37.4888C11.9769 44.1983 12.4528 50.7834 13.4942 55.8118C14.6969 61.6192 16.6801 67.5324 19.1843 72.9245C21.6498 78.2335 24.6167 83.0287 27.836 86.7094C29.6879 88.8266 31.7966 90.7682 34.2495 92.5131C36.7051 94.2599 39.5056 95.8096 42.7385 97.1412C45.9676 98.4712 50.0202 99.0112 54.1941 98.8133C58.4169 98.6131 62.7523 97.6584 66.4779 96.003C69.8983 94.4831 73.3116 93.5126 76.175 93.5328C78.7581 93.5511 80.9054 94.3652 82.2462 96.2827C82.7558 97.0115 83.4815 97.2853 84.0939 97.2035C84.3425 97.1704 84.571 97.077 84.754 96.931C84.9275 96.7926 85.0598 96.6034 85.1268 96.3705C85.3062 95.7467 85.0473 94.8185 83.9909 93.6599C83.2089 92.8022 81.8247 92.1073 80.7613 91.7066C79.4143 91.1992 77.8886 90.8685 76.4597 90.8484C72.0726 90.7864 69.8003 92.4719 66.0418 93.9539C62.2464 95.4505 58.1893 96.4095 54.1113 96.5461ZM46.5085 57.7189C46.3912 57.9732 46.09 58.0842 45.8358 57.9669C45.5815 57.8497 45.4705 57.5485 45.5877 57.2942C45.7908 56.8574 46.1632 56.3447 46.6509 55.9326C47.0562 55.5901 47.5468 55.3107 48.0968 55.1889C48.3697 55.1286 48.6398 55.3009 48.7001 55.5738C48.7604 55.8467 48.588 56.1168 48.3151 56.1771C47.9429 56.2595 47.5985 56.4591 47.3058 56.7065C46.9355 57.0194 46.6569 57.3995 46.5085 57.7189ZM33.0272 75.6001C33.021 75.5819 33.0157 75.5632 33.0114 75.544C32.9862 75.4544 32.9613 75.3649 32.9369 75.2756C31.9256 71.5672 29.9218 70.6332 28.1755 69.8193C27.6282 69.5642 27.1043 69.32 26.6085 68.9978C24.1531 67.4022 22.3444 64.7753 21.0045 61.6625C19.6838 58.5942 18.8157 55.0461 18.2308 51.5561C17.0979 44.7961 17.3205 36.4075 19.0766 28.7944C20.6175 22.1143 23.3425 16.0171 27.3742 12.107C29.2713 10.2671 31.4468 8.85468 33.7275 7.8855C36.8785 6.54649 40.2324 6.05108 43.3337 6.44099C46.4608 6.83413 49.3352 8.12459 51.4983 10.3549C52.4578 11.3443 53.2756 12.5167 53.9113 13.8755C54.3927 13.7096 54.8461 13.6552 55.272 13.6972C55.7916 13.7485 56.2589 13.941 56.6768 14.2484C57.3527 14.7457 57.8914 15.5421 58.3064 16.5179C58.7363 17.529 59.3666 18.8545 60.027 20.1068C60.4229 20.8576 60.8292 21.5809 61.2085 22.1917C59.867 17.9782 57.8407 13.9914 54.8652 10.65C53.1265 8.69744 51.0902 7.10294 48.7248 5.99628C46.5236 4.96645 44.0316 4.35508 41.2221 4.26581C36.2065 4.10645 31.7563 5.81327 28.0689 8.64109C23.8658 11.8643 20.6512 16.5407 18.7129 21.5768C16.9188 26.238 15.7289 31.3254 15.3224 36.9182C14.9154 42.5194 15.2944 48.6224 16.6394 55.3052C18.3662 63.8855 21.9773 72.3821 26.8979 79.3586C31.5171 85.9078 37.2845 91.1079 43.7198 93.7617C47.0349 95.1288 50.5534 95.6523 54.0795 95.5341C57.6885 95.4131 62.4935 94.5626 65.7084 92.8067C69.2652 90.864 70.9794 87.9121 71.5233 84.564C71.9941 81.6663 71.6085 78.1578 70.7282 75.3599C70.7309 76.5111 70.6155 77.6265 70.3943 78.6992C69.6734 82.1954 67.8338 85.2305 65.3153 87.5726C62.8036 89.9084 59.6153 91.5561 56.1891 92.2838C52.2537 93.1196 48.0022 92.7434 44.0976 90.8048C41.3586 89.4449 39.133 87.3265 37.3699 84.8659C35.333 82.0231 33.9107 78.7163 33.0272 75.6001ZM32.3398 71.6057C32.2297 70.4807 32.2346 69.4213 32.3981 68.2493C32.4365 67.972 32.6924 67.7783 32.9696 67.8166C33.2469 67.855 33.4406 68.1109 33.4022 68.3881C33.2458 69.5092 33.2459 70.5211 33.3581 71.6044C33.4718 72.7023 33.7014 73.8832 34.0005 75.3231C34.8541 78.3341 36.2281 81.5288 38.1954 84.2745C39.8701 86.6118 41.9727 88.6184 44.546 89.896C48.2353 91.7276 52.2554 92.0824 55.9787 91.2916C59.2266 90.6018 62.2471 89.0416 64.6248 86.8304C66.9957 84.6256 68.7262 81.7746 69.4021 78.4968C70.0902 75.1599 69.688 71.3722 67.7606 67.361C65.8315 63.3461 62.8642 61.4812 59.9772 59.6669C59.746 59.5216 59.5156 59.3768 59.1567 59.1481C57.8385 58.3084 56.6847 57.3364 55.5677 56.3954C52.6304 53.9208 49.9592 51.6704 45.2881 53.029C45.0436 53.5924 44.7803 54.1625 44.4974 54.7195C43.6767 56.3355 42.6885 57.8507 41.5088 58.8171C40.6087 59.5544 39.5728 59.7607 38.5971 59.6232C37.8895 59.5235 37.2148 59.2397 36.6512 58.8462C36.0813 58.4483 35.6205 57.9347 35.3481 57.3811C35.3318 57.3481 35.3162 57.315 35.3013 57.2817C35.0555 57.6819 34.7984 58.0889 34.5365 58.4937C33.7617 59.6914 32.9456 60.8689 32.2571 61.7964C32.0906 62.021 31.7734 62.0681 31.5487 61.9015C31.324 61.7349 31.277 61.4177 31.4435 61.1931C32.1207 60.2808 32.924 59.1218 33.6872 57.9421C34.2529 57.0675 34.797 56.1804 35.251 55.3736C35.2558 55.3646 35.2607 55.3557 35.2659 55.3471C35.3467 55.2032 35.4247 55.0618 35.4993 54.9236L35.4998 54.9227C35.8344 54.2728 36.1789 53.71 36.5247 53.2304C37.1851 52.3149 37.8577 51.6966 38.4844 51.3486C38.8563 51.1421 39.2169 51.0261 39.5563 50.9952C40.079 50.2686 40.86 49.5064 41.6658 48.7199C42.4403 47.9641 43.2386 47.1849 43.8078 46.4351C43.7929 46.422 43.7781 46.4089 43.7634 46.3956C43.4169 46.0841 43.1083 45.7251 42.8421 45.3293C42.5752 44.9324 42.3534 44.5007 42.1811 44.0451C41.9258 43.3696 41.7789 42.6319 41.7573 41.8727C40.7271 42.7491 39.6179 43.5261 38.4602 43.857C37.7661 44.0554 37.0659 44.0981 36.3698 43.9176C35.6662 44.5718 34.5438 45.3203 33.2501 46.1829C30.3355 48.1263 26.5222 50.6689 25.1071 53.7468C24.991 54.001 24.6907 54.113 24.4364 53.9968C24.1822 53.8806 24.0702 53.5803 24.1864 53.3261C25.7225 49.985 29.6697 47.3531 32.6866 45.3415C33.7434 44.6368 34.6822 44.0108 35.3363 43.4744C34.8108 43.1546 34.2905 42.6856 33.78 42.0367C30.7882 38.2342 30.4017 33.2535 30.0672 28.9433C29.7888 25.3553 29.5483 22.2555 27.8663 20.9517C27.645 20.7808 27.6041 20.4627 27.7751 20.2413C27.946 20.0199 28.2641 19.9791 28.4855 20.15C30.5255 21.7315 30.7822 25.0391 31.0793 28.8679C31.4026 33.0344 31.7762 37.849 34.5777 41.4097C35.7762 42.9329 37.0008 43.2184 38.1824 42.8807C39.4467 42.5193 40.7162 41.4761 41.8708 40.4168C42.0276 39.5741 42.3461 38.7358 42.8483 37.955C43.2763 37.2896 43.8329 36.6696 44.5301 36.1313C45.1714 35.6364 45.929 35.2121 46.8119 34.8874C46.8955 34.8567 46.9804 34.8269 47.0665 34.7979C47.6267 33.9508 48.0048 33.1505 48.4415 32.2264C49.0426 30.9542 49.7513 29.4544 51.1821 27.272C52.2431 25.6536 53.0693 24.6686 53.8794 24.3894C54.8382 24.0591 55.6304 24.5806 56.4839 26.0433C56.7777 26.5468 56.9631 26.833 57.0981 27.0415C57.2778 27.319 57.3821 27.4801 57.4732 27.7085C57.5944 28.0123 57.6513 28.3373 57.787 29.1122C57.8073 29.2281 57.8294 29.3546 57.8538 29.4929C57.9102 29.8121 58.1079 30.0145 58.344 30.1048C58.4685 30.1524 58.6031 30.1717 58.7347 30.1632C58.8649 30.1548 58.989 30.1207 59.094 30.0614C59.2789 29.9571 59.4136 29.7616 59.4203 29.4761C59.426 29.2291 59.4817 29.0483 59.6917 28.9108C59.8853 28.7839 60.091 28.7809 60.3638 28.9068C60.3858 28.9169 60.4279 28.9268 60.4848 28.9313C60.5418 28.9359 60.6 28.9328 60.6427 28.9152C60.6603 28.9079 60.6761 28.8946 60.6863 28.8724C60.6995 28.8438 60.7091 28.8025 60.7137 28.7457C60.7331 28.5033 60.8241 28.3496 60.9956 28.237L60.995 28.2361C61.1352 28.1445 61.2619 28.1296 61.4178 28.1332C61.4232 28.1333 61.433 28.1323 61.4468 28.1302C61.4615 28.128 61.4721 28.1206 61.479 28.1111C61.4966 28.0871 61.5054 28.0596 61.5059 28.0359C61.506 28.0332 61.5054 28.0368 61.5045 28.0307C61.4725 27.8193 61.508 27.6377 61.6509 27.4753C61.7757 27.3336 61.9464 27.2576 62.1858 27.2507C62.1875 27.2507 62.1868 27.2513 62.1874 27.251C62.1999 27.2456 62.2187 27.205 62.2405 27.1432C62.2865 27.013 62.3045 26.8434 62.2993 26.6618C62.2914 26.39 62.2323 26.1073 62.1364 25.8888C61.9575 25.4813 61.7197 25.0012 61.4777 24.5529C61.2462 24.1237 61.0131 23.7291 60.8292 23.4652C60.3133 22.7248 59.7104 21.6797 59.1301 20.5791C58.4573 19.3032 57.8138 17.9496 57.3737 16.9148C57.0267 16.0988 56.5963 15.4477 56.0775 15.066C55.8026 14.8637 55.5012 14.7377 55.1728 14.7053C54.8324 14.6717 54.4517 14.7359 54.0279 14.9161C53.9773 14.9377 53.9262 14.9608 53.8746 14.9855L53.8673 14.989C52.8532 15.4767 51.646 16.5805 50.2232 18.5019C50.1795 18.6503 50.1343 18.7977 50.0876 18.9439C49.4565 20.9235 48.5518 22.711 47.5687 23.4526C47.5603 23.46 47.5516 23.4671 47.5426 23.474C47.0425 23.8564 46.5512 23.9242 46.1392 23.7915L46.1334 23.7896C45.9592 23.972 45.7378 24.1092 45.494 24.1985C45.2951 24.2712 45.0784 24.3118 44.8603 24.3181C44.6623 24.3237 44.4617 24.3003 44.2708 24.2463C44.0839 25.2282 43.1019 27.1098 42.3527 28.5454C42.0683 29.0903 41.8188 29.5684 41.6673 29.8913C41.4713 30.3091 41.2047 30.7071 40.9321 31.114C40.4537 31.828 39.9544 32.5733 39.9544 33.3147C39.9544 33.5952 39.727 33.8227 39.4464 33.8227C39.1659 33.8227 38.9384 33.5952 38.9384 33.3147C38.9384 32.2704 39.5269 31.392 40.0907 30.5505C40.3429 30.174 40.5896 29.8058 40.7505 29.4627C40.9098 29.1232 41.165 28.6343 41.4557 28.0771C42.0607 26.9179 42.8263 25.4509 43.1427 24.5536C42.8484 24.6005 42.5693 24.5838 42.3166 24.5215C41.9995 24.4434 41.7231 24.2916 41.5074 24.1011C41.1378 24.3094 40.7358 24.3526 40.3572 24.2918C40.0816 24.2476 39.818 24.1454 39.5909 24.0117C39.4156 24.1291 39.2322 24.2239 39.0454 24.2955C38.5764 24.4755 38.0725 24.5194 37.6095 24.4207C37.1267 24.3178 36.6893 24.0614 36.377 23.6438H36.375C36.2616 23.4922 36.1655 23.3194 36.091 23.1251C35.5677 21.7611 36.3965 20.878 37.1053 20.1227C37.2562 19.9619 37.4006 19.8081 37.5035 19.6768C37.895 19.1774 38.2033 18.7419 38.496 18.3282C38.6743 18.0764 38.8484 17.8303 38.8819 17.7841C39.3657 17.1167 39.7042 16.8214 40.3799 16.2321C40.5271 16.1037 40.6901 15.9615 40.8444 15.8249C41.1544 15.5503 41.5326 15.2133 41.8698 14.8369C42.1911 14.478 42.481 14.0782 42.6442 13.6554C42.8207 13.1979 43.0052 12.7317 43.1972 12.2984C43.3982 11.8447 43.6179 11.3999 43.8644 10.9869C44.3687 10.1419 44.9742 9.59881 45.618 9.2972C46.3324 8.9625 47.0807 8.92907 47.7865 9.11419C48.4718 9.29397 49.1142 9.68049 49.6396 10.1949C50.2981 10.8396 50.78 11.6929 50.9375 12.5973C51.0979 13.5181 51.0156 14.8334 50.7624 16.2353C51.5665 15.3494 52.3101 14.7205 52.9955 14.31C52.4082 13.0532 51.6547 11.9715 50.772 11.0613C48.7781 9.00543 46.1153 7.81423 43.2107 7.44905C40.2805 7.08065 37.1082 7.55022 34.1244 8.81816C31.954 9.74047 29.8844 11.0839 28.0807 12.8333C24.1998 16.5971 21.5652 22.5159 20.0648 29.0206C18.338 36.5067 18.1182 44.7503 19.2309 51.3894C19.8034 54.8056 20.651 58.2735 21.9372 61.2616C23.2042 64.2052 24.8934 66.6754 27.1601 68.1485C27.5793 68.4208 28.0805 68.6545 28.6041 68.8985C29.8531 69.4807 31.2205 70.1183 32.3398 71.6057ZM39.5793 54.0888C39.793 54.1829 39.89 54.4324 39.7959 54.6461C39.7019 54.8598 39.4524 54.9568 39.2387 54.8627C38.8038 54.6708 38.4399 54.4023 38.1461 54.0795C37.9583 53.8732 37.7996 53.6448 37.6698 53.4002C37.5625 53.5311 37.4546 53.6716 37.3462 53.8218C37.2459 53.9609 37.1455 54.1082 37.0452 54.2638C37.1254 54.4742 37.2749 54.7001 37.4688 54.9188C37.7526 55.2388 38.1243 55.5324 38.5159 55.739C38.7223 55.8477 38.8015 56.1031 38.6929 56.3095C38.5842 56.5159 38.3288 56.5952 38.1224 56.4865C37.6439 56.234 37.1876 55.8729 36.8371 55.4778C36.7308 55.3579 36.6337 55.2341 36.5478 55.1082C36.4981 55.2001 36.4486 55.2941 36.3993 55.3903C36.398 55.3928 36.3967 55.3953 36.3954 55.3978C36.3001 55.5839 36.2054 55.778 36.1115 55.9802C36.0406 56.2863 36.1009 56.6156 36.2569 56.9326C36.4552 57.3357 36.7997 57.7159 37.2307 58.0168C37.6681 58.3221 38.1901 58.5421 38.736 58.6191C39.4508 58.7198 40.2088 58.5695 40.8659 58.0313C41.9226 57.1657 42.8289 55.7666 43.5925 54.2631C43.8982 53.6611 44.1806 53.0437 44.4405 52.4367C44.4466 52.4201 44.4535 52.4038 44.4613 52.388C44.8584 51.457 45.2028 50.5521 45.4977 49.7666C45.622 49.4354 45.7327 49.1038 45.8389 48.7859C45.9709 48.3908 46.0961 48.0159 46.2431 47.6546C45.8274 47.5693 45.4335 47.4367 45.0639 47.2625C44.9137 47.1918 44.7677 47.1142 44.626 47.0304C44.0074 47.8504 43.1774 48.6604 42.3723 49.4462C41.7346 50.0685 41.1133 50.6749 40.6516 51.2341C40.6947 51.2601 40.7371 51.2881 40.7789 51.3182C41.0966 51.5474 41.3629 51.7239 41.5941 51.8396C41.7882 51.9368 41.9535 51.9895 42.1039 51.9934C42.3833 52 42.6045 52.2319 42.598 52.5113C42.5914 52.7908 42.3595 53.012 42.08 53.0054C41.7704 52.9974 41.4684 52.908 41.1417 52.7445C40.852 52.5996 40.544 52.3968 40.1876 52.1398C40.1429 52.1075 40.0925 52.08 40.0369 52.0574C39.7636 51.9463 39.3992 51.9989 38.9765 52.2336C38.7572 52.3554 38.5278 52.5227 38.2918 52.7376C38.4055 53.0219 38.565 53.2842 38.7711 53.5106C38.9874 53.7482 39.2564 53.9464 39.5793 54.0888ZM52.0423 34.2247C52.2963 34.2386 52.5403 34.2871 52.77 34.3653C53.2517 32.7867 53.5906 31.3657 53.7755 29.9286C53.9541 28.5412 53.9927 27.1265 53.8823 25.5268C53.3885 25.882 52.7939 26.6646 52.0314 27.8276C50.634 29.9591 49.9438 31.4199 49.3583 32.659C49.0621 33.2857 48.792 33.8574 48.4717 34.4329C48.7255 34.3845 48.988 34.3429 49.2592 34.3088C50.1059 34.2022 51.0324 34.1691 52.0423 34.2247ZM53.6729 34.8837C53.7607 34.9597 53.8437 35.0412 53.9211 35.1276C54.3807 35.6406 54.647 36.3262 54.6138 37.0657H54.6144L54.6125 37.0936C54.5713 37.8437 54.2292 38.5068 53.7095 38.9724C53.5105 39.1507 53.2854 39.2999 53.0413 39.4138C53.4926 39.4317 53.9297 39.5245 54.3496 39.6927C54.8334 39.8866 55.2599 40.1636 55.6245 40.5243C55.9798 40.8757 56.2767 41.308 56.5107 41.8214C56.6759 42.1838 56.8057 42.5904 56.897 43.0406C56.9844 43.4714 57.0362 43.9424 57.0498 44.4529C57.0539 44.6067 57.062 44.7507 57.0749 44.8783C57.1388 44.7676 57.2103 44.6324 57.29 44.4701C57.6494 43.7376 57.7476 42.4896 57.6555 41.2108C57.5561 39.8303 57.2344 38.4473 56.7787 37.6529C56.1374 36.5319 56.3466 35.4563 56.9601 34.6841C57.1929 34.3911 57.484 34.1446 57.808 33.9593C58.1318 33.7741 58.4922 33.648 58.864 33.5957C59.8399 33.4583 60.8726 33.8231 61.5138 34.9441C61.8814 35.5849 62.1983 36.3551 62.4517 37.1988C62.706 38.0455 62.8969 38.9685 63.011 39.9095C63.1184 40.7948 63.1595 41.7184 63.123 42.6304C63.0882 43.497 62.9833 44.3468 62.7986 45.1363C62.5169 46.3403 62.0097 47.3534 61.369 48.1665C60.652 49.0764 59.7679 49.7362 58.8438 50.1337C58.4288 50.3122 58.0018 50.4398 57.5723 50.5157C57.1404 50.5921 56.7048 50.6158 56.2751 50.5862C55.8005 50.5535 55.3369 50.4562 54.8953 50.2933C54.8764 50.2863 54.8575 50.2792 54.8386 50.272C54.8119 50.8269 54.7107 51.3908 54.5444 51.9268C54.3526 52.5448 54.0733 53.1299 53.7208 53.6267C54.5655 54.2289 55.382 54.9167 56.2186 55.6214C57.309 56.5401 58.4352 57.4889 59.7004 58.2948C59.8846 58.4122 60.2005 58.6107 60.517 58.8096C62.5718 60.101 64.6656 61.4172 66.4421 63.4867C63.1681 53.8259 63.3216 48.3976 63.4828 42.6942C63.5072 41.833 63.5317 40.9654 63.5443 40.0964C63.5989 36.3113 63.3757 32.2145 62.6581 28.148C62.6367 28.1593 62.6148 28.1698 62.5923 28.1797C62.5632 28.1925 62.5334 28.2038 62.5029 28.2138C62.4745 28.3849 62.4063 28.5606 62.2966 28.7104C62.1545 28.9043 61.9478 29.0596 61.6728 29.1203C61.6547 29.183 61.6326 29.2419 61.6071 29.2971C61.4761 29.5813 61.2667 29.7543 61.0316 29.8518C60.8217 29.9388 60.5997 29.9589 60.4054 29.9433C60.3938 29.9424 60.3824 29.9414 60.3709 29.9402C60.2491 30.3991 59.9582 30.7347 59.5901 30.9425C59.3475 31.0795 59.0744 31.1575 58.7982 31.1753C58.5236 31.193 58.2426 31.1527 57.9828 31.0533C57.4363 30.8443 56.9805 30.3851 56.8537 29.6675C56.8293 29.5292 56.8072 29.4028 56.7869 29.2869C56.662 28.5737 56.6096 28.2747 56.5326 28.0816C56.4806 27.9511 56.3954 27.8196 56.2488 27.5932C56.0941 27.3543 55.8818 27.0266 55.6068 26.5553C55.346 26.1083 55.1144 25.7872 54.9007 25.5848C55.0051 27.2001 54.9619 28.6395 54.7796 30.0556C54.5761 31.6368 54.2034 33.1747 53.6729 34.8837ZM53.8265 49.7376C53.7726 49.7005 53.7192 49.662 53.6664 49.6224C52.9985 49.1211 52.4494 48.4484 52.0861 47.6067C51.8799 47.1287 51.7338 46.596 51.6605 46.0092C50.9156 46.6309 50.1688 47.0705 49.4366 47.3542C48.7027 47.6385 47.9852 47.7663 47.2997 47.7637C47.1097 48.1781 46.9599 48.6267 46.7994 49.1073C46.6931 49.4255 46.5823 49.7574 46.4462 50.1198C46.2459 50.6535 46.0232 51.2412 45.7772 51.8546C48.7372 51.1837 50.9194 51.8489 52.8776 53.0635C53.175 52.652 53.4121 52.1571 53.576 51.6291C53.7676 51.0119 53.8577 50.3553 53.8265 49.7376ZM53.167 35.8023C52.8755 35.4769 52.459 35.2627 51.9867 35.2367C51.032 35.1842 50.1656 35.2143 49.3823 35.3129C48.5583 35.4166 47.8194 35.5979 47.1612 35.8399C46.3763 36.1285 45.7088 36.5011 45.1493 36.933C44.549 37.3964 44.07 37.9301 43.7016 38.5027C43.1867 39.3032 42.8982 40.1725 42.8037 41.0328C42.7016 41.9613 42.8238 42.8788 43.1297 43.6879C43.275 44.0724 43.4609 44.4347 43.6835 44.7657C43.9003 45.0881 44.1543 45.3829 44.4421 45.6416C44.7586 45.9262 45.1115 46.1644 45.4965 46.3457C45.8662 46.5199 46.2673 46.6426 46.696 46.7046C47.437 46.8118 48.2395 46.732 49.0715 46.4096C49.8478 46.1088 50.6523 45.5971 51.4612 44.8303C51.5267 44.7683 51.5813 44.7174 51.6251 44.6776C51.666 44.6404 51.7191 44.5937 51.7842 44.5374L52.6523 43.7864L52.6216 44.9323C52.598 45.8123 52.7445 46.5703 53.0188 47.2059C53.31 47.8807 53.7458 48.4167 54.2736 48.8128C54.3669 48.8828 54.4628 48.9481 54.561 49.0086C54.5709 49.0142 54.5806 49.0201 54.5901 49.0263C54.7987 49.1523 55.0177 49.2571 55.2446 49.3408C55.5966 49.4706 55.9655 49.5482 56.3426 49.5742C56.6888 49.598 57.0431 49.5783 57.3977 49.5156C57.7494 49.4534 58.1004 49.3484 58.4429 49.2011C59.2191 48.8672 59.964 48.3101 60.5713 47.5394C61.1251 46.8365 61.5646 45.9565 61.8104 44.9061C61.9818 44.1737 62.0789 43.3887 62.1109 42.5907C62.1449 41.7426 62.1053 40.8724 62.003 40.0286C61.8958 39.1449 61.7171 38.2801 61.4793 37.4885C61.2485 36.72 60.9624 36.0228 60.6327 35.4481C60.2313 34.7463 59.5975 34.5161 59.0029 34.5998C58.7638 34.6335 58.5279 34.7169 58.3121 34.8404C58.0965 34.9637 57.9048 35.1252 57.7539 35.3151C57.3808 35.7847 57.2583 36.4472 57.6597 37.1489C58.1887 38.071 58.5581 39.6199 58.6675 41.1393C58.7708 42.5736 58.6423 44.0108 58.1988 44.9146C57.9013 45.5208 57.642 45.8799 57.4182 46.0532C57.1781 46.2391 56.9409 46.2785 56.7092 46.1988C56.5017 46.1274 56.3508 45.97 56.2477 45.7466C56.1141 45.457 56.0515 44.992 56.0378 44.4767C56.0258 44.0257 55.9806 43.613 55.9048 43.2391C55.8296 42.8682 55.7238 42.5358 55.5899 42.242C55.4102 41.8477 55.1825 41.516 54.9102 41.2466C54.64 40.9794 54.3264 40.7751 53.9725 40.6333C53.6336 40.4975 53.2816 40.4275 52.9193 40.423C52.5497 40.4184 52.1632 40.4819 51.7627 40.6132C51.3553 40.7467 50.9275 40.9579 50.4852 41.2457C50.0375 41.5369 49.5753 41.9063 49.1043 42.3528C48.7444 42.694 48.4251 42.9328 48.1468 43.086C47.7772 43.2894 47.4527 43.3562 47.1781 43.3165C47.0896 43.3037 47.0049 43.275 46.9253 43.2328C46.8558 43.196 46.7911 43.1502 46.7321 43.0971C46.6438 43.0177 46.5645 42.9226 46.4954 42.8149C46.4314 42.7152 46.376 42.6034 46.3303 42.4826C46.2048 42.1504 46.1567 41.7738 46.2027 41.3928C46.2452 41.0412 46.367 40.6834 46.5809 40.3508C46.7576 40.0761 47.0001 39.8168 47.3165 39.587C47.5963 39.3837 47.9355 39.2026 48.3396 39.054C48.7941 38.8869 49.3204 38.7628 49.9247 38.6937C50.4708 38.6313 51.0846 38.6137 51.7714 38.6502V38.6497L51.7992 38.6517C52.2715 38.6776 52.7092 38.5101 53.0348 38.2183C53.3538 37.9325 53.566 37.5266 53.5986 37.0658H53.5984L53.6004 37.038C53.6263 36.5657 53.4588 36.128 53.167 35.8023ZM51.4431 39.6508C50.9284 39.6349 50.4616 39.6535 50.0398 39.7018C49.5184 39.7614 49.0703 39.8663 48.6889 40.0065C48.3766 40.1214 48.1194 40.2578 47.9118 40.4085C47.7014 40.5614 47.5443 40.7273 47.4342 40.8984C47.3076 41.0953 47.2357 41.3058 47.2108 41.5119C47.1842 41.7314 47.21 41.9432 47.2789 42.1255C47.299 42.1786 47.3224 42.2263 47.3487 42.2672C47.3589 42.2832 47.3694 42.2976 47.38 42.3106C47.4454 42.3001 47.5373 42.2638 47.6587 42.197C47.8658 42.083 48.114 41.8952 48.4058 41.6186C48.9209 41.1303 49.4324 40.7223 49.9335 40.3964C50.4503 40.0601 50.9559 39.8111 51.4431 39.6508ZM51.5282 57.7009C51.8055 57.7371 52.001 57.9912 51.9648 58.2685C51.9286 58.5457 51.6745 58.7412 51.3973 58.705C51.368 58.7012 51.3382 58.6986 51.3078 58.6973C51.0964 58.6882 50.913 58.7519 50.778 58.8662C50.643 58.9804 50.552 59.1477 50.5259 59.3456C50.5225 59.3715 50.5201 59.3991 50.5188 59.4285C50.5068 59.7079 50.2704 59.9247 49.991 59.9127C49.7115 59.9006 49.4947 59.6643 49.5068 59.3848C49.5092 59.3284 49.5143 59.2717 49.5218 59.2147C49.5821 58.7584 49.7992 58.3664 50.1231 58.0923C50.447 57.8182 50.8732 57.6646 51.3514 57.6852C51.4086 57.6877 51.4675 57.6929 51.5282 57.7009ZM56.1063 61.1626C55.9036 61.3555 55.5829 61.3475 55.39 61.1448C55.1971 60.942 55.2051 60.6213 55.4078 60.4284C55.6423 60.2062 56.0597 59.634 56.4237 59.3787C56.9702 58.9955 57.494 59.6222 57.1076 60.0079C56.7278 60.3872 56.1877 61.0855 56.1063 61.1626ZM51.2399 66.5759C50.7649 67.033 50.0426 66.3965 50.4858 65.9012C50.8605 65.4851 51.2878 65.0048 51.8176 64.4024C52.2594 63.8454 53.1303 64.4023 52.6008 65.03C52.1464 65.5686 51.7685 65.9972 51.2399 66.5759ZM36.4904 74.2483C37.0483 73.8833 37.6039 74.7327 37.046 75.0976C36.5856 75.3986 36.7796 75.8496 37.1265 76.1626C37.8355 76.802 37.8725 77.5776 37.8095 78.4618C37.733 79.5074 37.6617 80.4826 39.0329 81.5817C39.8148 82.2084 40.9453 81.6862 40.6643 80.6416C40.4764 80.0022 41.4487 79.7164 41.6366 80.3559C42.2324 82.3818 39.9581 83.6221 38.3979 82.3715C36.611 80.9392 36.701 79.7092 36.7974 78.3903C36.8363 77.8596 36.8821 77.3083 36.4479 76.9166C35.586 76.1393 35.466 74.9179 36.4904 74.2483ZM49.269 18.1612C49.2737 18.1397 49.2799 18.1184 49.2875 18.0974C49.8614 16.1132 50.1543 14.0131 49.9374 12.7679C49.8172 12.0778 49.4427 11.42 48.9292 10.9172C48.526 10.5224 48.0414 10.228 47.5325 10.0945C47.0439 9.96632 46.5305 9.98727 46.0466 10.214C45.5788 10.4331 45.1272 10.8472 44.7335 11.5068C44.5165 11.8705 44.3151 12.2802 44.1259 12.7072C43.9276 13.1548 43.7526 13.5959 43.5887 14.0205C43.3757 14.5725 43.0169 15.0726 42.6238 15.5115C42.2465 15.9329 41.8443 16.2914 41.5151 16.583C41.3225 16.7535 41.1775 16.8799 41.0467 16.9941C40.4325 17.5298 40.1248 17.7981 39.7035 18.3794C39.4808 18.6866 39.402 18.7979 39.3215 18.9116C39.0137 19.3466 38.6895 19.8047 38.3012 20.2999C38.1602 20.4798 38.0053 20.6448 37.8435 20.8173C37.336 21.358 36.7427 21.9902 37.0396 22.7639C37.0789 22.8665 37.1293 22.9573 37.1886 23.0366L37.1873 23.0375C37.3434 23.2457 37.5682 23.3749 37.8199 23.4286C38.0918 23.4865 38.3952 23.4579 38.6842 23.347C38.744 23.3241 38.8026 23.298 38.8596 23.2688C38.5791 22.7601 38.5808 22.2063 38.7491 21.6929C38.9122 21.1954 39.239 20.734 39.608 20.4034C39.7289 20.295 39.8554 20.1996 39.9832 20.1203C40.221 19.9734 40.5328 20.0472 40.6797 20.285C40.8265 20.5228 40.7528 20.8346 40.515 20.9815C40.4374 21.0296 40.3591 21.0889 40.2827 21.1574C40.0367 21.3779 39.8198 21.6821 39.7135 22.0064C39.622 22.2856 39.6186 22.5761 39.7696 22.8204L39.7704 22.8199C39.8007 22.8686 39.8336 22.9132 39.8692 22.953C39.8744 22.9588 39.8851 22.9696 39.9011 22.9854C40.0468 23.129 40.2719 23.2526 40.5159 23.2917C40.6701 23.3165 40.8309 23.3039 40.9783 23.2337C40.8603 22.823 40.8739 22.4038 40.9647 22.0182C41.1272 21.3275 41.5612 20.7207 41.918 20.4822C42.1503 20.3266 42.4648 20.3888 42.6204 20.6212C42.7761 20.8535 42.7139 21.168 42.4815 21.3236C42.294 21.449 42.0562 21.8093 41.9529 22.2484C41.8801 22.5579 41.8858 22.8936 42.0473 23.1849C42.0505 23.1907 42.0551 23.1983 42.061 23.2077C42.1521 23.3523 42.3285 23.4805 42.5587 23.5372C42.7676 23.5887 43.0177 23.5774 43.2896 23.4646C43.264 23.4135 43.2408 23.3601 43.2204 23.3043C43.0583 22.8611 43.0519 22.4076 43.159 21.9731C43.272 21.5151 43.512 21.0814 43.826 20.7097C44.0068 20.496 44.3267 20.4694 44.5404 20.6502C44.7541 20.831 44.7807 21.1509 44.5999 21.3646C44.3819 21.6227 44.2172 21.9154 44.1433 22.2152C44.0823 22.4628 44.0843 22.7167 44.1729 22.959C44.2296 23.114 44.362 23.2146 44.5201 23.2649C44.617 23.2958 44.7239 23.3091 44.8325 23.306C44.9406 23.3029 45.0487 23.2825 45.1487 23.246C45.2314 23.2157 45.3057 23.1749 45.3646 23.1249C45.3022 23.0085 45.2537 22.8825 45.2211 22.7504C45.0915 22.2263 45.2017 21.5861 45.6652 21.0556C45.8494 20.8452 46.1692 20.8239 46.3796 21.008C46.59 21.1921 46.6114 21.512 46.4272 21.7224C46.2037 21.9782 46.1472 22.2733 46.2053 22.5083C46.2273 22.5973 46.2641 22.6739 46.3123 22.7311C46.3159 22.7354 46.3195 22.7395 46.3232 22.7436C46.3281 22.7483 46.3328 22.7532 46.3375 22.7581C46.3704 22.7901 46.408 22.8139 46.4488 22.8271C46.5339 22.8545 46.6471 22.8387 46.7847 22.7628C46.8022 22.7492 46.8207 22.7365 46.8403 22.725C46.8646 22.7107 46.8889 22.6953 46.9132 22.679C46.9179 22.6755 46.9227 22.672 46.9274 22.6683C46.9414 22.6577 46.9557 22.6479 46.9703 22.6389C47.7615 22.0587 48.5447 20.4528 49.1232 18.6383C49.1736 18.4805 49.2222 18.3212 49.269 18.1612ZM72.5235 84.7267C72.1132 87.2518 71.0934 89.5685 69.2219 91.4545C71.347 90.5075 73.3165 89.7918 76.4716 89.8363C77.7316 89.8541 79.053 90.091 80.2788 90.4705C78.2229 88.5257 76.422 86.4107 74.8954 84.1113C74.0715 82.8702 73.3278 81.5756 72.6672 80.2255C72.791 81.7638 72.7588 83.2784 72.5235 84.7267ZM85.6074 94.1257C86.1934 95.1099 86.2974 95.9731 86.1031 96.6483C85.9748 97.0941 85.7201 97.4575 85.3851 97.7248C85.0596 97.9844 84.658 98.1498 84.2249 98.2077C83.275 98.3345 82.1676 97.9361 81.4167 96.8622C80.2873 95.2469 78.4284 94.5608 76.171 94.5448C73.4572 94.5256 70.1855 95.4618 66.8866 96.9277C63.0437 98.6353 58.5812 99.6197 54.2417 99.8254C49.927 100.03 45.7225 99.4654 42.3536 98.0778C39.0453 96.7152 36.1779 95.1282 33.6622 93.3386C31.1436 91.547 28.9774 89.5522 27.074 87.3761C23.7884 83.6196 20.7674 78.7407 18.2635 73.3492C15.7297 67.8933 13.7217 61.9034 12.502 56.0142C11.4441 50.9059 10.9599 44.2271 11.3547 37.4332C11.6979 31.5266 12.7051 25.5248 14.5766 20.3782C16.8039 14.2531 20.3017 9.00945 25.0474 5.39436C29.3947 2.0828 34.7784 0.140747 41.1793 0.140747C44.9249 0.140747 48.1586 0.918427 50.9614 2.26753C53.7623 3.61579 56.124 5.53133 58.1296 7.80919C62.0702 12.2845 64.3703 17.6833 65.6928 23.3027C67.0068 28.8868 67.3527 34.6917 67.3861 40.0178C67.391 40.7898 67.39 41.5488 67.3889 42.3018C67.3724 54.309 69.135 60.2657 73.5358 71.4114C76.3782 78.6101 79.0188 85.2976 86.8645 89.71C88.1592 90.4382 88.7304 91.3464 88.7713 92.1528C88.794 92.6018 88.6566 93.0152 88.3886 93.3551C88.1329 93.6793 87.7608 93.9312 87.3005 94.0747C86.8271 94.2222 86.2501 94.2544 85.6074 94.1257Z" fill="#1B4965"/>
</svg>
