<svg width="80" height="97" viewBox="0 0 80 97" fill="none" xmlns="http://www.w3.org/2000/svg">
<g clip-path="url(#clip0_13_2)">
<path d="M46.5112 51.4447C49.9507 51.4447 52.7507 48.6105 52.7507 45.1289C52.7507 43.9727 52.4192 42.9031 51.8823 41.9699H52.1518C55.5935 41.9699 58.3935 39.1357 58.3935 35.6541C58.3935 34.4935 58.062 33.4218 57.5208 32.4864H60.9625C60.5882 33.3287 60.3229 34.1449 60.3229 34.8118C60.3229 37.5594 62.5304 39.7961 65.247 39.7961C67.9614 39.7961 70.1689 37.5616 70.1689 34.8118C70.1689 34.1125 69.8801 33.2529 69.4759 32.3695C72.3828 31.8217 74.5924 29.2581 74.5924 26.1728C74.5924 22.6912 71.7817 19.8612 68.3251 19.8612H33.2021C35.2919 16.0072 36.7678 10.3085 36.0513 6.03874C35.478 2.62642 33.5978 0.327005 31.1464 0.0368718C28.8213 -0.233776 26.6759 1.36629 25.4181 4.36723C23.4844 9.28002 19.8652 15.8557 16.9625 18.3673C15.1144 19.9695 12.7015 21.5912 9.36463 23.4793C3.6534 26.7076 0.104736 32.9108 0.104736 39.6748C0.104736 51.3906 9.52078 60.9217 21.0951 60.9217H35.371H40.3229C43.7625 60.9217 46.5625 58.0875 46.5625 54.6059C46.5625 53.4497 46.2309 52.3801 45.694 51.4469H46.5112V51.4447ZM49.632 45.1289C49.632 46.8697 48.2331 48.2879 46.5112 48.2879H40.3208H35.3689C33.6491 48.2879 32.2481 46.8719 32.2481 45.1289C32.2481 43.3881 33.647 41.9699 35.3689 41.9699H46.5112C48.2309 41.9699 49.632 43.3881 49.632 45.1289ZM52.1497 38.8131H46.5112H35.3689C33.6491 38.8131 32.2481 37.397 32.2481 35.6541C32.2481 33.9111 33.647 32.4951 35.3689 32.4951H52.1518C53.8716 32.4951 55.2727 33.9133 55.2727 35.6541C55.2727 37.3949 53.8716 38.8131 52.1497 38.8131ZM65.2427 36.6392C64.2481 36.6392 63.4374 35.8186 63.4374 34.8118C63.4395 34.2878 64.201 32.8155 65.2427 31.2349C66.2823 32.8155 67.0438 34.2878 67.0459 34.8118C67.0459 35.8186 66.2374 36.6392 65.2427 36.6392ZM3.22132 39.6726C3.22132 34.054 6.15607 28.9031 10.8812 26.2334C14.4042 24.2436 16.9796 22.5049 18.9882 20.7641C22.9839 17.3042 26.8342 9.28868 28.2994 5.56457C28.9604 3.98399 29.8887 3.08328 30.7807 3.16988C31.6042 3.26948 32.601 4.35423 32.9732 6.56488C33.7112 10.9667 31.463 17.7307 29.1122 20.4004C28.539 21.0499 28.5946 22.0503 29.2363 22.6284C29.6042 22.9596 30.0791 23.0592 30.5283 22.9835C30.5839 22.9899 30.6309 23.0159 30.6866 23.0159H68.3208C70.0577 23.0159 71.4694 24.432 71.4694 26.1706C71.4694 27.9092 70.0577 29.3274 68.3208 29.3274H67.7325C67.2213 28.5631 66.7486 27.9201 66.4769 27.5628C66.1817 27.1752 65.7261 26.9501 65.2427 26.9501C64.7593 26.9501 64.3037 27.1774 64.0085 27.5628C63.7368 27.9201 63.2641 28.5631 62.7507 29.3274H36.1176C36.1047 29.3274 36.094 29.3339 36.0791 29.3361H35.3668C31.9272 29.3361 29.1272 32.1703 29.1272 35.6541C29.1272 37.5486 29.9743 39.2331 31.2833 40.3915C29.9721 41.5499 29.1272 43.2344 29.1272 45.1289C29.1272 47.0234 29.9743 48.7079 31.2833 49.8663C29.9721 51.0247 29.1272 52.7092 29.1272 54.6037C29.1272 55.7599 29.4587 56.8295 29.9956 57.7627H21.0908C11.2384 57.7627 3.22132 49.6476 3.22132 39.6726ZM43.4416 54.6037C43.4416 56.3445 42.0427 57.7627 40.3208 57.7627H35.3689C33.6491 57.7627 32.2481 56.3467 32.2481 54.6037C32.2481 52.8629 33.647 51.4447 35.3689 51.4447H40.3208C42.0406 51.4447 43.4416 52.8629 43.4416 54.6037Z" fill="#1B4965"/>
<path d="M55.2278 74.6749V91.0003C55.2278 91.6975 55.7861 92.2626 56.4748 92.2626H74.0128C74.7016 92.2626 75.2599 91.6975 75.2599 91.0003V74.6749C75.2599 73.9777 74.7016 73.4126 74.0128 73.4126H56.4748C55.7861 73.4126 55.2278 73.9777 55.2278 74.6749ZM57.7219 75.9372H72.7636V89.738H57.7219V75.9372Z" fill="#1B4965"/>
<path d="M59.2471 69.8032H61.8802C62.569 69.8032 63.1273 69.238 63.1273 68.5409C63.1273 67.8437 62.569 67.2786 61.8802 67.2786H59.2471C58.5583 67.2786 58 67.8437 58 68.5409C58 69.238 58.5583 69.8032 59.2471 69.8032Z" fill="#1B4965"/>
<path d="M68.6055 69.8032H71.2408C71.9295 69.8032 72.4878 69.238 72.4878 68.5409C72.4878 67.8437 71.9295 67.2786 71.2408 67.2786H68.6055C67.9167 67.2786 67.3584 67.8437 67.3584 68.5409C67.3584 69.238 67.9188 69.8032 68.6055 69.8032Z" fill="#1B4965"/>
<path d="M70.2224 59.8781V49.875C70.2224 49.8728 70.2245 49.8706 70.2245 49.8663C70.2245 49.8641 70.2224 49.862 70.2224 49.8576V44.9903C70.2224 44.2931 69.6641 43.728 68.9753 43.728H61.5079C60.8191 43.728 60.2609 44.2931 60.2609 44.9903V49.8576C60.2609 49.8598 60.2587 49.862 60.2587 49.8663C60.2587 49.8685 60.2609 49.8706 60.2609 49.875V59.8781C54.6373 61.9523 50.5881 67.3696 50.5881 73.7699V92.5809C50.5881 95.0124 52.5411 96.9936 54.9454 96.9936H75.5379C77.94 96.9936 79.8951 95.0146 79.8951 92.5809V73.7699C79.8972 67.3674 75.848 61.9502 70.2224 59.8781ZM67.7282 46.2526V48.604H62.7571V46.2526H67.7282ZM62.7571 51.1286H67.7282V59.1896C66.9175 59.0488 66.094 58.9362 65.2427 58.9362C64.3913 58.9362 63.5678 59.0488 62.755 59.1917V51.1286H62.7571ZM77.401 92.5809C77.401 93.6224 76.5646 94.4668 75.5379 94.4668H54.9454C53.9186 94.4668 53.0823 93.6202 53.0823 92.5809V73.7699C53.0823 66.982 58.5368 61.4608 65.2427 61.4608C71.9464 61.4608 77.401 66.982 77.401 73.7699V92.5809Z" fill="#1B4965"/>
</g>
<defs>
<clipPath id="clip0_13_2">
<rect width="80" height="97" fill="white"/>
</clipPath>
</defs>
</svg>
