<svg width="90" height="90" viewBox="0 0 90 90" fill="none" xmlns="http://www.w3.org/2000/svg">
<path d="M24.9489 20.3089L25.0779 20.0745L25.2107 19.8363L25.3396 19.5745L25.4685 19.3363L25.6013 19.1175L25.7497 18.8831L25.8982 18.6449L26.0271 18.4066L26.1794 18.1917L26.3318 17.9535L26.4802 17.7347L26.6325 17.5199L26.8044 17.3011L26.9568 17.0824L27.1325 16.8675L27.3044 16.6488L27.4568 16.4339C27.824 15.9574 28.5154 15.8949 28.988 16.2621C29.4606 16.6293 29.5505 17.3207 29.1833 17.7933L29.0114 17.9886L28.8591 18.1917L28.7301 18.387L28.5778 18.6018L28.4255 18.7971L28.2927 18.9925L28.1403 19.1878L28.0114 19.4065L27.8825 19.6018L27.7536 19.8167L27.6247 20.0354L27.4958 20.2268L27.3669 20.4456L27.2575 20.6604L27.1286 20.8753L27.0192 21.094L26.8903 21.3088C26.6325 21.8479 25.9606 22.0667 25.4215 21.7854C24.8863 21.4963 24.6677 20.848 24.9489 20.3089ZM27.6716 58.8679L27.1521 59.0203C26.5701 59.1921 26.2459 59.821 26.4177 60.4031C26.5935 60.9851 27.1951 61.3093 27.7771 61.1374L28.2967 60.9851L29.1599 60.7273L29.9803 60.489L30.781 60.2703C31.1717 60.1609 31.4529 59.8601 31.5388 59.5125V59.489C31.6678 59.0789 31.5388 58.6257 31.2146 58.3445L31.0427 58.2L30.867 58.0047L30.6756 57.8289L30.4802 57.6375L30.4177 57.5711C30.0076 57.1375 29.3161 57.118 28.8591 57.5516C28.5818 57.8328 28.4724 58.243 28.5818 58.6102H28.5584L27.6716 58.8679ZM69.5816 63.5359L69.7535 63.6023L70.2496 63.7742L70.7262 63.9656L71.2223 64.1414L71.6988 64.3367L72.1949 64.532L72.6715 64.7508L73.148 64.9422L73.6012 65.1375C74.1637 65.3758 74.8121 65.118 75.0465 64.5555C75.2847 63.993 75.0269 63.3446 74.4644 63.1063L74.0113 62.911L73.5152 62.7156L73.0191 62.5008L71.5308 61.9149L71.0113 61.7235L70.5152 61.5281L70.3433 61.4617C69.7574 61.2664 69.1324 61.5477 68.9371 62.1297C68.7184 62.6922 69.0192 63.3211 69.5816 63.5359ZM18.0156 62.1101L17.0235 62.5007L16.6758 62.6531C16.1133 62.8875 15.8555 63.5164 16.0703 64.0789C16.3086 64.6414 16.957 64.8992 17.5156 64.6844L17.8398 64.532L18.3359 64.3367L18.8125 64.1414L19.3086 63.9656L19.7812 63.7742L20.2812 63.6023L20.7773 63.407L21.2539 63.2351L21.5586 63.1258C22.1406 62.9304 22.4219 62.3055 22.2305 61.7235C22.0352 61.161 21.4102 60.8602 20.8243 61.075L20.5235 61.1844L20.0274 61.3563L19.5313 61.5321L19.0352 61.7274L18.5157 61.9188L18.0156 62.1101ZM7.21465 67.7039L7.01934 67.8563L6.82403 67.9891L6.8045 68.0086C6.32794 68.3992 6.242 69.0867 6.60919 69.5672C6.97638 70.0438 7.66779 70.1297 8.14439 69.7391H8.16392L8.50767 69.4813L8.70298 69.3485L8.87486 69.2196L9.05064 69.0868L9.24595 68.9578L9.43736 68.825L9.63267 68.6961L9.80455 68.5672L9.99986 68.4344L10.2147 68.3289L10.41 68.1961L10.6053 68.0672L11.0155 67.8328L11.4256 67.5946L11.7069 67.4422C12.2264 67.1375 12.3983 66.4696 12.0975 65.95C11.8163 65.411 11.1248 65.2391 10.6053 65.5399L10.3436 65.6922L9.89047 65.9305L9.45688 66.1883L9.24204 66.3172L9.04673 66.4695L8.82798 66.6023L8.61314 66.7313L8.41783 66.8602L8.20299 67.0086L8.00768 67.1375L7.78893 67.2703L7.59362 67.4227L7.39831 67.5516L7.21465 67.7039ZM63.3196 17.4339C62.972 16.9378 62.2844 16.8285 61.7844 17.1761C61.3118 17.5433 61.2024 18.2347 61.5462 18.7073L61.6126 18.7933L61.7415 18.9886L61.8938 19.1839L62.0266 19.4026L62.1555 19.5979L62.2845 19.8128L62.4134 20.0315L62.5423 20.2229L62.6712 20.4417L62.7766 20.6565L62.9095 20.8714L63.0188 21.0901L63.1478 21.305L63.2571 21.5237L63.3665 21.762L63.4759 21.9768L63.5618 22.1956L63.6282 22.3245C63.886 22.887 64.5345 23.1253 65.0735 22.887C65.636 22.6292 65.8743 21.9807 65.636 21.4182L65.5735 21.2893L65.468 21.051L65.3391 20.7893L65.2298 20.5549L65.1008 20.3166L64.9719 20.0822L64.8391 19.844L64.7102 19.5822L64.5774 19.344L64.429 19.1252L64.3001 18.8908L64.1477 18.6526L64.0188 18.4143L63.8665 18.1994L63.7141 17.9612L63.5618 17.7424L63.3899 17.5276L63.3196 17.4339ZM26.8076 52.4959L26.7451 52.324L26.6162 52.0858L26.5069 51.8475L26.3975 51.6131L26.2881 51.3748L26.2022 51.1365L26.0928 50.8983L26.0069 50.66L25.9209 50.4022L25.835 50.1639L25.749 49.9022L25.6592 49.6639L25.5733 49.4061L25.5069 49.1678L25.4209 48.9061L25.3545 48.6678L25.335 48.6014C25.1826 48.0194 24.5772 47.6717 23.9952 47.8241C23.4131 47.9764 23.0655 48.578 23.2178 49.1639L23.2413 49.2264L23.3077 49.5076L23.4796 50.0701L23.5694 50.3318L23.6553 50.6131L23.7647 50.8943L23.8507 51.1561L23.96 51.4373L24.0694 51.6951L24.1749 51.9764L24.3936 52.4998L24.5225 52.7811L24.6514 53.0389L24.7569 53.3006L24.8663 53.4959C25.128 54.035 25.796 54.2498 26.3351 53.9725C26.8703 53.7029 27.0889 53.035 26.8076 52.4959ZM23.5693 32.4919C24.1748 32.4919 24.6709 31.9958 24.6709 31.3903V30.0309L24.6905 29.7692V29.5114L24.71 29.2536L24.7334 28.9919L24.753 28.7341L24.7764 28.4723L24.7959 28.2145L24.8389 27.9762L24.8624 27.7145L24.9092 27.4528L24.9522 27.2145V27.195C25.0381 26.6091 24.6475 26.0309 24.0459 25.9411C23.4405 25.8356 22.8779 26.2458 22.792 26.8473L22.7256 27.1286L22.7061 27.4098L22.6202 27.9723L22.5811 28.5348L22.5381 28.8161V29.0973L22.5186 29.3981L22.4991 29.6794V29.9606L22.4795 30.2653V31.3903C22.4678 31.9919 22.96 32.4919 23.5693 32.4919ZM23.5693 43.4649C24.1748 43.4649 24.6709 42.9688 24.6709 42.3633V37.9766C24.6709 37.3712 24.1749 36.875 23.5693 36.875C22.9639 36.875 22.4677 37.3711 22.4677 37.9766V42.3633C22.4677 42.9688 22.9599 43.4649 23.5693 43.4649ZM43.5073 10.2619L43.7222 10.2424L43.9839 10.2229H44.5034L44.7652 10.2033H45.2808L45.5425 10.2229H46.062L46.3198 10.2424L46.8433 10.2815L47.3589 10.3205L47.6206 10.3635H47.6636C48.2691 10.4494 48.8081 10.0197 48.8941 9.41427C48.98 8.8088 48.5464 8.26977 47.9449 8.18377H47.8785L47.5972 8.16033L47.316 8.11736L47.0386 8.09783L46.4761 8.05096L46.1753 8.03143L45.8941 8.00799H45.6128L45.3003 8.0158H44.1558L43.8551 8.03924L43.5738 8.05877L43.3355 8.08221C42.734 8.12518 42.2769 8.64471 42.3199 9.24631C42.3629 9.85178 42.9019 10.3049 43.5073 10.2619ZM33.7651 13.6096L33.8706 13.5432L34.0659 13.4143L34.2808 13.2854L34.4761 13.1565L34.6948 13.0276L34.9097 12.8987L35.1284 12.7893L35.3433 12.6604L35.562 12.5549L35.7768 12.4494L35.9917 12.3166L36.2104 12.2112L36.4487 12.1018L36.6675 12.0158L36.9057 11.9104L37.1206 11.801L37.3589 11.7151L37.4643 11.6721C38.0034 11.4338 38.2846 10.8088 38.0503 10.2463C37.8354 9.68379 37.187 9.40254 36.6245 9.64082L36.5151 9.68379L36.2534 9.79317L36.0151 9.89864L35.7573 10.0041L35.519 10.1135L35.2573 10.2424L35.019 10.3713L34.7846 10.4807L34.5229 10.6096L34.0463 10.8674L33.812 10.9963L33.5737 11.1487L33.3588 11.2776L32.8823 11.5823L32.6674 11.7112L32.5385 11.7971C32.0424 12.1448 31.9096 12.8127 32.2573 13.3088C32.5971 13.8283 33.269 13.9573 33.7651 13.6096ZM65.0231 53.8126L65.156 53.5548L65.2849 53.297L65.3903 53.0353L65.5192 52.7775L65.6482 52.4962L65.7536 52.2345L65.863 51.9728L65.9724 51.6915L66.0818 51.4337L66.1911 51.1525L66.2771 50.8908L66.3865 50.6095L66.4529 50.3712C66.6443 49.7892 66.3201 49.1603 65.7615 48.9884C65.1794 48.7931 64.5545 49.0978 64.3787 49.6798L64.2927 49.8986L64.2068 50.1603L64.1208 50.3986L64.0349 50.6564L63.949 50.8947L63.8435 51.133L63.7341 51.3712L63.6482 51.6095L63.5388 51.8439L63.4294 52.0822L63.3005 52.3205L63.1911 52.5587L63.0622 52.7931L62.9529 53.0119L62.8239 53.2501L62.6911 53.465V53.4884C62.3904 54.008 62.5622 54.6759 63.1013 54.9767C63.6208 55.2814 64.2888 55.1056 64.5896 54.5666L64.7419 54.3088L64.8708 54.047L65.0231 53.8126ZM67.5543 43.5506L67.5739 43.4217V39.1639C67.5739 38.5584 67.0778 38.0623 66.4723 38.0623C65.8668 38.0623 65.3707 38.5584 65.3707 39.1639V43.5506C65.3707 44.1561 65.8668 44.6522 66.4723 44.6522C67.0777 44.6522 67.5543 44.1561 67.5543 43.5506ZM53.6163 12.1166L53.8117 12.2065L54.0499 12.3119L54.2648 12.4448L54.6945 12.6557L54.9132 12.7846L55.1281 12.894L55.3468 13.0229L55.5616 13.1518L55.757 13.2807L55.9757 13.4096L56.171 13.5385L56.3859 13.6909L56.5812 13.8237L56.7765 13.9526L56.9952 14.101L57.1905 14.2534C57.6866 14.6206 58.378 14.5346 58.7217 14.0385C59.0889 13.562 59.003 12.8705 58.5069 12.5033L58.2921 12.3315L58.0538 12.1791L57.835 12.0268L57.6163 11.8549L57.3819 11.7026L57.1671 11.5736L56.6905 11.269L56.4757 11.14L56.2374 10.9877L55.5225 10.601L55.2647 10.4721L55.0264 10.3627L54.7882 10.2338L54.5733 10.1244C54.0108 9.86659 53.3624 10.1049 53.1045 10.6635C52.8389 11.2142 53.0773 11.8588 53.6163 12.1166ZM3.60435 72.7806C3.02232 72.6088 2.39345 72.933 2.22155 73.4916L2.15905 73.6869L2.05358 74.0111L1.94811 74.3549L1.86217 74.7025L1.7567 75.0502L1.67076 75.3939L1.58482 75.7416L1.41294 76.4291L1.32701 76.7767L1.20201 77.4721L1.10045 77.8158V77.8783C0.994978 78.4838 1.3817 79.0463 1.96373 79.1517C2.5692 79.2572 3.15123 78.8705 3.26063 78.2884V78.2259L3.32313 77.9017L3.38953 77.5775L3.47547 77.2533L3.53797 76.929L3.62391 76.6048L3.68641 76.2806L3.94422 75.3079L4.0536 74.9837L4.13954 74.6595L4.24501 74.3353L4.28797 74.1595C4.4911 73.5814 4.16685 72.9759 3.60435 72.7806ZM3.21763 88.3396L3.13169 88.1209L3.08872 88.0349L3.00278 87.8162L2.97935 87.7107L2.93638 87.6013L2.89341 87.4959L2.87388 87.3904L2.83091 87.281L2.81138 87.1756L2.79185 87.0662L2.77231 86.9607L2.72935 86.8513L2.70981 86.742L2.69028 86.6091L2.66685 86.4998V86.3943L2.62778 86.1755V86.0466L2.60825 85.9373L2.56919 85.8279V85.5896L2.54966 85.4802V85.2419L2.54575 85.1404V84.9021L2.56528 84.6404C2.56528 84.0349 2.08872 83.5388 1.48718 83.5193C0.881713 83.5193 0.385583 83.9958 0.362183 84.5974V84.988L0.342651 85.1403L0.362183 85.2692V85.7224L0.381713 85.8747V86.0036L0.405151 86.1521L0.424683 86.3044V86.4528L0.444213 86.5856L0.463746 86.738L0.483276 86.8669L0.526246 87.0192L0.545776 87.1716L0.565308 87.3005L0.608276 87.4489L0.627808 87.5778L0.670776 87.7302L0.713746 87.8591L0.733276 88.0114L0.776246 88.1403L0.819213 88.2731L0.862183 88.4255L0.924683 88.5544L0.967651 88.6872L1.01062 88.8161L1.10046 88.9646L1.14343 89.0935L1.20984 89.2224L1.27234 89.3513C1.51062 89.8903 2.15906 90.1521 2.72154 89.8903C3.2606 89.6286 3.52232 88.9841 3.2606 88.445L3.21763 88.3396ZM58.4986 59.5386C58.6041 59.9058 58.9088 60.1636 59.2564 60.273L60.0572 60.4918L60.8775 60.73L61.7408 60.9879L62.6275 61.2496L63.4049 61.4879C63.9869 61.6597 64.5924 61.3121 64.7643 60.73C64.94 60.1675 64.6158 59.5425 64.0299 59.3706L63.2525 59.1324L62.3658 58.8706L61.4791 58.6128L60.6588 58.3745L60.1393 58.2456C59.7291 57.9839 59.1666 58.0074 58.7995 58.3745C58.4752 58.6792 58.3659 59.1089 58.4948 59.4956V59.5191L58.4986 59.5386ZM88.6396 84.7066C88.0342 84.6598 87.5146 85.1168 87.4716 85.7222L87.4482 85.8277V85.9371L87.4248 86.0465V86.1754L87.3857 86.3941L87.3623 86.4996V86.609L87.3193 86.7418L87.2998 86.8512L87.2763 86.9605L87.2568 87.066L87.2333 87.1754L87.1904 87.2809L87.1669 87.3902L87.1474 87.4957L87.1044 87.6012L87.0615 87.7105L87.038 87.8199L86.9912 87.9293L86.9482 88.0387L86.9052 88.1246L86.8193 88.3434L86.7763 88.4488C86.5146 88.9879 86.7763 89.6363 87.3154 89.8941C87.8779 90.1558 88.5263 89.8941 88.7646 89.3551L88.831 89.2262L88.8935 89.0973L88.9364 88.9683L88.9989 88.816L89.0419 88.6871L89.0849 88.5543L89.1279 88.4254L89.1904 88.273L89.2333 88.1402L89.2763 88.0113L89.2958 87.859L89.3388 87.7301L89.3818 87.5777L89.4052 87.4488L89.4482 87.3004L89.4677 87.1715L89.4911 87.0191L89.5341 86.8668L89.5575 86.7379L89.5771 86.5855L89.6005 86.4527V86.3043L89.62 86.1519L89.6435 86.0035V85.8941C89.6943 85.2886 89.2412 84.7496 88.6396 84.7066ZM65.2416 28.3196L65.2651 28.472L65.2846 28.7337L65.3041 28.9915L65.3237 29.2532L65.3432 29.511V29.7688L65.3627 30.0306V32.5775C65.3627 33.1829 65.8588 33.6791 66.4643 33.6791C67.0698 33.6791 67.5659 33.183 67.5659 32.5775V30.5463L67.5464 30.265V29.6791L67.5269 29.3978L67.5073 29.097L67.4839 28.8158L67.4644 28.5345L67.4409 28.2533L67.4214 28.058C67.3589 27.4759 66.8159 27.0424 66.2105 27.1088C65.605 27.1752 65.1752 27.7181 65.2416 28.3196ZM86.7806 78.2256L86.8431 78.5499L86.8861 78.8975L86.9525 79.2217L86.9955 79.4366C87.0853 80.0225 87.6439 80.4288 88.2494 80.3428C88.8548 80.2373 89.2416 79.6748 89.1556 79.0733L89.1126 78.8546L89.0462 78.5069L89.0033 78.1632L88.9408 77.8194L88.8509 77.4717L88.7884 77.1241L88.6986 76.7764L88.6361 76.4288L88.5462 76.085L88.4603 75.7413L88.3705 75.3936L88.2845 75.0499L88.1751 74.7022V74.6592C88.0033 74.0772 87.3783 73.753 86.7923 73.9249C86.2298 74.1006 85.8861 74.7022 86.058 75.2843L86.0775 75.3077L86.3353 76.2803L86.3978 76.6046L86.4837 76.9288L86.5501 77.253L86.6361 77.5772L86.7025 77.9015L86.7806 78.2256ZM84.1204 68.7217L83.9485 68.5694L83.7532 68.4366L83.5775 68.2881L83.3821 68.1358L83.2103 67.9874L83.015 67.8546L82.8236 67.7022L82.6283 67.5499L82.4329 67.421L82.2376 67.2686L82.0189 67.1358L81.8275 67.0069L81.6126 66.8585L81.4173 66.7296L81.1986 66.6006L80.9837 66.4678L80.7923 66.3155L80.554 66.1866L80.4681 66.1436C79.9486 65.8194 79.2806 65.9913 78.9564 66.5342C78.6517 67.0538 78.8275 67.7217 79.347 68.0225L79.433 68.0655L79.6283 68.1944L79.8236 68.3272L80.015 68.4327L80.2103 68.5655L80.6009 68.8233L80.7962 68.9561L80.9681 69.085L81.1634 69.2178L81.3392 69.3467L81.5345 69.4796L82.0501 69.8663L82.2025 69.9952L82.3783 70.1241L82.5306 70.2569L82.7025 70.4092L82.7689 70.4717C83.2454 70.8624 83.9369 70.796 84.3236 70.3428C84.7142 69.8897 84.6712 69.1983 84.1908 68.7881L84.1204 68.7217ZM82.7727 75.2998C83.6985 78.21 84.2219 81.4678 84.3352 84.9756C84.3626 86.335 83.8821 87.5576 82.9446 88.5225C82.0071 89.4874 80.8001 89.9991 79.4563 89.9991H10.5853C9.24153 89.9991 8.03453 89.4874 7.09703 88.5186C6.15953 87.5538 5.67903 86.3311 5.70643 84.9834C5.81581 81.4639 6.34315 78.2061 7.26893 75.2959C7.29236 75.2178 7.32752 75.1436 7.37049 75.0733C9.76889 70.9952 18.2655 66.9874 33.3475 62.8313C33.9217 62.1945 34.6248 60.8508 35.1014 58.093C34.1326 57.3664 33.3866 56.5188 32.8944 55.5657C29.6327 52.304 27.8319 48.0032 27.8319 43.4247V42.8348V42.827L27.8241 30.546C27.8241 21.0655 35.5389 13.351 45.0191 13.351C54.4993 13.351 62.2141 21.0658 62.2141 30.546V42.827V42.8348V43.4208C62.2141 47.9794 60.4133 52.2802 57.1516 55.5618C56.6594 56.511 55.9133 57.3665 54.9446 58.093C55.3391 60.4016 55.925 61.9953 56.6907 62.8274C71.7457 66.9797 80.2497 70.9836 82.6707 75.0694C82.7136 75.1436 82.7493 75.2178 82.7727 75.2998ZM59.9567 44.5378L56.1637 46.1745L57.0153 52.3464C58.7262 50.0573 59.7458 47.3737 59.9567 44.5378ZM33.8747 46.1745L30.0817 44.5378C30.2927 47.3894 31.3122 50.073 33.0231 52.3542L33.8747 46.1745ZM35.3474 44.4089C37.2302 44.5925 38.2615 43.8933 39.5818 42.9714C40.9138 42.0417 42.4256 40.9909 44.9568 40.8503C44.9959 40.8464 45.0389 40.8464 45.0779 40.8503C47.6091 40.991 49.1209 42.0417 50.4529 42.9714C51.7771 43.8933 52.8123 44.5925 54.6873 44.4089L60.0076 42.112L60.0115 30.546C60.0115 22.2804 53.2849 15.554 45.0195 15.554C36.7541 15.554 30.0275 22.2806 30.0275 30.546V42.112L35.3474 44.4089ZM44.7536 58.6119H45.2849C49.8122 58.6119 53.781 57.0221 55.113 54.7174L54.0036 46.651C51.8356 46.6237 50.4333 45.6432 49.195 44.7838C48.0114 43.9596 46.8903 43.1783 45.0192 43.0572C43.1481 43.1744 42.027 43.9557 40.8434 44.7838C39.6051 45.6471 38.2028 46.6236 36.0348 46.651L34.9254 54.7174C36.2574 57.0221 40.2263 58.6119 44.7536 58.6119ZM82.1366 85.0299C82.0312 81.7877 81.5546 78.776 80.7147 76.0885C79.1756 73.6432 73.578 69.7447 55.8317 64.8735C55.6638 64.8267 55.5114 64.7446 55.3825 64.6274C54.2614 63.6079 53.4528 61.8462 52.9294 59.2758C50.8278 60.2524 48.1872 60.807 45.2849 60.807L45.0076 60.8031L44.7537 60.807C41.8514 60.807 39.2107 60.2523 37.1092 59.2758C36.5857 61.8227 35.785 63.5844 34.6639 64.6196C34.5349 64.7368 34.3787 64.8267 34.2068 64.8736C16.4298 69.7525 10.8478 73.6469 9.32383 76.0845C8.48399 78.772 8.00743 81.7838 7.90193 85.0377C7.8863 85.7916 8.13631 86.4282 8.67146 86.979C9.20271 87.5259 9.82766 87.7915 10.5817 87.7915H79.4527C80.2066 87.7915 80.8316 87.5259 81.3629 86.979C81.898 86.4361 82.1483 85.7955 82.1366 85.0299ZM38.5156 50.4249C38.5703 50.4249 38.6211 50.421 38.6719 50.4132C43.1055 49.7804 47.6016 49.7804 52.0349 50.4132C52.6325 50.4991 53.1951 50.0812 53.281 49.4796C53.3669 48.8781 52.9489 48.3194 52.3435 48.2335C47.7029 47.5695 42.9997 47.5695 38.3595 48.2335C37.7579 48.3195 37.34 48.878 37.4259 49.4796C37.5079 50.0265 37.9766 50.4249 38.5156 50.4249ZM52.0426 52.6983C47.6051 53.3116 43.1051 53.3116 38.6676 52.6983C38.0661 52.6163 37.5074 53.0382 37.4254 53.6397C37.3395 54.2413 37.7614 54.7959 38.3629 54.878C40.6832 55.1983 43.0152 55.3585 45.3512 55.3585C47.6871 55.3585 50.0231 55.1983 52.3395 54.878C52.9411 54.796 53.3629 54.2374 53.277 53.6397C53.1989 53.0382 52.6442 52.6202 52.0426 52.6983ZM5.80063 18.4283C5.66391 18.4869 5.51938 18.5143 5.37875 18.5143C4.94516 18.5143 4.535 18.2565 4.35925 17.8346C4.12878 17.2721 4.3905 16.6276 4.95691 16.3932L5.67957 16.0924C5.50379 15.3619 5.48426 14.6627 5.5741 14.0299L4.73426 13.6315C4.18348 13.3697 3.95301 12.7135 4.21082 12.1627C4.47254 11.6119 5.12879 11.3775 5.67962 11.6392L6.37493 11.9673C6.72649 11.4751 7.1679 11.0962 7.64833 10.8579V9.84624C7.64833 9.23686 8.14052 8.74464 8.74993 8.74464C9.35934 8.74464 9.85153 9.23683 9.85153 9.84624V10.8111C9.8984 10.8306 9.94528 10.8423 9.98825 10.8658C10.1914 10.9712 10.3554 11.0962 10.5 11.2212L11.1172 10.8072C11.6211 10.4673 12.3047 10.6001 12.6445 11.108C12.9843 11.6119 12.8476 12.2955 12.3437 12.6353L11.4374 13.2446C11.4413 13.2837 11.4491 13.3267 11.4531 13.3657C11.5234 14.0063 11.5702 14.2759 12.0273 14.5923C12.0624 14.6119 12.1249 14.6431 12.2031 14.6665L12.8007 13.8267C13.1523 13.3306 13.8398 13.2134 14.3359 13.565C14.832 13.9205 14.9492 14.6041 14.5976 15.1002L14.4531 15.3072C15.0664 15.5103 15.6601 15.7838 16.1289 16.19L17.1641 15.8541C17.7461 15.6627 18.3633 15.983 18.5508 16.5572C18.7383 17.1353 18.4219 17.7564 17.8438 17.9478L17.0196 18.2173C17.0078 18.5533 16.9453 18.9048 16.8086 19.272C16.6953 19.5728 16.5196 19.8423 16.3164 20.0963L16.8164 20.733C17.1953 21.2134 17.1094 21.9049 16.6328 22.2799C16.4336 22.4361 16.1914 22.5143 15.9531 22.5143C15.6289 22.5143 15.3047 22.3697 15.086 22.0924L14.5 21.3463C14.0742 21.5025 13.6094 21.6041 13.125 21.6471L13.0781 22.4244C13.043 23.0103 12.5586 23.4635 11.9765 23.4635C11.957 23.4635 11.9336 23.4596 11.9101 23.4596C11.3047 23.4244 10.8398 22.901 10.8749 22.2916L10.9257 21.4361C10.4062 21.2916 9.90231 21.0767 9.41011 20.8033L9.0273 21.3893C8.81636 21.7096 8.4648 21.8853 8.10542 21.8853C7.89839 21.8853 7.68745 21.8268 7.49995 21.7018C6.99214 21.3697 6.85151 20.6862 7.18745 20.1784L7.66011 19.4557C7.2187 19.0065 6.85542 18.5534 6.56241 18.0924L5.80063 18.4283ZM8.05063 16.2799C8.05453 16.2877 8.05844 16.2916 8.06235 16.2956C8.06625 16.3034 8.06625 16.3112 8.07016 16.319C8.32797 16.8854 8.75766 17.5104 9.45686 18.1588C10.4451 19.065 11.4061 19.3815 12.1444 19.4674H12.1483H12.1561C12.3123 19.4869 12.4608 19.4947 12.5936 19.4947C13.703 19.4947 14.5584 18.9908 14.7459 18.5065C14.7928 18.3815 14.867 18.1315 14.8006 17.9986C14.5857 17.5885 13.3592 17.2721 12.6287 17.0846C12.5584 17.0651 12.4919 17.0494 12.4216 17.0299C12.3669 17.0182 12.3162 17.0065 12.2654 16.9908C11.6912 16.8385 11.1873 16.6822 10.8006 16.4283C9.47638 15.5299 9.34748 14.3775 9.26938 13.6158C9.24595 13.3971 9.22251 13.2526 9.19907 13.1432C9.18345 13.1002 9.17173 13.0533 9.16001 13.0065C9.11704 12.901 9.05063 12.8658 8.94517 12.8072C8.9022 12.7838 8.86704 12.776 8.82798 12.776C8.60532 12.776 8.17954 13.0729 7.91782 13.7369C7.76938 14.0846 7.50376 15.0494 8.05063 16.2799ZM84.7576 53.4519L83.9334 53.8347C84.0193 54.4675 83.9998 55.1589 83.824 55.8894L84.5467 56.1902C85.1092 56.4246 85.3748 57.0691 85.1404 57.6277C84.9647 58.0535 84.5545 58.3074 84.1209 58.3074C83.9803 58.3074 83.8397 58.2801 83.6991 58.2215L82.9451 57.909C82.6483 58.3699 82.285 58.823 81.8396 59.2723L82.324 60.0184C82.6561 60.5301 82.5115 61.2098 81.9998 61.5418C81.8162 61.6628 81.6092 61.7214 81.4021 61.7214C81.0389 61.7214 80.6873 61.5418 80.4764 61.2175L80.0936 60.6277C79.6053 60.905 79.1014 61.116 78.5819 61.2644L78.6326 62.1277C78.6678 62.7371 78.2029 63.2566 77.5974 63.2918C77.574 63.2957 77.5506 63.2957 77.531 63.2957C76.9529 63.2957 76.4646 62.8465 76.4294 62.2605L76.3826 61.4753C75.8982 61.4324 75.4411 61.3308 75.0154 61.1746L74.445 61.905C74.2263 62.1824 73.906 62.323 73.5779 62.323C73.3396 62.323 73.0974 62.2488 72.8943 62.0886C72.4138 61.7136 72.3357 61.0183 72.7107 60.5417L73.195 59.9245C72.988 59.6667 72.8122 59.3933 72.699 59.0886C72.5622 58.7253 72.4997 58.3816 72.4841 58.0495L71.656 57.78C71.0779 57.5925 70.7615 56.9714 70.949 56.3933C71.1365 55.8152 71.7576 55.4948 72.3396 55.6862L73.3669 56.0222C73.8356 55.612 74.4333 55.3425 75.0466 55.1355L74.9059 54.9401C74.5505 54.448 74.6638 53.7565 75.1559 53.4049C75.6481 53.0456 76.3395 53.1628 76.695 53.6549L77.2927 54.4831C77.3669 54.4557 77.4294 54.4284 77.4685 54.4049C77.9372 54.0924 77.9841 53.819 78.0622 53.1744C78.0661 53.1393 78.074 53.1002 78.0779 53.0651L77.1599 52.4479C76.6521 52.108 76.5193 51.4245 76.8591 50.9206C77.1989 50.4128 77.8825 50.2799 78.3864 50.6198L79.0153 51.0417C79.1677 50.9089 79.3317 50.7839 79.5388 50.6745C79.5739 50.6549 79.613 50.6471 79.652 50.6276V49.6745C79.652 49.0651 80.1442 48.5729 80.7536 48.5729C81.363 48.5729 81.8552 49.0651 81.8552 49.6745V50.6589C82.3396 50.9011 82.7849 51.28 83.1364 51.78L83.8357 51.4597C84.3864 51.2057 85.0427 51.4479 85.2966 51.9987C85.5505 52.5456 85.3084 53.198 84.7576 53.4519ZM81.5935 53.5183C81.3552 52.909 80.9646 52.616 80.7459 52.5808C80.7224 52.5808 80.699 52.573 80.6716 52.573C80.6482 52.573 80.6287 52.5769 80.5935 52.5926C80.3631 52.7136 80.3279 52.7761 80.2498 53.4168C80.1599 54.1824 80.0271 55.3348 78.7068 56.2137C78.3201 56.4793 77.7966 56.6434 77.199 56.7996H77.1912C77.0818 56.8309 76.9685 56.8582 76.8513 56.8895C76.1248 57.077 74.9099 57.3973 74.699 57.7996C74.6365 57.9246 74.7068 58.1668 74.7576 58.2996C74.9451 58.7879 75.7967 59.2957 76.9021 59.2957C77.5779 59.2957 78.5701 59.1082 79.6248 58.2918C79.6326 58.284 79.6443 58.2762 79.6522 58.2723C79.7811 58.1707 79.91 58.0613 80.0428 57.9441C80.742 57.2996 81.1717 56.6746 81.4334 56.1043C81.4373 56.0965 81.4373 56.0887 81.4412 56.0809C81.4451 56.0731 81.449 56.0692 81.449 56.0614C81.9959 54.8387 81.7302 53.8699 81.5935 53.5183ZM57.2885 3.08833C57.2885 1.38523 58.6752 -0.00146484 60.3783 -0.00146484C62.0814 -0.00146484 63.4681 1.38523 63.4681 3.08833C63.4681 4.79143 62.0814 6.17814 60.3783 6.17814C58.6752 6.17814 57.2885 4.79143 57.2885 3.08833ZM59.4916 3.08833C59.4916 3.58442 59.8822 3.97506 60.3783 3.97506C60.8744 3.97506 61.2651 3.58443 61.2651 3.08833C61.2651 2.59223 60.8744 2.20161 60.3783 2.20161C59.8822 2.20161 59.4916 2.59223 59.4916 3.08833ZM13.1986 52.7333C11.4838 52.7333 10.0892 51.3466 10.0892 49.6435C10.0892 47.9404 11.4837 46.5537 13.1986 46.5537C14.9017 46.5537 16.2884 47.9404 16.2884 49.6435C16.2884 51.3466 14.9017 52.7333 13.1986 52.7333ZM13.1986 50.5302C13.6791 50.5302 14.0853 50.124 14.0853 49.6435C14.0853 49.163 13.6791 48.7568 13.1986 48.7568C12.6986 48.7568 12.2924 49.1552 12.2924 49.6435C12.2924 50.1318 12.6947 50.5302 13.1986 50.5302ZM74.4216 34.3272C74.4216 32.6241 75.8083 31.2374 77.5114 31.2374C79.2145 31.2374 80.6012 32.6241 80.6012 34.3272C80.6012 36.042 79.2145 37.4366 77.5114 37.4366C75.8083 37.4366 74.4216 36.0421 74.4216 34.3272ZM76.6247 34.3272C76.6247 34.8272 77.0193 35.2335 77.5114 35.2335C77.9997 35.2335 78.3982 34.8272 78.3982 34.3272C78.3982 33.8468 77.9919 33.4405 77.5114 33.4405C77.031 33.4405 76.6247 33.8468 76.6247 34.3272ZM78.7028 8.72523C78.9919 8.72523 79.2731 8.61195 79.4802 8.40492C79.6833 8.2018 79.8005 7.91664 79.8005 7.61976C79.8005 7.3307 79.6872 7.04945 79.4802 6.84242C79.07 6.43226 78.3279 6.43226 77.9177 6.84242C77.7145 7.04945 77.6013 7.3307 77.6013 7.61976C77.6013 7.91664 77.7145 8.19007 77.9177 8.40492C78.1325 8.61195 78.4059 8.72523 78.7028 8.72523ZM8.64083 34.8072C8.9338 34.8072 9.21114 34.6861 9.41817 34.4791C9.62129 34.2721 9.73848 33.9908 9.73848 33.7018C9.73848 33.4127 9.6252 33.1315 9.41817 32.9244C9.00801 32.5143 8.26587 32.5143 7.86347 32.9244C7.65644 33.1237 7.53535 33.4088 7.53535 33.7018C7.53535 33.9908 7.64863 34.2721 7.86347 34.4791C8.0705 34.6822 8.34396 34.8072 8.64083 34.8072ZM81.2698 11.1272C81.5667 11.1272 81.8401 11.014 82.0472 10.7991C82.2542 10.5921 82.3675 10.3186 82.3675 10.0218C82.3675 9.73271 82.2542 9.45146 82.0472 9.24443C81.637 8.83427 80.8988 8.83427 80.4925 9.24443C80.2854 9.44755 80.1643 9.73271 80.1643 10.0218C80.1643 10.3226 80.2776 10.5921 80.4925 10.7991C80.6995 11.014 80.973 11.1272 81.2698 11.1272ZM29.2108 5.51004C29.4999 5.51004 29.7733 5.39675 29.9882 5.18191C30.1952 4.97879 30.3085 4.70144 30.3085 4.40457C30.3085 4.11551 30.1952 3.83426 29.9882 3.62723C29.578 3.21707 28.8437 3.21707 28.4257 3.62723C28.2225 3.83426 28.1054 4.11551 28.1054 4.40457C28.1054 4.70145 28.2186 4.97488 28.4257 5.18191C28.6327 5.39675 28.9139 5.51004 29.2108 5.51004ZM86.9958 45.537C86.9958 44.9277 86.5036 44.4354 85.8942 44.4354H85.8708C85.2614 44.4354 84.781 44.9276 84.781 45.537C84.781 46.1425 85.2849 46.6386 85.8943 46.6386C86.5037 46.6386 86.9958 46.1464 86.9958 45.537Z" fill="#1B4965"/>
</svg>
