<svg width="98" height="98" viewBox="0 0 98 98" fill="none" xmlns="http://www.w3.org/2000/svg">
<path d="M7.52739 23.6409C7.52739 22.9027 8.12114 22.305 8.85939 22.305H28.4024C28.7618 22.2972 29.1133 22.4339 29.3711 22.6839C29.629 22.9339 29.7735 23.2777 29.7735 23.641C29.7735 24.0004 29.629 24.3441 29.3711 24.5941C29.1133 24.848 28.7618 24.9847 28.4024 24.973H8.86339C8.50792 24.973 8.16808 24.8324 7.91808 24.5824C7.66808 24.3324 7.52739 23.9925 7.52739 23.6409ZM31.8434 24.9729H33.1364C33.8591 24.9534 34.4333 24.3636 34.4333 23.6409C34.4333 22.9183 33.8591 22.3284 33.1364 22.305H31.8434C31.4801 22.2972 31.1325 22.4339 30.8746 22.6839C30.6168 22.9339 30.4723 23.2777 30.4723 23.641C30.4723 24.0004 30.6168 24.3441 30.8746 24.5941C31.1325 24.848 31.4801 24.9846 31.8434 24.9729ZM8.86339 29.637H25.7854C26.1448 29.6488 26.4924 29.512 26.7502 29.262C27.008 29.012 27.1565 28.6644 27.1565 28.305C27.1565 27.9456 27.008 27.6019 26.7502 27.348C26.4924 27.098 26.1448 26.9613 25.7854 26.973H8.86339C8.14073 26.9925 7.56649 27.5824 7.56649 28.305C7.56649 29.0276 8.14071 29.6175 8.86339 29.637ZM6.77749 49C6.7814 43.8086 9.91029 39.1289 14.7072 37.145C19.5041 35.1611 25.0232 36.2622 28.6912 39.9341C32.3631 43.606 33.4568 49.1255 31.4724 53.9181C29.4841 58.715 24.8044 61.8439 19.6134 61.8439C12.5236 61.8361 6.78149 56.0901 6.77749 49ZM29.6915 50.332H25.0001C24.6407 51.7968 23.6954 53.0508 22.3907 53.8047C21.086 54.5586 19.5274 54.7461 18.0821 54.3282L15.7344 58.3985C18.6524 59.6055 21.9649 59.3868 24.7032 57.8086C27.4376 56.2266 29.2852 53.4648 29.6954 50.332H29.6915ZM16.7345 49C16.7345 50.1641 17.4337 51.2148 18.5118 51.6602C19.586 52.1095 20.8243 51.8634 21.6485 51.0391C22.4727 50.2149 22.7188 48.9766 22.2735 47.8985C21.8282 46.8243 20.7774 46.1212 19.6133 46.1212C18.0235 46.1212 16.7345 47.4102 16.7345 49ZM20.9454 38.922V43.6173C22.9415 44.1134 24.5001 45.672 25.0001 47.6681H29.6954C29.086 43.1134 25.504 39.5314 20.9454 38.922ZM9.44539 49C9.44539 52.1602 10.9142 55.1367 13.422 57.0586L15.7697 52.9922C14.3127 51.5938 13.7345 49.5156 14.258 47.5625C14.7775 45.6133 16.3205 44.1016 18.2814 43.6172V38.9219C13.2267 39.5977 9.45319 43.9025 9.44539 49ZM22.1684 64.031H12.9809C12.2621 64.0506 11.6879 64.6443 11.6879 65.363C11.6879 66.0857 12.2621 66.6755 12.9809 66.6989H22.1684C22.5278 66.7067 22.8793 66.57 23.1371 66.32C23.395 66.07 23.5395 65.7263 23.5395 65.363C23.5395 65.0036 23.395 64.6599 23.1371 64.4099C22.8793 64.156 22.5278 64.0193 22.1684 64.031ZM7.23439 66.699H8.51559C9.23825 66.6756 9.81249 66.0857 9.81249 65.3631C9.81249 64.6444 9.23827 64.0506 8.51559 64.0311H7.23439C6.87501 64.0194 6.52736 64.1561 6.26955 64.41C6.01174 64.66 5.8633 65.0038 5.8633 65.3632C5.8633 65.7264 6.01174 66.0702 6.26955 66.3202C6.52736 66.5702 6.87502 66.7068 7.23439 66.699ZM14.3321 69.1795H7.23439C6.87501 69.1678 6.52736 69.3045 6.26955 69.5545C6.01174 69.8084 5.8633 70.1522 5.8633 70.5116C5.8633 70.8709 6.01174 71.2186 6.26955 71.4686C6.52736 71.7186 6.87502 71.8553 7.23439 71.8436H14.3321C14.6915 71.8553 15.0391 71.7186 15.2969 71.4686C15.5587 71.2186 15.7032 70.8709 15.7032 70.5116C15.7032 70.1522 15.5587 69.8084 15.2969 69.5545C15.0391 69.3045 14.6915 69.1678 14.3321 69.1795ZM37.1441 39.9525H49.6441C50.3785 39.9525 50.9761 39.3588 50.9761 38.6205C50.9761 37.8823 50.3784 37.2885 49.6441 37.2885H37.1441C36.4097 37.2885 35.8121 37.8823 35.8121 38.6205C35.8121 39.3588 36.4098 39.9525 37.1441 39.9525ZM42.4449 44.6127C42.4449 45.351 43.0426 45.9486 43.7808 45.9486H54.5308C55.2495 45.9252 55.8238 45.3354 55.8238 44.6127C55.8238 43.8901 55.2496 43.3002 54.5308 43.2807H43.7808C43.4253 43.2807 43.0855 43.4214 42.8355 43.6714C42.5855 43.9214 42.4449 44.2612 42.4449 44.6127ZM37.1441 45.9486H39.4996C39.859 45.9564 40.2105 45.8197 40.4683 45.5697C40.7262 45.3197 40.8707 44.9721 40.8707 44.6127C40.8707 44.2533 40.7262 43.9096 40.4683 43.6557C40.2105 43.4057 39.859 43.2689 39.4996 43.2807H37.1441C36.4253 43.3002 35.8511 43.89 35.8511 44.6127C35.8511 45.3353 36.4253 45.9252 37.1441 45.9486ZM25.7811 31.6326H14.3551C13.6324 31.6522 13.0582 32.242 13.0582 32.9646C13.0582 33.6873 13.6324 34.2771 14.3551 34.2966H25.7851C26.1445 34.3083 26.4921 34.1716 26.7499 33.9216C27.0077 33.6677 27.1562 33.324 27.1562 32.9646C27.1562 32.6052 27.0077 32.2576 26.7499 32.0076C26.4921 31.7576 26.1445 31.6209 25.7851 31.6326L25.7811 31.6326ZM8.86309 34.3045H10.9217C11.6444 34.2811 12.2186 33.6913 12.2186 32.9686C12.2186 32.246 11.6444 31.6561 10.9217 31.6366H8.86309C8.14043 31.6562 7.56619 32.246 7.56619 32.9686C7.56619 33.6913 8.14041 34.2811 8.86309 34.3045ZM36.0701 29.7498C36.0701 28.7029 36.7029 27.7576 37.6717 27.3553C38.6404 26.953 39.7537 27.1756 40.4959 27.9178C41.2342 28.6561 41.4568 29.7733 41.0545 30.742C40.656 31.7108 39.7107 32.3397 38.66 32.3397C37.2303 32.3397 36.074 31.1794 36.0701 29.7498ZM38.5857 29.7498C38.5857 29.8162 38.6677 29.8475 38.7146 29.8006C38.7615 29.7537 38.7302 29.6756 38.6599 29.6756C38.6209 29.6717 38.5857 29.7069 38.5857 29.7498ZM42.4919 29.7498C42.4919 28.7029 43.1247 27.7576 44.0935 27.3553C45.0622 26.953 46.1755 27.1756 46.9177 27.9178C47.6599 28.6561 47.8786 29.7733 47.4802 30.742C47.0779 31.7108 46.1325 32.3397 45.0857 32.3397C43.656 32.3397 42.4959 31.1794 42.4919 29.7498ZM45.0114 29.7498C45.0114 29.8162 45.0895 29.8475 45.1364 29.8006C45.1833 29.7537 45.152 29.6756 45.0856 29.6756C45.0426 29.6717 45.0075 29.7069 45.0114 29.7498ZM48.9176 29.7498C48.9176 28.699 49.5465 27.7537 50.5153 27.3514C51.484 26.953 52.6012 27.1717 53.3434 27.9139C54.0856 28.6561 54.3043 29.7733 53.9059 30.742C53.5036 31.7108 52.5582 32.3397 51.5075 32.3397C50.0778 32.3397 48.9176 31.1794 48.9176 29.7498ZM51.4332 29.7498C51.4332 29.8162 51.5152 29.8475 51.5621 29.8006C51.609 29.7537 51.5738 29.6756 51.5074 29.6756C51.4645 29.6717 51.4332 29.7069 51.4332 29.7498ZM38.1053 59.6798V72.7068C38.1053 73.0584 37.9647 73.3982 37.7147 73.6482C37.4647 73.8982 37.1248 74.0389 36.7733 74.0389H31.6444C31.2889 74.0389 30.9491 73.8982 30.6991 73.6482C30.4491 73.3982 30.3084 73.0584 30.3084 72.7068V59.6798C30.3084 58.9416 30.9061 58.3439 31.6443 58.3439H36.7732C37.1248 58.3439 37.4646 58.4846 37.7146 58.7346C37.9646 58.9846 38.1053 59.3244 38.1053 59.6798ZM35.4412 61.0118H32.9764V71.3748H35.4412V61.0118ZM47.1602 61.34V72.707C47.1602 73.4413 46.5625 74.0389 45.8282 74.0389H40.6954C39.961 74.0389 39.3634 73.4413 39.3634 72.707V61.34C39.3634 60.6017 39.9611 60.0041 40.6954 60.0041H45.8282C46.5626 60.0041 47.1602 60.6017 47.1602 61.34ZM44.4922 62.672H42.0274V71.3712H44.4922V62.672ZM37.1445 51.949H54.5315C55.2502 51.9255 55.8245 51.3357 55.8245 50.6131C55.8245 49.8904 55.2503 49.3006 54.5315 49.2811H37.1445C36.4257 49.3006 35.8515 49.8904 35.8515 50.6131C35.8515 51.3357 36.4257 51.9256 37.1445 51.949ZM96.8595 71.2299C96.4064 71.6479 95.9064 72.0151 95.3751 72.3277C95.086 72.4995 94.8087 72.6948 94.5431 72.9058C95.0118 73.1245 95.3087 73.5933 95.3087 74.1128V79.5073C95.3087 85.1831 92.0587 89.8233 86.1329 92.6443V94.5466C86.1329 96.1677 84.8165 97.4802 83.1954 97.4802H63.1294C61.5083 97.4802 60.1919 96.1677 60.1919 94.5466V92.6443C56.0669 90.6795 53.2427 87.8357 51.9067 84.3787H1.38668C0.648401 84.3787 0.0507812 83.781 0.0507812 83.0428V9.19477C0.0507812 8.8393 0.191401 8.49946 0.441401 8.24946C0.695311 7.99946 1.03124 7.85884 1.38671 7.85884H8.03901V1.85104C8.03901 1.11276 8.63667 0.519043 9.37101 0.519043H69.152C69.5075 0.519043 69.8473 0.659663 70.0973 0.909663C70.3473 1.15966 70.4879 1.4956 70.484 1.85107V55.2181C72.3785 55.6985 73.8278 57.2181 74.2184 59.1283C76.277 59.3627 77.9879 60.8236 78.5426 62.8197C80.3317 62.7923 82.0973 63.1947 83.6988 63.9916C84.2379 64.2611 84.7535 64.5697 85.2457 64.9213C85.5934 63.8705 86.3551 62.9994 87.3473 62.5111C89.57 61.2572 93.3473 60.8978 94.3629 61.3861C95.5035 61.9368 97.4801 65.1361 97.859 67.5306H97.8629C98.1872 68.8548 97.8087 70.2534 96.8595 71.2299ZM75.9925 65.937C72.9456 66.9565 70.7308 69.601 70.262 72.7767H71.3948C71.3948 72.7533 71.3948 72.7299 71.4026 72.7025V72.7064C71.5354 71.9799 72.2307 71.4994 72.9534 71.6322L76.7307 72.3197L75.8674 69.7533V69.7494C75.7385 69.4135 75.7541 69.0346 75.9104 68.7103C76.0666 68.3822 76.3479 68.1322 76.6916 68.015C77.0315 67.9017 77.4065 67.9291 77.7307 68.0971C78.0511 68.265 78.2893 68.5541 78.3948 68.9017L79.2581 71.4681L81.8519 68.64C82.3519 68.1088 83.1839 68.0775 83.723 68.5736C84.262 69.0658 84.3011 69.8978 83.8167 70.4447L83.1956 71.1205L86.2854 70.0814C84.3401 66.3548 79.973 64.5971 75.9925 65.937ZM63.5475 72.7808V72.7768C63.3014 72.6401 63.0319 72.5464 62.7506 72.4995C59.1178 71.7808 59.1725 69.3745 59.2076 67.937H59.2115C59.235 67.5229 59.2193 67.1089 59.1646 66.6987C59.149 66.6089 59.0982 66.3393 58.5826 66.019C57.1217 65.3471 55.5084 65.0893 53.9146 65.2651C52.981 66.6167 52.4263 68.187 52.3052 69.8237C52.3404 70.3706 52.5357 70.5307 52.5982 70.5815H52.6021C52.9341 70.8276 53.2896 71.0425 53.6646 71.2182C54.4654 71.5581 55.1685 72.0971 55.7076 72.7768H56.7818L54.4654 68.8666H54.4693C54.2779 68.5619 54.2154 68.1948 54.3013 67.8432C54.3873 67.4917 54.6099 67.1909 54.9185 67.0073C55.2271 66.8276 55.5982 66.7768 55.9458 66.8706C56.2935 66.9643 56.5864 67.1948 56.7622 67.5073L59.8794 72.7768L63.5475 72.7808ZM52.5315 60.8078C52.5315 60.1437 52.6604 59.4875 52.9143 58.8742H51.0862V64.7883C51.2034 64.5734 51.3245 64.3664 51.4417 64.1828C51.6604 63.3625 52.0862 62.6125 52.6722 61.9992C52.5784 61.6086 52.5315 61.2101 52.5315 60.8078ZM67.5745 72.7767C67.8518 70.2572 68.9807 67.9096 70.7737 66.1166C70.4104 65.3041 69.9456 64.5463 69.3831 63.8549C67.7464 63.8275 66.1292 64.2377 64.7034 65.0424C64.2659 65.3744 64.2425 65.6244 64.2346 65.7064C64.2112 66.1205 64.2307 66.5345 64.2932 66.9447C64.5081 67.9916 64.3518 69.0814 63.8557 70.0306C64.7268 70.2533 65.4924 70.7845 66.008 71.5267C66.2541 71.9056 66.4182 72.3275 66.4885 72.7728L67.5745 72.7767ZM69.2503 57.7378C68.719 57.7338 68.2034 57.9096 67.7815 58.2378C67.4065 58.5268 66.9026 58.5971 66.4651 58.4174C66.0237 58.2378 65.7112 57.8354 65.6487 57.3627C65.4377 55.8705 64.1604 54.7572 62.6526 54.7494C61.1448 54.7455 59.8596 55.8471 59.637 57.3392C59.5862 57.6986 59.387 58.0228 59.0901 58.2338C58.7932 58.4447 58.4221 58.5228 58.0628 58.4525C57.9105 58.4252 57.7542 58.4096 57.598 58.4096C56.7777 58.4096 56.0121 58.8353 55.5707 59.5307C55.1332 60.226 55.0785 61.0971 55.4339 61.8432C55.5433 62.0697 55.5863 62.3236 55.555 62.5736C56.8558 62.6283 58.1331 62.9096 59.3362 63.4017C60.3245 63.7924 61.1253 64.5462 61.5745 65.5072V65.4486C61.7425 64.1517 62.5628 63.0307 63.7503 62.4799C65.8987 61.269 69.555 60.9213 70.5433 61.3979C71.5785 62.1908 72.3949 63.2377 72.9144 64.437C73.6176 64.0112 74.3636 63.6674 75.1371 63.4057C75.3715 63.3276 75.6098 63.2612 75.8481 63.1948C75.3988 62.1753 74.3051 61.601 73.2114 61.8081C72.7973 61.8823 72.3754 61.7612 72.0669 61.48C71.7583 61.1948 71.5981 60.7847 71.6411 60.3667C71.6489 60.2886 71.6528 60.2104 71.6528 60.1323C71.6489 58.8081 70.5745 57.7378 69.2503 57.7378ZM48.8283 21.5388H57.2541L48.8283 13.1052V21.5388ZM59.8363 20.3474V10.5271H50.0199L59.8363 20.3474ZM10.7033 7.85935H61.1683C61.5238 7.85935 61.8597 7.99997 62.1097 8.24997C62.3597 8.49997 62.5003 8.83981 62.5003 9.19528V52.0863H62.6409C64.8206 52.0941 66.805 53.3363 67.7659 55.2933L67.8206 55.2777V3.18366H10.7036L10.7033 7.85935ZM51.1873 81.7113C51.074 80.9809 51.0154 80.2466 51.0154 79.5083V77.6997H29.6094C29.25 77.7075 28.8985 77.5707 28.6407 77.3207C28.3829 77.0707 28.2383 76.727 28.2383 76.3637C28.2383 76.0043 28.3829 75.6606 28.6407 75.4106C28.8985 75.1567 29.25 75.02 29.6094 75.0317H51.0154V74.1098V74.0356H49.7537L49.7498 74.0395C49.3982 74.0395 49.0584 73.8989 48.8084 73.6489C48.5584 73.3989 48.4178 73.059 48.4178 72.7075V57.5435C48.4178 57.188 48.5584 56.8481 48.8084 56.5981C49.0584 56.3481 49.3982 56.2114 49.7498 56.2114H54.8826C55.031 56.2114 55.1795 56.2349 55.3162 56.2856C55.9412 55.9692 56.6209 55.7856 57.3162 55.7466C57.7967 54.5161 58.6873 53.4849 59.8396 52.8286V24.1956L47.4956 24.1995C47.1401 24.1995 46.8003 24.0589 46.5503 23.8089C46.3003 23.5589 46.1597 23.2229 46.1558 22.8675V10.5275H2.71776V81.7115L51.1873 81.7113ZM83.4683 94.5473V93.1568H62.8553V94.5473C62.8592 94.6958 62.9803 94.813 63.1287 94.8169H83.1947C83.3432 94.813 83.4644 94.6958 83.4683 94.5473ZM92.6441 75.4454H53.6831V79.5079C53.6831 85.8477 58.7104 89.0821 61.894 90.4879H84.437C87.6128 89.0777 92.6479 85.8434 92.6479 79.5079L92.6441 75.4454ZM95.2769 68.3672H95.273C95.0113 66.6992 94.2964 65.1328 93.2105 63.8438C91.4878 63.8087 89.7886 64.2384 88.2847 65.0822C87.8081 65.4454 87.7808 65.7228 87.773 65.8204C87.7495 66.254 87.7691 66.6876 87.8316 67.1173C87.8472 67.2697 87.8628 67.4259 87.8784 67.5822H87.8823C88.5034 68.4689 88.9917 69.4416 89.3354 70.465C89.5659 71.1642 89.1909 71.9181 88.4917 72.1486L86.6245 72.7814H91.6323C91.9878 71.5939 92.8276 70.6095 93.9487 70.0744C94.3237 69.8556 94.6752 69.6017 94.9995 69.3127C95.0815 69.2423 95.3042 69.0274 95.2769 68.3672Z" fill="#1B4965"/>
</svg>
