<svg width="80" height="68" viewBox="0 0 80 68" fill="none" xmlns="http://www.w3.org/2000/svg">
<path d="M76.169 34.5519C76.168 34.5519 76.167 34.5519 76.166 34.5519L68.159 34.5609C68.206 34.2549 68.202 33.9379 68.134 33.6129C67.761 31.8349 65.69 30.2449 64.064 29.9299C63.895 29.8969 63.716 29.8769 63.531 29.8649C63.345 28.7539 62.915 27.8929 62.266 27.4139C61.802 27.0709 60.996 26.7559 59.801 27.1959C59.667 27.2449 59.578 27.3529 59.516 27.4759C58.712 27.3279 57.888 27.4409 57.159 27.8369L55.567 28.7099C54.899 29.0729 54.384 29.6289 54.06 30.2999C53.307 29.9099 52.568 29.6959 52.134 29.6379C51.676 29.5769 49.933 29.6179 47.847 29.6959C47.8 28.7589 47.742 27.9139 47.68 27.1649C47.867 27.4079 48.066 27.5899 48.271 27.7409C48.647 28.2429 49.089 28.4119 49.42 28.4419C49.491 28.4479 49.563 28.4509 49.635 28.4509C51.292 28.4509 53.056 26.8089 53.211 25.0559C53.328 23.7359 53.014 22.5489 52.878 22.1079C53.139 21.3179 54.241 17.9519 54.492 16.7619C54.753 15.5269 54.411 11.6859 52.716 11.2649C51.959 11.0769 51.153 11.3069 50.61 11.8659C50.21 12.2779 49.611 13.2289 50.096 14.9639C50.54 16.5529 50.705 17.7309 50.362 19.0029C50.339 18.8689 50.316 18.7359 50.295 18.6039C49.95 16.4839 49.758 15.6089 49.114 14.8239C48.564 14.1529 45.441 12.3749 44.627 11.9179L44.511 10.5659C45.726 9.57294 45.949 8.23794 46.122 7.15994L45.727 7.07094L45.728 7.06194L46.127 7.12594C46.153 6.96194 46.105 6.79494 45.994 6.67194C45.939 6.60994 45.873 6.56394 45.8 6.53294L45.878 5.95994C45.928 5.95694 45.977 5.95194 46.026 5.93494C46.195 5.87594 46.325 5.73894 46.374 5.56694C46.4 5.47694 46.992 3.33994 45.857 1.83494C45.171 0.926942 44.04 0.465942 42.493 0.465942C40.863 0.465942 39.675 0.931943 38.96 1.85094C37.895 3.22194 38.345 5.05394 38.364 5.13194C38.402 5.27894 38.5 5.40094 38.632 5.47394L38.601 5.69994C38.582 5.70794 38.561 5.70594 38.543 5.71594C38.397 5.79494 38.293 5.93594 38.262 6.09894C38.142 6.73594 38.143 7.70694 38.464 8.69594C38.485 8.77894 38.518 8.85694 38.545 8.93694C38.548 8.94394 38.55 8.95094 38.553 8.95794C38.684 9.34094 38.866 9.70194 39.112 10.0179L38.531 11.2079C38.49 11.2099 38.448 11.2119 38.407 11.2239C37.3 11.5539 33.634 12.6759 32.951 13.2369C32.285 13.7839 31.924 14.4669 31.371 15.8899C31.4 15.7099 31.44 15.5369 31.492 15.3689C31.828 14.2779 32.019 12.6919 31.452 11.8159C31.227 11.4679 30.905 11.2589 30.518 11.2109C29.975 11.1449 29.307 11.4679 28.711 12.1049C27.95 12.9169 27.241 14.3219 27.53 15.8279C27.674 16.5739 27.879 17.3549 28.077 18.1109C28.414 19.3959 28.755 20.7169 28.78 21.8209C28.582 22.3549 28.271 23.3709 28.271 24.5139C28.271 25.5619 28.852 26.6099 29.663 27.3259C29.836 27.5879 30.078 27.8259 30.431 27.9489C30.551 27.9909 30.676 28.0129 30.803 28.0229C31.113 28.1389 31.429 28.2209 31.747 28.2209C32.138 28.2209 32.703 28.0729 33.174 27.3649C33.355 27.0919 33.502 26.7609 33.614 26.4039C33.656 26.3609 33.696 26.3249 33.739 26.2799C33.793 26.2219 33.835 26.1539 33.86 26.0789L33.874 26.0389C33.759 27.6889 33.641 29.5019 33.571 30.9129C31.905 31.1659 30.104 31.4669 28.395 31.7549C25.188 32.2949 22.158 32.8049 21.088 32.8049C21.077 32.8049 21.067 32.8049 21.055 32.8049C20.869 32.8049 20.719 32.9159 20.618 33.0649C20.005 32.5359 19.157 31.6179 18.706 30.9789C18.581 30.8009 18.471 30.5499 18.365 30.3079C18.11 29.7279 17.638 28.6469 16.535 29.1019C15.679 29.4549 15.922 31.4909 16.277 33.1359C16.336 33.4069 16.381 33.7969 16.432 34.2139C16.449 34.3539 16.466 34.4879 16.483 34.6219L3.82002 34.6369C2.03802 34.6389 0.59102 36.3609 0.59302 38.4749V43.1999C0.59302 43.3459 0.652019 43.4769 0.745019 43.5759C1.14702 45.1519 2.36902 46.3109 3.82602 46.3099C3.82602 46.3099 3.82702 46.3099 3.82802 46.3099L12.69 46.2999L12.707 61.8599C12.477 61.9899 12.257 62.1399 12.065 62.3329C11.514 62.8859 11.211 63.6199 11.212 64.3999C11.212 65.1809 11.518 65.9149 12.07 66.4659C12.622 67.0169 13.355 67.3199 14.134 67.3199C14.135 67.3199 14.136 67.3199 14.137 67.3199C14.918 67.3189 15.651 67.0139 16.202 66.4619C16.753 65.9089 17.056 65.1749 17.055 64.3939C17.055 63.6139 16.749 62.8799 16.197 62.3289C16.005 62.1369 15.784 61.9879 15.554 61.8579L15.55 57.8599L18.06 57.8569V66.2399C18.06 66.9539 18.641 67.5349 19.355 67.5349H61.123C61.837 67.5349 62.418 66.9539 62.418 66.2399V57.8049L64.472 57.8029L64.476 61.8029C63.587 62.3059 62.979 63.2489 62.98 64.3409C62.98 65.1219 63.286 65.8559 63.838 66.4069C64.39 66.9569 65.123 67.2599 65.902 67.2599C65.903 67.2599 65.904 67.2599 65.905 67.2599C66.686 67.2599 67.42 66.9539 67.971 66.4019C68.522 65.8489 68.825 65.1149 68.825 64.3339C68.823 63.2419 68.213 62.3009 67.324 61.7999L67.307 46.2369L76.169 46.2259C77.053 46.2249 77.877 45.8109 78.489 45.0589C78.829 44.6409 79.069 44.1399 79.219 43.6009C79.326 43.5009 79.395 43.3599 79.395 43.2019V38.3839C79.399 36.2689 77.949 34.5519 76.169 34.5519ZM76.174 45.1239L62.423 45.1399V44.1109L62.223 39.6699L76.167 39.6539C76.167 39.6539 76.168 39.6539 76.169 39.6539C77.343 39.6539 78.299 40.8799 78.302 42.3859C78.302 43.1369 78.069 43.8389 77.643 44.3619C77.243 44.8529 76.721 45.1229 76.174 45.1239ZM66.229 61.4449C66.122 61.4329 66.018 61.4129 65.908 61.4129C65.907 61.4129 65.906 61.4129 65.905 61.4129C65.794 61.4129 65.689 61.4339 65.582 61.4459L65.566 46.2369L66.214 46.2359L66.229 61.4449ZM65.908 66.1569C65.422 66.1569 64.965 65.9679 64.621 65.6249C64.276 65.2809 64.086 64.8239 64.085 64.3369C64.084 63.3319 64.901 62.5129 65.905 62.5119C65.906 62.5119 65.906 62.5119 65.907 62.5119C66.911 62.5119 67.729 63.3289 67.73 64.3329C67.73 64.8199 67.541 65.2779 67.197 65.6219C66.853 65.9669 66.396 66.1569 65.909 66.1579C65.909 66.1569 65.909 66.1569 65.908 66.1569ZM62.423 56.7029V56.0549L64.475 56.0529L64.476 56.7009L62.423 56.7029ZM61.324 66.2379C61.324 66.3449 61.236 66.4329 61.129 66.4329H19.361C19.254 66.4329 19.166 66.3449 19.166 66.2379V44.1539L19.415 36.5859C19.738 36.4879 20.08 36.4119 20.441 36.3849C20.448 36.3959 20.451 36.4069 20.458 36.4179C20.533 36.5299 20.646 36.6099 20.777 36.6439C21.31 36.7809 23.527 36.7639 27.701 36.6809L28.737 36.6609C29.578 36.6399 31.073 36.8899 32.664 37.1489C34.335 37.4209 36.124 37.7009 37.641 37.7819C37.833 38.5309 38.312 38.9829 38.97 38.9829C38.978 38.9829 38.986 38.9829 38.994 38.9829C40.039 38.9659 40.712 38.6499 41.025 38.4589C42.014 38.5159 45.77 38.6839 47.501 38.1009C47.637 38.2319 47.794 38.3399 47.997 38.3879C48.162 38.4269 48.442 38.4499 48.805 38.4499C50.348 38.4499 53.364 38.0259 55.15 36.6009C55.541 37.2969 56.149 37.9089 57.103 38.1969C57.962 38.4559 58.984 38.6049 60.082 38.6049C60.406 38.6049 60.738 38.5869 61.073 38.5599L61.324 44.1359V66.2379ZM15.962 64.3939C15.962 64.8799 15.774 65.3379 15.43 65.6829C15.086 66.0279 14.629 66.2179 14.142 66.2189C14.141 66.2189 14.141 66.2189 14.14 66.2189C13.654 66.2189 13.197 66.0299 12.853 65.6859C12.508 65.3419 12.318 64.8849 12.317 64.3969C12.317 63.9109 12.505 63.4529 12.849 63.1079C13.193 62.7629 13.65 62.5729 14.137 62.5719C14.138 62.5719 14.138 62.5719 14.139 62.5719C14.625 62.5719 15.082 62.7609 15.426 63.1039C15.771 63.4489 15.961 63.9069 15.962 64.3939ZM14.14 61.4739C14.139 61.4739 14.138 61.4739 14.137 61.4739C14.027 61.4739 13.921 61.4939 13.813 61.5059L13.797 46.2979L14.445 46.2969L14.461 61.5049C14.353 61.4929 14.248 61.4739 14.14 61.4739ZM3.83102 45.2099C2.65702 45.2099 1.70102 43.9839 1.69802 42.4779C1.69702 40.9699 2.65102 39.7419 3.82602 39.7399L18.211 39.7229L18.066 44.1359V45.1929L3.83302 45.2099C3.83302 45.2099 3.83202 45.2099 3.83102 45.2099ZM17.812 31.6119C17.828 31.6349 19.082 33.3149 20.204 34.1359C20.107 34.4889 20.046 34.8929 20.082 35.3139C19.473 35.3949 18.933 35.5769 18.483 35.7339C18.279 35.8049 18.018 35.8959 17.856 35.9289C17.711 35.5709 17.596 34.6199 17.53 34.0819C17.475 33.6269 17.422 33.2019 17.358 32.9049C17.086 31.6439 17.026 30.6169 17.078 30.1759C17.172 30.3139 17.287 30.5759 17.363 30.7489C17.484 31.0269 17.623 31.3429 17.812 31.6119ZM38.06 31.4709C37.908 32.4969 37.721 34.1799 37.853 35.5739C37.672 35.8669 37.581 36.2819 37.553 36.6859C36.112 36.5939 34.362 36.3109 32.839 36.0629C31.126 35.7839 29.644 35.5389 28.716 35.5609L27.678 35.5809C25.865 35.6169 22.265 35.6889 21.263 35.6059C21.029 35.0409 21.266 34.3419 21.44 33.8929C22.78 33.8159 25.49 33.3589 28.58 32.8389C32.028 32.2589 35.872 31.6139 38.06 31.4709ZM29.516 12.8569C29.934 12.4099 30.271 12.2719 30.384 12.3029C30.414 12.3059 30.466 12.3129 30.53 12.4139C30.767 12.7809 30.817 13.8279 30.442 15.0469C29.914 16.7619 30.338 18.6709 31.327 21.5309C31.101 21.6899 30.65 21.8579 29.881 21.5809C29.818 20.4039 29.475 19.0989 29.143 17.8319C28.949 17.0939 28.749 16.3309 28.612 15.6199C28.401 14.5199 28.967 13.4439 29.516 12.8569ZM51.156 14.6689C50.906 13.7759 50.992 13.0529 51.399 12.6339C51.67 12.3549 52.074 12.2399 52.45 12.3339C53.075 12.4889 53.698 15.1989 53.415 16.5359C53.184 17.6309 52.133 20.8519 51.848 21.7169C51.74 21.7239 51.536 21.7139 51.19 21.6239C50.85 21.5369 50.646 21.4349 50.529 21.3619C52.09 18.6919 51.756 16.8189 51.156 14.6689ZM52.115 24.9609C52.005 26.1979 50.649 27.4439 49.517 27.3469C49.451 27.3409 49.25 27.3229 49.039 26.9369C48.569 26.0749 48.608 24.4629 48.88 23.9459C49.163 23.4089 49.607 22.7369 49.926 22.2719C50.158 22.4259 50.472 22.5749 50.915 22.6899C51.272 22.7819 51.563 22.8189 51.802 22.8189C51.85 22.8189 51.882 22.8079 51.926 22.8049C52.048 23.3039 52.191 24.1009 52.115 24.9609ZM51.988 30.7289C52.396 30.7839 53.079 31.0079 53.735 31.3789C53.631 32.1329 53.756 32.8959 54.127 33.5769C54.399 34.0769 54.786 34.4839 55.241 34.7989C54.125 37.0849 48.958 37.4829 48.26 37.3199C48.243 37.3089 48.227 37.2839 48.211 37.2589C48.122 36.8939 48.067 36.1579 48.038 35.5649C48.042 35.5179 48.044 35.4709 48.049 35.4229C48.058 35.3419 48.046 35.2649 48.022 35.1919C48.017 35.0689 48.014 34.9559 48.012 34.8739C48.009 34.7139 47.936 34.5639 47.813 34.4619C47.69 34.3599 47.529 34.3179 47.372 34.3429C47.188 34.3739 42.977 35.0829 41.01 35.6989C39.966 35.3909 39.332 35.2609 38.928 35.2099C38.852 33.8979 39.051 32.2119 39.216 31.2049C44.047 30.9449 51.14 30.6159 51.988 30.7289ZM63.854 31.0099C65.112 31.2529 66.785 32.5419 67.057 33.8389C67.207 34.5529 66.908 35.1579 66.142 35.6869C63.313 37.6409 59.637 37.8119 57.419 37.1429C56.626 36.9039 56.19 36.3499 55.945 35.7689C56.053 35.6179 56.148 35.4589 56.23 35.2909C56.241 35.2939 56.251 35.3009 56.263 35.3039C56.599 35.4029 56.943 35.4519 57.284 35.4519C57.565 35.4519 57.845 35.4129 58.119 35.3469C58.17 35.3619 58.223 35.3739 58.276 35.3739C58.348 35.3739 58.42 35.3599 58.488 35.3319C58.866 35.1739 59.336 35.0529 59.834 34.9249C61.38 34.5259 63.499 33.9789 63.623 31.6819C63.636 31.4459 63.639 31.2179 63.635 30.9949C63.704 31.0039 63.789 30.9979 63.854 31.0099ZM76.169 35.6509C77.343 35.6509 78.299 36.8759 78.301 38.3819V39.5299C77.73 38.9299 76.988 38.5539 76.168 38.5539C76.167 38.5539 76.166 38.5539 76.166 38.5539L62.174 38.5709L62.167 38.4199C63.731 38.1539 65.335 37.5819 66.767 36.5919C67.168 36.3149 67.483 36.0009 67.717 35.6609L76.167 35.6509C76.168 35.6509 76.168 35.6509 76.169 35.6509ZM62.423 46.2399L64.465 46.2379L64.474 54.9529L62.423 54.9549V46.2399ZM18.066 46.2929V55.0079L15.553 55.0109L15.544 46.2959L18.066 46.2929ZM45.785 18.2449L45.717 19.3429L44.915 19.2929L44.865 20.0949L43.767 20.0269L43.817 19.2249L43.015 19.1749L43.083 18.0769L43.885 18.1269L43.935 17.3249L45.033 17.3929L44.983 18.1949L45.785 18.2449ZM30.632 22.8239C31.192 22.8239 31.619 22.6469 31.936 22.4309C32.204 22.8489 32.504 23.3569 32.685 23.7899C32.911 24.3289 32.807 25.9379 32.263 26.7559C32.019 27.1219 31.818 27.1219 31.751 27.1219C30.618 27.1219 29.373 25.7579 29.373 24.5159C29.373 23.8109 29.518 23.1469 29.662 22.6619C30.016 22.7719 30.341 22.8239 30.632 22.8239ZM38.975 37.8819C38.904 37.8879 38.85 37.8749 38.781 37.7549C38.574 37.3889 38.625 36.6379 38.725 36.2869C39.149 36.3389 40.087 36.5719 40.856 36.8029C40.965 36.8359 41.081 36.8339 41.188 36.7979C42.589 36.3309 45.626 35.7679 46.933 35.5359C46.954 35.9939 46.993 36.6079 47.062 37.0959C45.799 37.4859 42.73 37.4669 40.905 37.3479C40.777 37.3429 40.632 37.3849 40.525 37.4679C40.505 37.4839 40.004 37.8649 38.975 37.8819ZM61.611 28.2989C62.259 28.7769 62.609 30.0509 62.524 31.6229C62.449 33.0119 61.302 33.4109 59.559 33.8599C59.327 33.9199 59.101 33.9779 58.882 34.0409C59.098 33.6019 59.472 33.0089 59.73 32.5989C60.033 32.1189 60.336 31.6359 60.558 31.2089C60.626 31.0789 60.639 30.9269 60.594 30.7879C60.469 30.3979 60.473 29.1089 60.518 28.1259C60.959 28.0259 61.319 28.0829 61.611 28.2989ZM57.683 28.8029C58.213 28.5139 58.815 28.4399 59.4 28.5689C59.377 29.3019 59.374 30.2809 59.487 30.8789C59.29 31.2349 59.044 31.6249 58.799 32.0129C58.229 32.9179 57.734 33.7039 57.626 34.3219C57.278 34.3709 56.922 34.3529 56.574 34.2499C55.936 34.0619 55.41 33.6359 55.092 33.0519C54.775 32.4679 54.704 31.7959 54.892 31.1579C55.08 30.5199 55.506 29.9939 56.09 29.6769L57.683 28.8029ZM43.54 12.1299C43.541 12.1369 43.544 12.1429 43.545 12.1499C42.91 12.5109 41.873 12.9889 41.098 12.9099C40.449 12.8459 39.824 12.3389 39.414 11.9099L39.909 10.8949C40.28 11.2149 40.721 11.5019 41.252 11.7339C41.322 11.7649 41.397 11.7799 41.472 11.7799C41.504 11.7799 41.536 11.7779 41.568 11.7719C42.324 11.6389 42.945 11.4459 43.461 11.2109L43.54 12.1299ZM39.357 4.25994C39.337 3.76894 39.404 3.06994 39.833 2.52194C40.329 1.88894 41.224 1.56694 42.493 1.56694C43.674 1.56694 44.51 1.87894 44.976 2.49494C45.443 3.11094 45.485 3.93794 45.436 4.52794C44.754 4.16594 43.673 3.71494 42.519 3.71494C41.331 3.71394 40.091 4.03294 39.357 4.25994ZM44.693 6.50594C43.506 6.50694 41.332 6.42894 39.681 5.92894L39.769 5.28594C40.443 5.08194 41.521 4.81394 42.52 4.81394C43.406 4.81394 44.264 5.16394 44.837 5.45994L44.693 6.50594ZM44.929 7.60694C44.668 8.95494 44.144 10.1539 41.543 10.6579C39.582 9.71994 39.294 7.93394 39.294 6.96494C41.226 7.56394 43.739 7.61794 44.929 7.60694ZM16.661 35.7219C16.816 36.4449 17.055 36.9389 17.545 37.0249C17.611 37.0369 17.677 37.0419 17.745 37.0419C17.919 37.0419 18.105 37.0039 18.302 36.9479L18.247 38.6239L3.82502 38.6399C3.00702 38.6409 2.26702 39.0159 1.69802 39.6149V38.4749C1.69702 36.9669 2.65102 35.7389 3.82602 35.7369L16.661 35.7219ZM15.554 56.1099L18.066 56.1069V56.7549L15.555 56.7579L15.554 56.1099ZM57.817 40.0579C58.118 40.0999 58.328 40.3779 58.286 40.6789C58.244 40.9789 57.973 41.1859 57.665 41.1479C47.12 39.6729 22.924 42.6549 22.681 42.6859C22.658 42.6889 22.635 42.6899 22.613 42.6899C22.34 42.6899 22.102 42.4859 22.068 42.2079C22.03 41.9069 22.245 41.6319 22.546 41.5939C23.543 41.4699 47.128 38.5689 57.817 40.0579Z" fill="#1B4965"/>
</svg>
