<svg width="80" height="90" viewBox="0 0 80 90" fill="none" xmlns="http://www.w3.org/2000/svg">
<path d="M51.023 68.707C50.2661 68.707 49.5262 68.9315 48.8969 69.352C48.2675 69.7725 47.777 70.3702 47.4874 71.0695C47.1977 71.7688 47.1219 72.5383 47.2696 73.2806C47.4172 74.023 47.7817 74.7049 48.3169 75.2401C48.8522 75.7753 49.5341 76.1398 50.2764 76.2875C51.0188 76.4352 51.7883 76.3594 52.4876 76.0697C53.1869 75.7801 53.7846 75.2895 54.2051 74.6602C54.6256 74.0308 54.85 73.2909 54.85 72.534C54.849 71.5194 54.4454 70.5466 53.728 69.8291C53.0105 69.1116 52.0377 68.7081 51.023 68.707ZM51.023 74.361C50.6617 74.361 50.3085 74.2539 50.008 74.0531C49.7076 73.8524 49.4734 73.567 49.3351 73.2332C49.1968 72.8994 49.1607 72.532 49.2312 72.1776C49.3016 71.8232 49.4757 71.4977 49.7312 71.2421C49.9867 70.9866 50.3122 70.8126 50.6666 70.7421C51.021 70.6716 51.3884 70.7078 51.7222 70.8461C52.0561 70.9844 52.3414 71.2186 52.5421 71.519C52.7429 71.8195 52.85 72.1727 52.85 72.534C52.8495 73.0184 52.6569 73.4828 52.3143 73.8253C51.9718 74.1678 51.5074 74.3605 51.023 74.361Z" fill="#1B4965"/>
<path d="M61.5059 74.7681C60.7493 74.7681 60.0095 74.9924 59.3803 75.4127C58.7511 75.833 58.2605 76.4304 57.9707 77.1294C57.6809 77.8284 57.6049 78.5976 57.7521 79.3398C57.8994 80.0821 58.2634 80.764 58.7981 81.2994C59.3328 81.8348 60.0142 82.1997 60.7563 82.3479C61.4983 82.4962 62.2676 82.4211 62.967 82.1322C63.6664 81.8433 64.2644 81.3536 64.6856 80.7249C65.1067 80.0962 65.332 79.3568 65.333 78.6001C65.3332 77.5845 64.9303 76.6105 64.2126 75.8919C63.495 75.1734 62.5215 74.7691 61.5059 74.7681ZM61.5059 80.4221C61.1444 80.4221 60.791 80.3148 60.4904 80.1138C60.1899 79.9128 59.9557 79.6272 59.8175 79.2931C59.6794 78.9589 59.6435 78.5913 59.7144 78.2368C59.7853 77.8823 59.9598 77.5567 60.2158 77.3014C60.4719 77.0461 60.7979 76.8725 61.1526 76.8026C61.5073 76.7326 61.8748 76.7695 62.2086 76.9086C62.5423 77.0476 62.8273 77.2826 63.0275 77.5837C63.2276 77.8848 63.3339 78.2385 63.333 78.6001C63.3308 79.0835 63.1375 79.5465 62.7952 79.8878C62.4529 80.2292 61.9894 80.4213 61.5059 80.4221Z" fill="#1B4965"/>
<path d="M69.1639 68.5181C69.1639 67.5947 68.89 66.692 68.3769 65.9243C67.8638 65.1566 67.1345 64.5582 66.2813 64.205C65.4281 63.8519 64.4893 63.7596 63.5837 63.9401C62.6781 64.1205 61.8464 64.5655 61.1937 65.2187C60.541 65.872 60.0968 66.7041 59.9171 67.6099C59.7374 68.5156 59.8304 69.4543 60.1844 70.3072C60.5383 71.1601 61.1372 71.8889 61.9054 72.4013C62.6736 72.9138 63.5765 73.1869 64.4999 73.1861C65.7369 73.184 66.9226 72.6914 67.7969 71.8163C68.6712 70.9412 69.1628 69.7551 69.1639 68.5181ZM64.4999 71.1861C63.9722 71.1861 63.4564 71.0296 63.0176 70.7365C62.5789 70.4433 62.2369 70.0266 62.035 69.5391C61.833 69.0516 61.7802 68.5151 61.8831 67.9976C61.9861 67.4801 62.2402 67.0047 62.6133 66.6315C62.9865 66.2584 63.4618 66.0043 63.9794 65.9014C64.4969 65.7984 65.0334 65.8513 65.5209 66.0532C66.0084 66.2551 66.4251 66.5971 66.7182 67.0358C67.0114 67.4746 67.1679 67.9904 67.1679 68.5181C67.1671 69.2255 66.8857 69.9036 66.3856 70.4038C65.8854 70.904 65.2072 71.1853 64.4999 71.1861Z" fill="#1B4965"/>
<path d="M73.983 76.5129C74.8526 75.6649 75.3987 74.5398 75.527 73.3319C75.3989 72.1238 74.8528 70.9983 73.983 70.15C73.5781 69.7159 73.2462 69.2191 73 68.6789C72.8705 68.0694 72.8418 67.4428 72.915 66.8239C73.1104 65.6548 72.8967 64.454 72.31 63.424C71.5068 62.5431 70.4242 61.9663 69.245 61.7909C68.6414 61.6723 68.0614 61.4554 67.528 61.149C67.0799 60.7406 66.7013 60.262 66.407 59.732C65.8746 58.6539 64.9837 57.7948 63.887 57.3019C62.7398 57.067 61.5467 57.234 60.508 57.7749C59.9293 58.0391 59.3117 58.208 58.679 58.2749C58.0464 58.208 57.4288 58.0391 56.85 57.7749C55.8112 57.2357 54.619 57.0687 53.472 57.3019C52.3756 57.7951 51.4847 58.6541 50.952 59.732C50.6577 60.262 50.2791 60.7406 49.831 61.149C49.2972 61.4552 48.7169 61.6721 48.113 61.7909C46.9342 61.9664 45.8519 62.5432 45.049 63.424C44.4621 64.4539 44.2481 65.6546 44.443 66.8239C44.5163 67.4424 44.4876 68.0688 44.358 68.6779C44.113 69.219 43.7809 69.7163 43.375 70.15C42.5059 70.9986 41.9602 72.124 41.832 73.3319C41.9605 74.5396 42.5061 75.6645 43.375 76.5129C43.7809 76.9466 44.113 77.4439 44.358 77.9849C44.4876 78.5945 44.5163 79.2211 44.443 79.8399C44.2479 81.0092 44.462 82.2101 45.049 83.2399C45.8517 84.1205 46.9335 84.6973 48.112 84.8729C48.7159 84.9916 49.2963 85.2085 49.83 85.5149C50.2783 85.9235 50.657 86.4025 50.951 86.9329C51.4837 88.0107 52.3746 88.8698 53.471 89.3629C54.6183 89.5958 55.8108 89.4289 56.85 88.8899C57.4286 88.6254 58.0463 88.4565 58.679 88.3899C59.3117 88.4565 59.9294 88.6254 60.508 88.8899C61.2842 89.2404 62.1172 89.4484 62.967 89.5039C63.2789 89.5057 63.589 89.4581 63.886 89.3629C64.983 88.8701 65.8742 88.011 66.407 86.9329C66.7011 86.4025 67.0797 85.9235 67.528 85.5149C68.0613 85.2083 68.6414 84.9914 69.245 84.8729C70.424 84.698 71.5064 84.1211 72.309 83.2399C72.8967 82.2103 73.1108 81.0092 72.915 79.8399C72.8418 79.2211 72.8705 78.5945 73 77.9849C73.2458 77.4443 73.5778 76.9471 73.983 76.5129ZM72.432 75.2499C71.8621 75.8684 71.4106 76.5864 71.1 77.3679C70.8838 78.2075 70.8225 79.0794 70.919 79.941C71.0444 80.6544 70.9664 81.3887 70.694 82.0599C70.1355 82.5321 69.4545 82.8362 68.73 82.9369C67.886 83.1084 67.0804 83.4327 66.353 83.8939C65.6972 84.4387 65.1471 85.0994 64.73 85.843C64.271 86.552 63.796 87.2859 63.271 87.4569C62.5611 87.5025 61.8525 87.3502 61.224 87.0169C60.4219 86.6534 59.5601 86.4392 58.681 86.385C57.802 86.4392 56.9402 86.6534 56.138 87.0169C55.5097 87.3505 54.801 87.5029 54.091 87.4569C53.565 87.2859 53.091 86.557 52.632 85.843C52.215 85.0994 51.6649 84.4387 51.009 83.8939C50.2817 83.4327 49.4761 83.1084 48.632 82.9369C47.9076 82.8362 47.2266 82.5321 46.668 82.0599C46.3956 81.3887 46.3177 80.6544 46.443 79.941C46.5394 79.0791 46.4784 78.207 46.263 77.3669C45.9511 76.5859 45.499 75.8684 44.929 75.2499C44.385 74.7309 44.0044 74.0643 43.834 73.3319C44.0041 72.5992 44.3848 71.9322 44.929 71.413C45.4982 70.7957 45.9496 70.0796 46.261 69.3C46.4764 68.4603 46.5373 67.5884 46.441 66.7269C46.3155 66.0135 46.3935 65.2791 46.666 64.608C47.2245 64.1348 47.906 63.8303 48.631 63.73C49.4748 63.5585 50.28 63.2342 51.007 62.773C51.6626 62.2281 52.213 61.5679 52.631 60.8249C53.09 60.1149 53.564 59.3809 54.09 59.2109C54.7998 59.1656 55.5083 59.3175 56.137 59.6499C56.9387 60.0141 57.8002 60.2283 58.679 60.2819C59.5582 60.2282 60.42 60.014 61.222 59.6499C61.8508 59.3175 62.5593 59.1656 63.269 59.2109C63.794 59.3809 64.269 60.1109 64.728 60.8249C65.1456 61.5684 65.6961 62.2291 66.352 62.774C67.0787 63.2348 67.8837 63.5588 68.727 63.73C69.4521 63.8303 70.1336 64.1348 70.692 64.608C70.9646 65.2791 71.0426 66.0135 70.917 66.7269C70.8212 67.5886 70.8832 68.4605 71.1 69.3C71.4112 70.0814 71.8634 70.799 72.434 71.4169C72.9779 71.9365 73.3585 72.6034 73.529 73.3359C73.3569 74.0669 72.9757 74.732 72.432 75.2499Z" fill="#1B4965"/>
<path d="M57.2051 71.538C57.3281 71.4919 57.4408 71.422 57.5368 71.3323C57.6328 71.2426 57.7101 71.1348 57.7645 71.0152C57.8188 70.8956 57.849 70.7665 57.8534 70.6352C57.8578 70.5039 57.8363 70.373 57.7901 70.25L57.3701 69.129C57.3262 69.0033 57.2576 68.8876 57.1684 68.7888C57.0792 68.69 56.9712 68.6099 56.8507 68.5534C56.7301 68.4968 56.5995 68.4649 56.4665 68.4596C56.3334 68.4542 56.2007 68.4754 56.0759 68.522C55.9512 68.5686 55.8371 68.6397 55.7402 68.731C55.6433 68.8223 55.5656 68.9321 55.5117 69.0538C55.4578 69.1755 55.4287 69.3068 55.4262 69.4399C55.4237 69.573 55.4478 69.7053 55.4971 69.829L55.9171 70.95C55.9631 71.0731 56.033 71.1859 56.1226 71.282C56.2123 71.3781 56.32 71.4555 56.4396 71.51C56.5593 71.5644 56.6884 71.5947 56.8198 71.5992C56.9511 71.6036 57.0821 71.5822 57.2051 71.536V71.538Z" fill="#1B4965"/>
<path d="M55.9171 62.993C55.961 63.1187 56.0296 63.2343 56.1188 63.3332C56.208 63.432 56.316 63.5121 56.4365 63.5686C56.5571 63.6251 56.6877 63.657 56.8207 63.6624C56.9538 63.6678 57.0865 63.6466 57.2112 63.5999C57.336 63.5533 57.4501 63.4823 57.547 63.391C57.6439 63.2997 57.7216 63.1899 57.7755 63.0682C57.8294 62.9464 57.8585 62.8152 57.861 62.682C57.8635 62.5489 57.8394 62.4166 57.7901 62.293L57.3701 61.172C57.3262 61.0463 57.2576 60.9306 57.1684 60.8318C57.0792 60.7329 56.9712 60.6529 56.8507 60.5963C56.7301 60.5398 56.5995 60.5079 56.4665 60.5025C56.3334 60.4971 56.2007 60.5184 56.0759 60.565C55.9512 60.6116 55.8371 60.6827 55.7402 60.774C55.6433 60.8653 55.5656 60.975 55.5117 61.0968C55.4578 61.2185 55.4287 61.3498 55.4262 61.4829C55.4237 61.616 55.4478 61.7483 55.4971 61.872L55.9171 62.993Z" fill="#1B4965"/>
<path d="M58.5 83.6C58.4032 83.3571 58.2151 83.1618 57.976 83.0559C57.7369 82.95 57.4659 82.942 57.221 83.0335C56.976 83.125 56.7767 83.3089 56.6657 83.5456C56.5546 83.7823 56.5408 84.0531 56.627 84.3L57.047 85.421C57.0909 85.5466 57.1594 85.6623 57.2486 85.7612C57.3378 85.86 57.4459 85.94 57.5664 85.9966C57.687 86.0531 57.8176 86.085 57.9506 86.0904C58.0836 86.0958 58.2164 86.0745 58.3411 86.0279C58.4658 85.9813 58.58 85.9103 58.6769 85.819C58.7738 85.7276 58.8515 85.6179 58.9054 85.4962C58.9593 85.3744 58.9884 85.2432 58.9909 85.11C58.9934 84.9769 58.9693 84.8446 58.92 84.721L58.5 83.6Z" fill="#1B4965"/>
<path d="M49.4001 78.494C49.3033 78.2511 49.1152 78.0558 48.8761 77.9499C48.6371 77.844 48.366 77.836 48.1211 77.9275C47.8762 78.0191 47.6769 78.2029 47.5658 78.4396C47.4548 78.6764 47.4409 78.9472 47.5271 79.194L47.9471 80.315C47.991 80.4407 48.0596 80.5564 48.1488 80.6552C48.238 80.7541 48.346 80.8341 48.4666 80.8906C48.5871 80.9472 48.7177 80.9791 48.8508 80.9844C48.9838 80.9898 49.1166 80.9686 49.2413 80.922C49.366 80.8754 49.4801 80.8043 49.577 80.713C49.6739 80.6217 49.7516 80.512 49.8055 80.3902C49.8594 80.2685 49.8885 80.1372 49.891 80.0041C49.8935 79.871 49.8694 79.7387 49.8201 79.615L49.4001 78.494Z" fill="#1B4965"/>
<path d="M69.1001 74.8551C69.0033 74.6122 68.8152 74.4169 68.5761 74.311C68.337 74.2051 68.066 74.1971 67.8211 74.2886C67.5761 74.3802 67.3768 74.564 67.2658 74.8007C67.1547 75.0374 67.1409 75.3082 67.2271 75.5551L67.6471 76.6761C67.7184 76.8668 67.8462 77.0313 68.0134 77.1475C68.1807 77.2636 68.3794 77.3259 68.5831 77.3261C68.7033 77.3258 68.8225 77.3042 68.9351 77.2621C69.0581 77.216 69.1708 77.146 69.2668 77.0563C69.3627 76.9666 69.4401 76.8589 69.4944 76.7393C69.5488 76.6197 69.579 76.4905 69.5834 76.3592C69.5878 76.2279 69.5663 76.0971 69.5201 75.9741L69.1001 74.8551Z" fill="#1B4965"/>
<path d="M77.7501 57.481C77.9772 57.4829 78.1981 57.4074 78.3765 57.2671C78.555 57.1267 78.6804 56.9297 78.732 56.7086C78.7837 56.4875 78.7586 56.2554 78.6608 56.0505C78.5631 55.8456 78.3985 55.68 78.1941 55.581C41.6881 37.581 1.43111 55.381 1.02811 55.567C0.791362 55.6794 0.608167 55.8802 0.517938 56.1262C0.427708 56.3722 0.437654 56.6438 0.545635 56.8826C0.653616 57.1213 0.851004 57.3082 1.09533 57.4029C1.33966 57.4976 1.61141 57.4926 1.85211 57.389C2.24611 57.211 41.6661 39.796 77.3091 57.375C77.446 57.4437 77.5969 57.48 77.7501 57.481Z" fill="#1B4965"/>
<path d="M79.308 49.2761C76.1057 45.8013 72.2197 43.0259 67.894 41.1241C59.3905 37.1673 50.2332 34.8042 40.877 34.1521L41.652 33.3761C42.1989 33.6095 42.8032 33.6738 43.3871 33.5608C43.9709 33.4478 44.5076 33.1627 44.928 32.7421L69.016 8.6541C69.8839 7.75269 70.3635 6.54668 70.3516 5.29538C70.3398 4.04408 69.8374 2.8474 68.9525 1.96262C68.0676 1.07784 66.8708 0.575621 65.6195 0.563929C64.3682 0.552238 63.1623 1.03201 62.261 1.9001L38.173 25.9871C37.7544 26.407 37.4702 26.942 37.3566 27.524C37.243 28.106 37.3051 28.7085 37.535 29.2551L32.745 34.0451C20.203 34.6451 9.15797 38.7701 0.786967 45.9821C0.585667 46.1553 0.461411 46.4013 0.441532 46.6661C0.421654 46.9309 0.50778 47.1928 0.680967 47.3941C0.854153 47.5954 1.10021 47.7197 1.36501 47.7395C1.62981 47.7594 1.89167 47.6733 2.09297 47.5001C9.62197 41.0101 19.436 37.1301 30.6 36.1901L26.01 40.7801H22.91C22.6448 40.7801 22.3904 40.8855 22.2029 41.073C22.0153 41.2605 21.91 41.5149 21.91 41.7801C21.91 42.0453 22.0153 42.2997 22.2029 42.4872C22.3904 42.6747 22.6448 42.7801 22.91 42.7801H44.18C44.4452 42.7801 44.6995 42.6747 44.8871 42.4872C45.0746 42.2997 45.18 42.0453 45.18 41.7801C45.18 41.5149 45.0746 41.2605 44.8871 41.073C44.6995 40.8855 44.4452 40.7801 44.18 40.7801H34.258L39 36.0361C48.7108 36.4845 58.2402 38.8285 67.051 42.9361C71.1275 44.7225 74.791 47.3316 77.812 50.6001C77.9881 50.799 78.236 50.9198 78.5012 50.9359C78.7663 50.9521 79.0271 50.8622 79.226 50.6861C79.4249 50.51 79.5457 50.2621 79.5618 49.9969C79.5779 49.7317 79.4881 49.471 79.312 49.2721L79.308 49.2761ZM63.675 3.3131C64.2001 2.81429 64.8993 2.54038 65.6235 2.54977C66.3477 2.55917 67.0396 2.85114 67.5516 3.36341C68.0637 3.87567 68.3553 4.56771 68.3643 5.29192C68.3733 6.01614 68.099 6.71523 67.6 7.2401L51.083 23.7591L47.156 19.8331L63.675 3.3131ZM39.587 27.4001L45.742 21.2461L49.668 25.1721L43.514 31.3271C43.3288 31.5114 43.0782 31.6149 42.817 31.6149C42.5557 31.6149 42.3051 31.5114 42.12 31.3271L39.587 28.8001C39.4947 28.7084 39.4215 28.5993 39.3715 28.4792C39.3215 28.359 39.2958 28.2302 39.2958 28.1001C39.2958 27.97 39.3215 27.8412 39.3715 27.721C39.4215 27.6009 39.4947 27.4918 39.587 27.4001ZM28.837 40.7801L38.791 30.8271L40.082 32.1181L31.432 40.7801H28.837Z" fill="#1B4965"/>
<path d="M0.439941 75.8101C0.439941 76.0753 0.545298 76.3296 0.732835 76.5172C0.920371 76.7047 1.17472 76.8101 1.43994 76.8101H39.3599C39.6252 76.8101 39.8795 76.7047 40.0671 76.5172C40.2546 76.3296 40.3599 76.0753 40.3599 75.8101C40.3599 75.5448 40.2546 75.2905 40.0671 75.103C39.8795 74.9154 39.6252 74.8101 39.3599 74.8101H1.43994C1.17472 74.8101 0.920371 74.9154 0.732835 75.103C0.545298 75.2905 0.439941 75.5448 0.439941 75.8101Z" fill="#1B4965"/>
<path d="M19.7419 61.4551C19.7421 60.5631 19.4778 59.691 18.9823 58.9492C18.4869 58.2074 17.7826 57.6292 16.9585 57.2877C16.1344 56.9462 15.2276 56.8567 14.3527 57.0306C13.4778 57.2045 12.6741 57.634 12.0432 58.2647C11.4124 58.8954 10.9828 59.699 10.8087 60.5739C10.6346 61.4488 10.7238 62.3556 11.0651 63.1798C11.4065 64.0039 11.9845 64.7083 12.7262 65.204C13.4679 65.6996 14.3399 65.9641 15.2319 65.9641C16.4274 65.9625 17.5735 65.487 18.4189 64.6417C19.2643 63.7965 19.7401 62.6506 19.7419 61.4551ZM12.7219 61.4551C12.7217 60.9586 12.8688 60.4732 13.1445 60.0603C13.4201 59.6474 13.8121 59.3256 14.2707 59.1354C14.7293 58.9453 15.234 58.8955 15.721 58.9922C16.2079 59.0889 16.6553 59.3279 17.0064 59.6789C17.3575 60.0299 17.5967 60.4771 17.6936 60.9641C17.7906 61.451 17.7409 61.9557 17.551 62.4144C17.361 62.8731 17.0393 63.2652 16.6265 63.541C16.2137 63.8169 15.7284 63.9641 15.2319 63.9641C14.5666 63.9633 13.9288 63.6987 13.4583 63.2284C12.9878 62.7581 12.723 62.1204 12.7219 61.4551Z" fill="#1B4965"/>
<path d="M33.7181 66.3729C34.9795 66.3729 36.2126 65.9988 37.2614 65.2979C38.3101 64.597 39.1275 63.6008 39.61 62.4353C40.0926 61.2699 40.2186 59.9875 39.9722 58.7503C39.7259 57.5132 39.1181 56.3769 38.2259 55.4853C37.3336 54.5936 36.197 53.9866 34.9597 53.7409C33.7224 53.4953 32.4401 53.6222 31.2749 54.1055C30.1097 54.5887 29.1141 55.4067 28.4138 56.4559C27.7136 57.5052 27.3403 58.7385 27.3411 59.9999C27.3442 61.6898 28.0172 63.3096 29.2126 64.5042C30.4079 65.6988 32.0281 66.3708 33.7181 66.3729ZM33.7181 55.6189C34.5836 55.6189 35.4297 55.8755 36.1494 56.3563C36.8691 56.8371 37.4301 57.5204 37.7615 58.32C38.0929 59.1195 38.1798 59.9994 38.0113 60.8483C37.8427 61.6973 37.4262 62.4772 36.8145 63.0895C36.2028 63.7018 35.4232 64.119 34.5744 64.2883C33.7256 64.4576 32.8457 64.3715 32.0458 64.0409C31.246 63.7102 30.5621 63.1498 30.0807 62.4305C29.5992 61.7113 29.3419 60.8654 29.3411 59.9999C29.3411 58.8387 29.8021 57.725 30.6228 56.9035C31.4435 56.082 32.5568 55.62 33.7181 55.6189Z" fill="#1B4965"/>
<path d="M21.436 70.0409C21.4362 70.7365 21.6427 71.4164 22.0292 71.9946C22.4158 72.5728 22.9652 73.0235 23.6078 73.2895C24.2505 73.5556 24.9576 73.6251 25.6398 73.4893C26.3219 73.3534 26.9485 73.0184 27.4403 72.5265C27.932 72.0346 28.2669 71.4079 28.4025 70.7257C28.5382 70.0435 28.4684 69.3364 28.2022 68.6938C27.936 68.0512 27.4852 67.502 26.9069 67.1156C26.3285 66.7292 25.6486 66.5229 24.953 66.5229C24.0204 66.524 23.1263 66.895 22.467 67.5546C21.8076 68.2141 21.4368 69.1083 21.436 70.0409ZM26.47 70.0409C26.4698 70.3409 26.3807 70.6341 26.2139 70.8835C26.0471 71.1328 25.8101 71.3271 25.5329 71.4418C25.2557 71.5564 24.9507 71.5863 24.6565 71.5277C24.3623 71.469 24.0921 71.3245 23.88 71.1123C23.6679 70.9001 23.5236 70.6298 23.4651 70.3355C23.4067 70.0413 23.4368 69.7363 23.5516 69.4592C23.6665 69.182 23.8609 68.9452 24.1103 68.7785C24.3598 68.6119 24.653 68.5229 24.953 68.5229C25.3554 68.5235 25.7411 68.6836 26.0255 68.9682C26.3099 69.2528 26.4698 69.6386 26.47 70.0409Z" fill="#1B4965"/>
</svg>
