<svg width="98" height="60" viewBox="0 0 98 60" fill="none" xmlns="http://www.w3.org/2000/svg">
<path d="M0.9508 20.983C0.2957 20.9445 0.354299 19.9484 1.0094 19.9869C10.4121 20.5428 18.5997 18.3332 26.7039 13.5577C32.3953 10.204 36.4936 5.44789 42.7459 2.73521C44.5576 1.94915 46.9457 0.935347 49.6275 0.488807C52.348 0.0358274 55.3561 0.165506 58.3522 1.69311C59.9301 2.49759 61.7095 2.83731 63.3128 3.14341C66.2177 3.69801 68.6014 4.15317 68.7518 6.79675C68.932 9.96671 66.5017 11.2655 63.5613 11.836C60.4719 12.4353 57.7239 12.2209 54.7528 11.6952C53.8487 11.5353 52.9407 11.3678 52.0233 11.313C50.3634 11.129 49.0812 13.258 50.1725 13.9362C50.5081 14.1447 50.8559 14.4872 51.4446 14.6817C52.7442 15.2911 54.9917 15.7108 57.2173 16.1263C59.3798 16.53 62.8893 16.9278 64.5363 18.6296C68.2949 18.5119 72.14 18.2864 75.8858 18.3344C81.1205 18.4015 86.4699 18.4617 91.6751 19.0192C98.6675 19.7681 99.5351 28.7289 90.4629 28.1642C86.8339 27.9382 84.6995 27.8197 82.8752 27.8126C79.4876 27.7993 76.0475 28.2406 72.6351 28.3763C69.4441 28.503 67.0828 28.5969 67.012 29.3994C67.0005 29.5297 67.9916 29.6636 69.6394 29.8089C71.7168 29.992 74.6447 30.0539 77.9578 30.1239C82.3889 30.2175 86.9494 30.6059 91.3128 30.638C94.2572 30.6597 96.1624 31.815 97.0059 33.264C97.3594 33.8712 97.528 34.5312 97.5111 35.1866C97.4941 35.8448 97.2905 36.4933 96.8999 37.0744C95.9897 38.4285 93.1289 39.3613 90.1845 39.1963C86.0758 38.966 82.0233 38.8402 77.9217 38.6503C74.3653 38.4856 70.9683 38.4148 68.5916 38.5335C68.3489 38.5456 68.1186 38.5582 67.9017 38.5712C75.4139 39.3553 82.7105 38.9398 90.0917 39.503C95.9474 39.9498 96.3516 46.2143 91.8891 47.6457C90.193 48.1897 88.134 47.9297 86.3767 47.7923C85.2364 47.7032 83.9492 47.6026 82.4723 47.5438C83.832 48.0524 84.2295 49.1016 84.2967 50.4008C84.3736 51.8894 83.6511 54.1874 78.0772 55.7684C76.5002 56.2158 73.9443 56.4727 70.6524 56.4727C67.6775 56.4727 64.0837 56.2639 60.0505 55.7972C59.6057 56.6964 59.2232 57.5367 58.4394 58.1975C55.0159 61.0832 47.2457 58.576 42.9476 57.709C37.0328 56.5158 29.8113 56.8486 23.7396 57.3543C18.1813 57.8173 12.4732 58.5682 7.01614 59.7274C6.37382 59.8635 6.16688 58.8869 6.8091 58.7508C8.72938 58.3429 10.9876 57.935 13.4471 57.5612C7.01876 48.982 5.45526 31.3263 6.62656 20.9844C4.83938 21.0933 2.94942 21.1012 0.9508 20.983ZM49.9217 10.9523C49.658 10.8899 49.4088 10.8222 49.1766 10.7486C48.5498 10.5507 48.8506 9.59761 49.4774 9.79545C49.842 9.91117 50.2473 10.01 50.6828 10.0949C51.6913 10.2915 52.683 10.3467 53.6953 10.503C53.4541 10.2385 53.2664 9.95803 53.1374 9.67609C52.865 9.08007 53.7713 8.66599 54.0436 9.26201C54.2438 9.69925 54.6633 10.1434 55.2668 10.4869C57.0837 11.5209 61.4338 11.2318 63.3738 10.8555C65.6391 10.416 67.9851 9.43365 67.7342 6.90059C67.5427 4.96733 65.5496 4.58675 63.1252 4.12389C61.4542 3.80485 59.5997 3.45077 57.8991 2.58375C56.3272 1.78229 54.7477 1.39707 53.2129 1.29045C52.6419 1.25083 52.0308 1.17741 51.5415 1.54615C51.328 1.70697 51.1453 1.94735 51.0455 2.29169C50.9361 2.66931 50.3619 2.50297 50.4713 2.12529C50.5665 1.79697 50.7174 1.53423 50.9005 1.32691C50.526 1.36299 50.1561 1.41247 49.7915 1.47317C47.2175 1.90177 44.8996 2.88601 43.1404 3.64929C37.3128 6.17771 33.577 10.4078 28.3912 13.6978C34.8605 14.3641 41.3572 26.3839 47.3114 24.1369C48.9458 21.2317 50.0686 18.0634 50.6746 15.4134C50.518 15.333 50.3693 15.2512 50.2289 15.1682C49.5864 14.8268 49.0955 14.5936 48.4852 14.6793C47.8351 14.7692 47.6985 13.7809 48.3485 13.691C48.4821 13.6723 48.6093 13.6626 48.7319 13.6609C48.4036 12.6694 49.1372 11.5134 49.9217 10.9523ZM74.0666 53.3837C74.3622 53.6439 73.9661 54.0939 73.6705 53.8337C72.9857 53.2309 72.8628 51.2988 73.3685 50.5731C73.5932 50.2498 74.0854 50.592 73.8607 50.9153C73.5235 51.3992 73.611 52.9827 74.0666 53.3837ZM68.4076 53.6667C68.5448 54.0351 67.9846 54.2437 67.8475 53.8753C67.5 52.9495 67.5816 51.2183 68.4585 50.5965C68.7787 50.3687 69.1256 50.8562 68.8053 51.084C68.1698 51.5347 68.1607 53.0088 68.4076 53.6667ZM83.4799 44.9894C83.7201 45.3004 83.2466 45.666 83.0065 45.3551C82.4191 44.5926 82.3444 42.691 83.0974 41.9898C83.3856 41.7216 83.7934 42.1599 83.5052 42.428C82.9859 42.9116 83.0776 44.4671 83.4799 44.9894ZM75.0095 44.9838C75.222 45.3148 74.718 45.6382 74.5056 45.3073C73.8986 44.3647 73.9744 42.5965 74.5103 41.6312C74.7014 41.2875 75.2241 41.578 75.033 41.9218C74.6028 42.6966 74.5215 44.2261 75.0095 44.9838ZM78.0572 36.0493C78.2869 36.3683 77.8017 36.7175 77.5721 36.3985C76.966 35.5539 76.926 33.5261 77.7299 32.8026C78.0224 32.5394 78.4232 32.9847 78.1307 33.248C77.5625 33.7593 77.6251 35.4471 78.0572 36.0493ZM86.8951 36.0868C87.06 36.4445 86.5162 36.6952 86.3513 36.3376C85.9472 35.4687 85.8395 34.2369 86.2144 33.342C86.3654 32.9782 86.9185 33.2079 86.7675 33.5716C86.4566 34.3138 86.5607 35.368 86.8951 36.0868ZM84.403 25.1656C84.6866 25.4384 84.2719 25.8697 83.9882 25.5969C83.2048 24.8424 83.3788 22.407 83.9402 21.4854C84.1449 21.1498 84.6558 21.4615 84.4511 21.7971C84.0316 22.4858 83.8432 24.6264 84.403 25.1656ZM76.4869 25.4373C76.7196 25.7549 76.2368 26.1087 76.0041 25.7912C75.1935 24.6848 75.1902 22.4689 75.993 21.3466C76.2208 21.0264 76.7084 21.3732 76.4805 21.6935C75.8254 22.6092 75.8269 24.5365 76.4869 25.4373ZM57.9593 4.11829C58.0552 3.82309 58.4293 3.87557 58.5239 4.09443C58.6242 4.32675 58.3483 4.31893 58.8115 4.61521C60.0637 5.41609 64.7944 6.03915 65.5424 5.43831C65.8488 5.19199 66.2238 5.65841 65.9174 5.90471C64.874 6.74287 58.6837 5.98961 58 4.61755C57.9198 4.45663 57.903 4.28987 57.9593 4.11829ZM57.0376 17.1068C55.2925 16.7809 53.5344 16.4526 52.1699 16.0205C55.6438 25.4951 52.3917 50.3674 45.5496 57.3088C49.2295 58.2085 55.2678 59.5151 57.8069 57.4131C59.5574 55.964 61.9578 48.4955 62.5893 46.4667C64.3008 40.9682 65.6596 34.6578 65.9239 29.3574C66.1405 25.0126 65.6332 21.3731 63.9886 19.499C62.0843 17.7237 59.4869 17.564 57.0376 17.1068ZM65.2931 19.6026C66.5355 21.5764 67.0169 24.5866 66.9629 28.1011C68.0903 27.5594 70.129 27.4782 72.596 27.3802C76.0267 27.2439 79.4676 26.8031 82.8791 26.8165C84.7548 26.8239 86.895 26.9423 90.5215 27.1681C98.3139 27.6532 97.2557 20.6204 91.5696 20.0114C86.3951 19.4572 81.0779 19.3972 75.874 19.3305C72.3808 19.2857 68.7972 19.4902 65.2931 19.6026ZM66.8662 30.2926C66.6961 32.7087 66.3201 35.2998 65.8017 37.9098C66.4648 37.7139 67.4034 37.5944 68.5447 37.5374C70.9528 37.4171 74.3809 37.4882 77.9647 37.6542C82.0701 37.8443 86.1265 37.9697 90.2392 38.2002C92.7843 38.3429 95.3401 37.6083 96.0718 36.5197C96.3553 36.098 96.5029 35.6321 96.515 35.1631C96.5272 34.6913 96.4029 34.2111 96.1427 33.764C95.459 32.5896 93.8499 31.6528 91.3088 31.6341C86.9385 31.602 82.3753 31.2137 77.9382 31.12C74.5788 31.049 71.61 30.9863 69.5534 30.8049C68.3941 30.7027 67.4766 30.5413 66.8662 30.2926ZM65.5094 39.3155C65.0054 41.6356 64.3983 43.9485 63.7325 46.1447C65.0805 45.7492 67.1893 45.8508 68.6232 45.9243C72.273 46.1114 75.7473 46.6864 79.6375 46.5478C81.9379 46.4659 84.1571 46.6169 86.4509 46.7962C87.9789 46.9156 89.9651 47.2059 91.5332 46.7058C95.0915 45.5708 94.7165 40.8577 90.0175 40.4991C82.0459 39.8908 74.2564 40.284 66.1235 39.3828C65.87 39.3547 65.6628 39.3318 65.5094 39.3155ZM63.2149 47.7929C62.3575 50.4291 61.4262 52.8488 60.5055 54.844C64.3541 55.278 67.7909 55.4727 70.6524 55.4727C73.8565 55.4727 76.3181 55.23 77.8077 54.8075C82.6057 53.4465 83.3108 51.6336 83.2871 50.453C83.2579 48.9987 82.6884 48.437 81.0531 48.2344C79.2388 48.0096 77.0404 48.3893 75.2577 48.8559C73.9723 49.1924 71.2436 49.2345 68.7056 49.0355C67.3424 48.9286 64.305 48.6557 63.2149 47.7929ZM51.7061 18.0232C51.0436 28.9427 43.0297 36.7251 43.0619 46.3979C43.0619 47.053 42.0659 47.053 42.0659 46.3979C42.034 36.8397 49.51 29.2632 50.6018 19.233C48.4675 25.3202 43.9937 32.7478 37.0096 33.6864C36.3596 33.7737 36.2268 32.7854 36.8768 32.6981C41.1513 32.1237 44.3758 28.8493 46.5837 25.357C39.4598 26.4778 32.5201 12.3479 26.1447 15.0198C22.0936 17.2549 18.0146 18.9889 13.4983 20.0107C14.5832 23.3902 16.2717 25.9102 18.0091 28.5029C21.7712 34.1173 28.2455 49.7653 23.8903 56.341C29.9915 55.8428 37.1927 55.5321 43.1429 56.7324C43.4885 56.8022 43.909 56.9034 44.3998 57.0247C51.6712 50.5943 53.8223 27.7993 51.7061 18.0232ZM14.5802 57.3936C15.7767 57.2212 17.0138 57.0578 18.2771 56.9069C15.7619 52.8921 18.0017 34.93 14.3671 24.5478C13.6596 23.2366 13.0259 21.8257 12.5183 20.2203C10.9869 20.5285 9.36188 20.7668 7.63784 20.9114C6.44268 31.0536 7.98492 49.1539 14.5802 57.3936ZM19.3914 56.7779C20.2025 56.6869 22.2031 56.7573 22.8562 56.0575C27.5426 51.0365 20.2363 33.6172 17.181 29.0576C16.9521 28.716 16.724 28.3756 16.4979 28.0343C18.6587 35.9483 16.912 53.3407 19.3914 56.7779ZM25.0621 20.1146C24.5541 19.7015 25.183 18.9281 25.691 19.3412C37.4247 28.929 28.2662 41.4416 36.6085 52.016C37.0139 52.5292 36.2326 53.1464 35.8272 52.6332C27.2912 41.8131 36.2787 29.2799 25.0621 20.1146ZM76.2952 47.5905C73.7064 47.5334 71.1994 47.1194 68.6212 46.9429C67.8116 46.8875 64.2227 46.7643 63.8023 47.0464C64.3659 47.5721 67.8019 47.962 68.6462 48.0322C71.1199 48.238 73.7887 48.2102 75.0077 47.8911C75.4283 47.781 75.8593 47.6801 76.2952 47.5905Z" fill="#1B4965"/>
</svg>
