<svg width="64" height="40" viewBox="0 0 64 40" fill="none" xmlns="http://www.w3.org/2000/svg">
<path d="M42.31 39.344C40.9946 39.3344 39.6966 39.1028 38.5007 38.6644C37.3048 38.2261 36.238 37.5907 35.37 36.8C34.6988 36.1842 34.2043 35.4583 33.9209 34.6733C33.6376 33.8883 33.5725 33.0633 33.73 32.256C33.9424 31.4418 34.223 30.64 34.57 29.856C35.0437 28.8866 35.3792 27.8776 35.57 26.848C35.3817 25.818 35.0461 24.8088 34.57 23.84C34.223 23.056 33.9424 22.2542 33.73 21.44C33.5683 20.6327 33.6314 19.8068 33.9149 19.0213C34.1984 18.2358 34.6953 17.5101 35.37 16.896C36.2359 16.1026 37.302 15.465 38.4982 15.0251C39.6944 14.5853 40.9935 14.3531 42.31 14.344C44.1267 14.3413 45.8977 14.7999 47.3677 15.6539C48.8378 16.5079 49.931 17.7131 50.49 19.096C50.6056 19.3629 50.8233 19.5939 51.1123 19.7562C51.4014 19.9185 51.7469 20.0038 52.1 20H61.9C62.1174 19.9861 62.336 20.0084 62.5421 20.0654C62.7482 20.1225 62.9373 20.213 63.0975 20.3314C63.2577 20.4497 63.3856 20.5933 63.473 20.7532C63.5605 20.913 63.6056 21.0855 63.6056 21.26C63.6056 21.4345 63.5605 21.607 63.473 21.7669C63.3856 21.9267 63.2577 22.0703 63.0975 22.1886C62.9373 22.307 62.7482 22.3975 62.5421 22.4546C62.336 22.5116 62.1174 22.5339 61.9 22.52H52.1C51.0857 22.5308 50.0932 22.2842 49.265 21.8156C48.4368 21.3471 47.8154 20.6806 47.49 19.912C47.1362 19.0363 46.4439 18.2731 45.5129 17.7325C44.5819 17.1919 43.4604 16.9018 42.31 16.904C41.4515 16.908 40.6038 17.0577 39.8229 17.3432C39.0421 17.6287 38.3458 18.0434 37.78 18.56C37.405 18.8942 37.1263 19.2904 36.9639 19.7203C36.8015 20.1503 36.7592 20.6035 36.84 21.048C37.0349 21.7411 37.2787 22.4249 37.57 23.096C38.1546 24.3103 38.5248 25.5839 38.67 26.88C38.5227 28.1758 38.1525 29.4492 37.57 30.664C37.2775 31.3348 37.0337 32.0186 36.84 32.712C36.7599 33.1565 36.8025 33.6096 36.9649 34.0395C37.1273 34.4693 37.4055 34.8655 37.78 35.2C38.3521 35.7064 39.0512 36.1107 39.8318 36.3864C40.6123 36.662 41.4568 36.803 42.31 36.8C43.4604 36.8022 44.5819 36.5121 45.5129 35.9715C46.4439 35.4309 47.1362 34.6677 47.49 33.792C47.8188 33.0264 48.4416 32.3634 49.2696 31.8979C50.0975 31.4324 51.0882 31.1881 52.1 31.2H61.9C62.1174 31.1861 62.336 31.2084 62.5421 31.2654C62.7482 31.3225 62.9373 31.413 63.0975 31.5314C63.2577 31.6497 63.3856 31.7933 63.473 31.9532C63.5605 32.113 63.6056 32.2855 63.6056 32.46C63.6056 32.6345 63.5605 32.807 63.473 32.9668C63.3856 33.1267 63.2577 33.2703 63.0975 33.3886C62.9373 33.507 62.7482 33.5975 62.5421 33.6546C62.336 33.7116 62.1174 33.7339 61.9 33.72H52.1C51.7518 33.7139 51.4098 33.7945 51.1213 33.9507C50.8329 34.107 50.6123 34.3311 50.49 34.592C49.931 35.9749 48.8378 37.1801 47.3677 38.0341C45.8977 38.8881 44.1267 39.3468 42.31 39.344ZM28.63 36.8C29.3012 36.1842 29.7958 35.4583 30.0791 34.6733C30.3624 33.8883 30.4276 33.0633 30.27 32.256C30.0577 31.4418 29.777 30.64 29.43 29.856C28.9563 28.8866 28.6208 27.8776 28.43 26.848C28.6184 25.818 28.9539 24.8088 29.43 23.84C29.777 23.056 30.0577 22.2542 30.27 21.44C30.4317 20.6327 30.3686 19.8068 30.0851 19.0213C29.8016 18.2358 29.3047 17.5101 28.63 16.896C27.7642 16.1026 26.698 15.465 25.5018 15.0251C24.3056 14.5853 23.0065 14.3531 21.69 14.344C19.8733 14.3413 18.1023 14.7999 16.6323 15.6539C15.1623 16.5079 14.069 17.7131 13.51 19.096C13.3944 19.3629 13.1767 19.5939 12.8877 19.7562C12.5987 19.9185 12.2531 20.0038 11.9 20H2.10001C1.88263 19.9861 1.66401 20.0084 1.45791 20.0654C1.25182 20.1225 1.06272 20.213 0.902506 20.3314C0.742293 20.4497 0.614441 20.5933 0.526997 20.7532C0.439552 20.913 0.394409 21.0855 0.394409 21.26C0.394409 21.4345 0.439552 21.607 0.526997 21.7669C0.614441 21.9267 0.742293 22.0703 0.902506 22.1886C1.06272 22.307 1.25182 22.3975 1.45791 22.4546C1.66401 22.5116 1.88263 22.5339 2.10001 22.52H11.9C12.9143 22.5308 13.9068 22.2842 14.735 21.8156C15.5633 21.3471 16.1846 20.6806 16.51 19.912C16.8638 19.0363 17.5561 18.2731 18.4871 17.7325C19.4181 17.1919 20.5396 16.9018 21.69 16.904C22.5485 16.908 23.3962 17.0577 24.1771 17.3432C24.958 17.6287 25.6543 18.0434 26.22 18.56C26.5951 18.8942 26.8737 19.2904 27.0361 19.7203C27.1986 20.1503 27.2409 20.6035 27.16 21.048C26.9651 21.7411 26.7214 22.4249 26.43 23.096C25.8454 24.3103 25.4752 25.5839 25.33 26.88C25.4774 28.1758 25.8475 29.4492 26.43 30.664C26.7226 31.3348 26.9663 32.0186 27.16 32.712C27.2402 33.1565 27.1975 33.6096 27.0351 34.0395C26.8727 34.4693 26.5945 34.8655 26.22 35.2C25.6479 35.7064 24.9488 36.1107 24.1682 36.3864C23.3877 36.662 22.5432 36.803 21.69 36.8C20.5396 36.8022 19.4181 36.5121 18.4871 35.9715C17.5561 35.4309 16.8638 34.6677 16.51 33.792C16.1812 33.0264 15.5584 32.3634 14.7305 31.8979C13.9025 31.4324 12.9119 31.1881 11.9 31.2H2.10001C1.88263 31.1861 1.66401 31.2084 1.45791 31.2654C1.25182 31.3225 1.06272 31.413 0.902506 31.5314C0.742293 31.6497 0.614441 31.7933 0.526997 31.9532C0.439552 32.113 0.394409 32.2855 0.394409 32.46C0.394409 32.6345 0.439552 32.807 0.526997 32.9668C0.614441 33.1267 0.742293 33.2703 0.902506 33.3886C1.06272 33.507 1.25182 33.5975 1.45791 33.6546C1.66401 33.7116 1.88263 33.7339 2.10001 33.72H11.9C12.2483 33.7139 12.5903 33.7945 12.8787 33.9507C13.1672 34.107 13.3878 34.3311 13.51 34.592C14.069 35.9749 15.1623 37.1801 16.6323 38.0341C18.1023 38.8881 19.8733 39.3468 21.69 39.344C23.0054 39.3344 24.3035 39.1028 25.4993 38.6644C26.6952 38.2261 27.762 37.5907 28.63 36.8ZM33.58 11.712V1.92001C33.58 1.58477 33.4135 1.26327 33.1172 1.02622C32.8209 0.789178 32.4191 0.656006 32 0.656006C31.581 0.656006 31.1791 0.789178 30.8828 1.02622C30.5865 1.26327 30.42 1.58477 30.42 1.92001V11.704C30.42 12.0392 30.5865 12.3607 30.8828 12.5978C31.1791 12.8348 31.581 12.968 32 12.968C32.4191 12.968 32.8209 12.8348 33.1172 12.5978C33.4135 12.3607 33.58 12.0392 33.58 11.704V11.712ZM37.17 13.44L40.68 4.64001C40.7472 4.48248 40.7746 4.31584 40.7606 4.14977C40.7466 3.98371 40.6915 3.82152 40.5984 3.67265C40.5054 3.52378 40.3763 3.39118 40.2186 3.28258C40.0609 3.17397 39.8779 3.09151 39.68 3.04001C39.2821 2.93802 38.8501 2.96462 38.4763 3.11411C38.1026 3.26361 37.8168 3.52414 37.68 3.84001L34.18 12.64C34.1128 12.7975 34.0854 12.9642 34.0994 13.1302C34.1134 13.2963 34.1686 13.4585 34.2616 13.6074C34.3547 13.7562 34.4838 13.8888 34.6414 13.9974C34.7991 14.106 34.9822 14.1885 35.18 14.24C35.335 14.2807 35.4969 14.3023 35.66 14.304C35.9951 14.3066 36.3224 14.2234 36.5941 14.0665C36.8658 13.9096 37.0676 13.6872 37.17 13.432V13.44ZM28.81 14.24C29.0079 14.1885 29.1909 14.106 29.3486 13.9974C29.5063 13.8888 29.6354 13.7562 29.7284 13.6074C29.8214 13.4585 29.8766 13.2963 29.8906 13.1302C29.9046 12.9642 29.8772 12.7975 29.81 12.64L26.31 3.84001C26.1732 3.52414 25.8874 3.26361 25.5137 3.11411C25.14 2.96462 24.7079 2.93802 24.31 3.04001C24.1122 3.09151 23.9291 3.17397 23.7714 3.28258C23.6138 3.39118 23.4847 3.52378 23.3916 3.67265C23.2986 3.82152 23.2434 3.98371 23.2294 4.14977C23.2154 4.31584 23.2428 4.48248 23.31 4.64001L26.82 13.44C26.9202 13.6954 27.1197 13.9185 27.3896 14.0769C27.6594 14.2352 27.9854 14.3203 28.32 14.32C28.487 14.3165 28.6523 14.2922 28.81 14.248V14.24Z" fill="#1B4965"/>
</svg>
