<svg width="96" height="86" viewBox="0 0 96 86" fill="none" xmlns="http://www.w3.org/2000/svg">
<path d="M65.2901 49.1601V12.5601C65.2901 12.2948 65.1847 12.0405 64.9972 11.853C64.8096 11.6654 64.5553 11.5601 64.2901 11.5601H5.80005C5.53483 11.5601 5.28048 11.6654 5.09294 11.853C4.90541 12.0405 4.80005 12.2948 4.80005 12.5601V49.1601C4.80005 49.4253 4.90541 49.6796 5.09294 49.8672C5.28048 50.0547 5.53483 50.1601 5.80005 50.1601H64.2901C64.5553 50.1601 64.8096 50.0547 64.9972 49.8672C65.1847 49.6796 65.2901 49.4253 65.2901 49.1601ZM63.2901 48.1601H6.80005V13.5601H63.2901V48.1601Z" fill="#1B4965"/>
<path d="M9.1 58.65H7C6.73478 58.65 6.48043 58.7554 6.29289 58.9429C6.10536 59.1305 6 59.3848 6 59.65C6 59.9152 6.10536 60.1696 6.29289 60.3571C6.48043 60.5447 6.73478 60.65 7 60.65H9.1C9.36522 60.65 9.61957 60.5447 9.80711 60.3571C9.99464 60.1696 10.1 59.9152 10.1 59.65C10.1 59.3848 9.99464 59.1305 9.80711 58.9429C9.61957 58.7554 9.36522 58.65 9.1 58.65Z" fill="#1B4965"/>
<path d="M15.8 58.65H13.7C13.4347 58.65 13.1804 58.7554 12.9928 58.9429C12.8053 59.1305 12.7 59.3848 12.7 59.65C12.7 59.9152 12.8053 60.1696 12.9928 60.3571C13.1804 60.5447 13.4347 60.65 13.7 60.65H15.8C16.0652 60.65 16.3195 60.5447 16.5071 60.3571C16.6946 60.1696 16.8 59.9152 16.8 59.65C16.8 59.3848 16.6946 59.1305 16.5071 58.9429C16.3195 58.7554 16.0652 58.65 15.8 58.65Z" fill="#1B4965"/>
<path d="M22.4999 58.65H20.3999C20.1347 58.65 19.8803 58.7554 19.6928 58.9429C19.5053 59.1305 19.3999 59.3848 19.3999 59.65C19.3999 59.9152 19.5053 60.1696 19.6928 60.3571C19.8803 60.5447 20.1347 60.65 20.3999 60.65H22.4999C22.7651 60.65 23.0195 60.5447 23.207 60.3571C23.3945 60.1696 23.4999 59.9152 23.4999 59.65C23.4999 59.3848 23.3945 59.1305 23.207 58.9429C23.0195 58.7554 22.7651 58.65 22.4999 58.65Z" fill="#1B4965"/>
<path d="M15.2 32.61C21.5398 37.3787 29.2671 39.9393 37.2 39.9C45.1291 39.9152 52.849 37.3571 59.2 32.61C59.3173 32.5229 59.4141 32.4112 59.4835 32.2826C59.553 32.1541 59.5934 32.0119 59.602 31.866C59.6105 31.7202 59.5871 31.5742 59.5332 31.4384C59.4793 31.3026 59.3963 31.1803 59.29 31.08L48.41 20.75C48.238 20.5877 48.014 20.4916 47.7779 20.4788C47.5417 20.4659 47.3086 20.5373 47.12 20.68C44.2523 22.817 40.7714 23.9714 37.195 23.9714C33.6186 23.9714 30.1378 22.817 27.27 20.68C27.0815 20.5373 26.8484 20.4659 26.6122 20.4788C26.376 20.4916 26.1521 20.5877 25.98 20.75L15.11 31.08C15.0038 31.1803 14.9208 31.3026 14.8669 31.4384C14.813 31.5742 14.7895 31.7202 14.7981 31.866C14.8067 32.0119 14.8471 32.1541 14.9166 32.2826C14.986 32.4112 15.0828 32.5229 15.2 32.61ZM57 31.7C51.1738 35.7381 44.2539 37.9018 37.165 37.9018C30.0762 37.9018 23.1563 35.7381 17.33 31.7L19.41 29.7C24.7281 33.0447 30.8827 34.8192 37.165 34.8192C43.4474 34.8192 49.602 33.0447 54.92 29.7L57 31.7ZM26.76 22.77C29.8418 24.8521 33.4759 25.9646 37.195 25.9646C40.9142 25.9646 44.5483 24.8521 47.63 22.77L53.44 28.29C48.5412 31.2581 42.9229 32.8273 37.195 32.8273C31.4672 32.8273 25.8489 31.2581 20.95 28.29L26.76 22.77Z" fill="#1B4965"/>
<path d="M10.2 45.11H13.7C13.9652 45.11 14.2195 45.0046 14.4071 44.8171C14.5946 44.6296 14.7 44.3752 14.7 44.11C14.7 43.8448 14.5946 43.5904 14.4071 43.4029C14.2195 43.2153 13.9652 43.11 13.7 43.11H10.2C9.93473 43.11 9.68038 43.2153 9.49284 43.4029C9.30531 43.5904 9.19995 43.8448 9.19995 44.11C9.19995 44.3752 9.30531 44.6296 9.49284 44.8171C9.68038 45.0046 9.93473 45.11 10.2 45.11Z" fill="#1B4965"/>
<path d="M10.2 41.17H12C12.2652 41.17 12.5195 41.0646 12.7071 40.8771C12.8946 40.6896 13 40.4352 13 40.17C13 39.9048 12.8946 39.6504 12.7071 39.4629C12.5195 39.2753 12.2652 39.17 12 39.17H10.2C9.93473 39.17 9.68038 39.2753 9.49284 39.4629C9.30531 39.6504 9.19995 39.9048 9.19995 40.17C9.19995 40.4352 9.30531 40.6896 9.49284 40.8771C9.68038 41.0646 9.93473 41.17 10.2 41.17Z" fill="#1B4965"/>
<path d="M47.49 60.65H63.34C63.6052 60.65 63.8596 60.5447 64.0471 60.3571C64.2346 60.1696 64.34 59.9152 64.34 59.65C64.34 59.3848 64.2346 59.1305 64.0471 58.9429C63.8596 58.7554 63.6052 58.65 63.34 58.65H47.49C47.2248 58.65 46.9704 58.7554 46.7829 58.9429C46.5953 59.1305 46.49 59.3848 46.49 59.65C46.49 59.9152 46.5953 60.1696 46.7829 60.3571C46.9704 60.5447 47.2248 60.65 47.49 60.65Z" fill="#1B4965"/>
<path d="M55.4399 44.11C55.4399 44.3752 55.5453 44.6296 55.7328 44.8171C55.9204 45.0046 56.1747 45.11 56.4399 45.11H59.9999C60.2652 45.11 60.5195 45.0046 60.7071 44.8171C60.8946 44.6296 60.9999 44.3752 60.9999 44.11C60.9999 43.8448 60.8946 43.5904 60.7071 43.4029C60.5195 43.2153 60.2652 43.11 59.9999 43.11H56.4399C56.1747 43.11 55.9204 43.2153 55.7328 43.4029C55.5453 43.5904 55.4399 43.8448 55.4399 44.11Z" fill="#1B4965"/>
<path d="M10.2 18.13H13.7C13.9652 18.13 14.2195 18.0246 14.4071 17.8371C14.5946 17.6496 14.7 17.3952 14.7 17.13C14.7 16.8648 14.5946 16.6104 14.4071 16.4229C14.2195 16.2354 13.9652 16.13 13.7 16.13H10.2C9.93473 16.13 9.68038 16.2354 9.49284 16.4229C9.30531 16.6104 9.19995 16.8648 9.19995 17.13C9.19995 17.3952 9.30531 17.6496 9.49284 17.8371C9.68038 18.0246 9.93473 18.13 10.2 18.13Z" fill="#1B4965"/>
<path d="M94.15 6.76001H91.15C90.7211 6.76231 90.307 6.91771 89.9825 7.19822C89.658 7.47873 89.4443 7.86591 89.38 8.29001H86.25C83 8.30322 79.8873 9.60219 77.5919 11.9031C75.2966 14.2041 74.0053 17.32 74 20.57V35.57C74.0018 36.2227 74.2083 36.8585 74.5904 37.3877C74.9725 37.9169 75.511 38.3129 76.13 38.52V42C76.13 42.2652 76.2354 42.5196 76.4229 42.7071C76.6104 42.8947 76.8648 43 77.13 43H79.9V70.16C79.8947 73.6326 78.5108 76.961 76.0525 79.4137C73.5942 81.8664 70.2626 83.2427 66.79 83.24H5.31C4.46229 83.1934 3.66463 82.8239 3.08101 82.2073C2.49738 81.5907 2.17214 80.774 2.17214 79.925C2.17214 79.076 2.49738 78.2593 3.08101 77.6427C3.66463 77.0261 4.46229 76.6566 5.31 76.61H8.83L8.18 77.75C8.09206 77.9023 8.04585 78.0751 8.04602 78.251C8.0462 78.4269 8.09275 78.5996 8.18099 78.7517C8.26923 78.9039 8.39603 79.03 8.54861 79.1175C8.70118 79.205 8.87413 79.2507 9.05 79.25H61C61.1759 79.2507 61.3488 79.205 61.5014 79.1175C61.654 79.03 61.7808 78.9039 61.869 78.7517C61.9573 78.5996 62.0038 78.4269 62.004 78.251C62.0042 78.0751 61.9579 77.9023 61.87 77.75L60.4 75.11C59.7936 74.0556 58.9193 73.1803 57.8656 72.5726C56.8119 71.965 55.6163 71.6467 54.4 71.65H45.4V66.35H66.9C67.7443 66.35 68.5542 66.0153 69.1521 65.4192C69.7501 64.8231 70.0873 64.0143 70.09 63.17V7.76001C70.09 7.49479 69.9846 7.24044 69.7971 7.0529C69.6096 6.86537 69.3552 6.76001 69.09 6.76001H51.09L48.64 2.76001C48.2565 2.14175 47.72 1.63286 47.0824 1.28251C46.4447 0.932163 45.7275 0.752199 45 0.760009H25.08C24.3522 0.7581 23.6358 0.940509 22.9976 1.29023C22.3593 1.63995 21.8201 2.14559 21.43 2.76001L18.99 6.76001H1C0.734784 6.76001 0.48043 6.86537 0.292893 7.0529C0.105357 7.24044 0 7.49479 0 7.76001L0 63.17C0.00264674 64.0143 0.339903 64.8231 0.937858 65.4192C1.53581 66.0153 2.34569 66.35 3.19 66.35H24.65V71.65H15.65C14.5377 71.6584 13.4439 71.9356 12.4619 72.458C11.4799 72.9804 10.6387 73.7324 10.01 74.65H5.31C3.94026 74.7094 2.64635 75.2954 1.69813 76.2856C0.749906 77.2759 0.220597 78.594 0.220597 79.965C0.220597 81.336 0.749906 82.6541 1.69813 83.6444C2.64635 84.6346 3.94026 85.2206 5.31 85.28H66.79C68.773 85.2774 70.736 84.8842 72.567 84.1229C74.398 83.3617 76.0611 82.2472 77.4615 80.8432C78.8618 79.4392 79.9718 77.7731 80.7282 75.94C81.4847 74.107 81.8726 72.143 81.87 70.16V43H84.64C84.9052 43 85.1596 42.8947 85.3471 42.7071C85.5346 42.5196 85.64 42.2652 85.64 42V38.47C86.259 38.2629 86.7975 37.8669 87.1796 37.3377C87.5617 36.8085 87.7682 36.1727 87.77 35.52V22.1H89.37C89.4386 22.5205 89.6542 22.9029 89.9782 23.1794C90.3023 23.4559 90.714 23.6085 91.14 23.61H94.14C94.3751 23.61 94.6078 23.5637 94.825 23.4738C95.0422 23.3838 95.2395 23.2519 95.4057 23.0857C95.5719 22.9195 95.7038 22.7222 95.7937 22.505C95.8837 22.2878 95.93 22.0551 95.93 21.82V8.56001C95.93 8.08606 95.7431 7.63123 95.4099 7.29424C95.0766 6.95724 94.6239 6.76528 94.15 6.76001ZM68.09 63.17C68.09 63.3258 68.0592 63.4801 67.9992 63.6239C67.9393 63.7677 67.8515 63.8982 67.7409 64.0079C67.6302 64.1177 67.499 64.2044 67.3546 64.2631C67.2103 64.3218 67.0558 64.3513 66.9 64.35H43.9C43.5861 64.35 43.2849 64.226 43.0621 64.005C42.8392 63.784 42.7126 63.4839 42.71 63.17V55H68.09V63.17ZM23.09 3.85001C23.297 3.51889 23.5843 3.24539 23.9252 3.05485C24.266 2.86431 24.6495 2.7629 25.04 2.76001H45C45.4 2.74835 45.796 2.84312 46.1474 3.03463C46.4988 3.22614 46.793 3.50752 47 3.85001L48.8 6.76001H21.34L23.09 3.85001ZM2 8.76001H68.09V53H2V8.76001ZM2 63.17V55H40.74C40.74 64 40.66 63.61 40.98 64.4H3.19C3.0299 64.4015 2.87117 64.3704 2.72348 64.3086C2.57578 64.2468 2.4422 64.1556 2.33088 64.0405C2.21955 63.9255 2.13281 63.789 2.07592 63.6393C2.01904 63.4896 1.99321 63.33 2 63.17ZM26.65 66.35H43.44V71.65H26.65V66.35ZM15.65 73.65H54.43C55.2896 73.6493 56.1341 73.8766 56.8772 74.3088C57.6203 74.741 58.2355 75.3625 58.66 76.11L59.32 77.25H10.77L11.43 76.11C11.8545 75.3625 12.4697 74.741 13.2128 74.3088C13.9559 73.8766 14.8004 73.6493 15.66 73.65H15.65ZM83.64 41H78.1V38.65H83.64V41ZM85.77 31.82H81.71C81.6331 31.82 81.5593 31.7895 81.5049 31.7351C81.4506 31.6807 81.42 31.6069 81.42 31.53V26C81.42 25.9231 81.4506 25.8493 81.5049 25.7949C81.5593 25.7406 81.6331 25.71 81.71 25.71H85.77V31.82ZM87.67 20.09C87.4205 20.09 87.1734 20.1392 86.9429 20.2346C86.7124 20.3301 86.5029 20.4701 86.3265 20.6465C86.1501 20.8229 86.0101 21.0324 85.9146 21.2629C85.8191 21.4934 85.77 21.7405 85.77 21.99V23.66H81.71C81.4054 23.6613 81.1041 23.7231 80.8236 23.8417C80.543 23.9604 80.2889 24.1336 80.0758 24.3513C79.8628 24.569 79.6951 24.8268 79.5825 25.1099C79.4699 25.3929 79.4147 25.6955 79.42 26V31.58C79.4226 32.1865 79.6647 32.7675 80.0936 33.1964C80.5225 33.6253 81.1035 33.8674 81.71 33.87H85.77V35.56C85.7674 35.8589 85.6475 36.1448 85.4361 36.3562C85.2248 36.5675 84.9389 36.6874 84.64 36.69H77.1C76.9507 36.6861 76.8037 36.6527 76.6674 36.5917C76.5311 36.5306 76.4083 36.4432 76.306 36.3344C76.2037 36.2256 76.124 36.0976 76.0715 35.9578C76.019 35.818 75.9947 35.6692 76 35.52V20.52C76.0158 17.8083 77.1014 15.2124 79.0208 13.2967C80.9402 11.381 83.5382 10.3005 86.25 10.29H89.35V20.1L87.67 20.09ZM93.94 21.6H91.35V8.76001H93.94V21.6Z" fill="#1B4965"/>
</svg>
