<svg width="90" height="84" viewBox="0 0 90 84" fill="none" xmlns="http://www.w3.org/2000/svg">
<path d="M36.6841 46.648C29.1489 54.8746 27.5435 63.011 25.8401 71.628C25.1526 75.0968 24.4456 78.6866 23.3323 82.413C23.1917 82.8857 22.7581 83.1943 22.2854 83.1943C22.1799 83.1943 22.0784 83.1787 21.9729 83.1474C21.3948 82.9755 21.0666 82.3662 21.2385 81.788C22.3205 78.1591 23.0197 74.6239 23.6955 71.206C25.4572 62.2802 27.1213 53.851 35.1135 45.128C37.0744 43.2178 36.4494 40.7452 35.051 39.2374C33.1487 37.1905 30.6526 35.8819 27.7619 34.3663C20.3478 30.4835 10.1959 25.1671 0.0859017 2.33531C-0.148478 1.78453 0.101525 1.14001 0.652311 0.897812C1.20309 0.651722 1.84761 0.901718 2.08981 1.4525C11.8906 23.5895 21.6518 28.7025 28.7808 32.4365C31.8472 34.042 34.4996 35.4326 36.6558 37.7568C38.8199 40.0888 39.5191 43.8935 36.6832 46.6474L36.6841 46.648ZM43.6802 33.738C43.6567 33.7888 43.6411 33.8396 43.6255 33.8904C42.6216 37.5662 43.5317 40.6287 46.0552 42.0857C46.9732 42.6169 48.0122 42.8708 49.0747 42.8708C51.0278 42.8708 53.0747 42.0115 54.6763 40.3942C57.6841 37.3864 60.0474 32.4294 54.2232 25.8902C54.1685 25.8277 54.106 25.773 54.0357 25.7262C47.731 21.2692 39.6407 13.0192 29.9847 1.20618C29.6019 0.737426 28.9144 0.671016 28.4495 1.04993C27.9846 1.43274 27.9143 2.12023 28.2932 2.58513C38.0198 14.4831 46.2232 22.8431 52.6722 27.4331C56.4691 31.7417 56.6097 35.3706 53.1253 38.8551C51.348 40.652 48.8909 41.2028 47.1448 40.1949C45.5237 39.2574 45.0003 37.1988 45.7073 34.5387C47.1018 31.2145 45.5277 24.0817 17.2973 1.05073C16.8286 0.671816 16.1411 0.738226 15.7621 1.20698C15.3793 1.67182 15.4496 2.35928 15.9184 2.74218C42.4304 24.3632 44.6912 31.441 43.6802 33.738ZM56.4302 49.91C56.2505 48.4569 55.395 47.2069 53.8833 46.1952C53.813 46.1484 53.7348 46.1093 53.6528 46.078C49.1098 44.4022 46.02 44.2382 44.2036 45.578C42.9809 46.4804 42.4145 47.9803 42.5317 50.0975C43.0864 55.1014 38.5669 65.6835 29.1097 81.5505C28.8011 82.0701 28.9691 82.738 29.4886 83.0466C30.0082 83.3591 30.6761 83.1873 30.9847 82.6677C40.8285 66.1557 45.3167 55.4217 44.7077 49.9177C44.6374 48.6443 44.9069 47.7732 45.5007 47.3357C46.1491 46.8553 47.9538 46.324 52.7702 48.0818C53.6764 48.7146 54.1647 49.4021 54.2624 50.1834C54.4147 51.3943 53.61 53.0154 51.9655 54.8436C48.153 58.8319 42.6921 67.8396 35.7275 81.6166C35.458 82.1557 35.6728 82.8119 36.208 83.0854C36.3642 83.1636 36.5322 83.2026 36.7001 83.2026C37.0986 83.2026 37.4814 82.9839 37.6767 82.605C44.5439 69.015 49.8837 60.183 53.5677 56.328C55.7318 53.9178 56.6685 51.8202 56.4302 49.91ZM56.9224 44.2186C57.3443 43.4061 57.7778 42.5702 57.9302 41.7889C58.1255 40.7733 58.1684 39.7342 58.2036 38.8123C58.2778 36.9685 58.3638 34.8787 60.2895 34.7928C60.434 34.785 60.5903 34.7811 60.7387 34.7811C63.1098 34.7811 64.352 35.8241 64.9731 36.6991C66.1723 38.3827 66.2153 40.9725 65.1059 44.1913C64.2505 46.7225 61.3481 50.4061 58.7504 50.4061C58.0317 50.4061 56.7192 50.121 56.0082 48.2147C55.5356 46.8983 56.2427 45.535 56.9224 44.2186ZM58.063 47.4608C58.3481 48.2226 58.645 48.2226 58.7583 48.2265C59.9888 48.2265 62.3169 45.6562 63.0474 43.4882C63.9107 40.996 63.9654 39.0351 63.2036 37.9687C62.7075 37.2694 61.8091 36.9296 60.5669 36.9687C60.4497 37.3397 60.4146 38.2304 60.3872 38.9023C60.3482 39.8983 60.3013 41.0273 60.0747 42.2031C59.8599 43.2969 59.3286 44.3203 58.8599 45.2226C58.4381 46.039 57.9145 47.0506 58.063 47.4608ZM89.114 39.8905L80.2976 38.1991L83.9421 31.0194C84.1725 30.5663 84.0593 30.0116 83.6686 29.6874C83.278 29.3632 82.7155 29.3476 82.3092 29.6562L75.5358 34.8164C75.4655 34.5312 75.3913 34.2461 75.3132 33.9648C75.1491 33.3828 74.5436 33.0469 73.9655 33.2109C73.3874 33.375 73.0475 33.9765 73.2116 34.5586C73.4264 35.3203 73.5944 36.0898 73.7233 36.918C73.7819 37.2969 74.0397 37.6172 74.3952 37.7618C74.7506 37.9063 75.1569 37.8516 75.4655 37.6172L79.8405 34.2852L77.6999 38.504C77.5436 38.8087 77.5436 39.172 77.692 39.4806C77.8444 39.7892 78.1296 40.0079 78.4655 40.0704L83.1257 40.965L78.4655 41.8595C78.1296 41.9259 77.8444 42.1447 77.692 42.4532C77.5436 42.7618 77.5436 43.1212 77.6999 43.4259L79.821 47.6095L75.1648 44.0353C74.8718 43.8126 74.489 43.7501 74.1414 43.8712C73.7937 43.9923 73.532 44.2814 73.4421 44.6369C73.4148 44.7501 73.3875 44.8478 73.3445 44.9494C73.3289 44.9845 73.3171 45.0197 73.3054 45.0587C73.0828 45.7853 72.8367 46.5157 72.5476 47.2892C72.3367 47.8557 72.6257 48.4845 73.1921 48.6915C73.7586 48.9025 74.3835 48.6134 74.5944 48.047C74.7663 47.59 74.9226 47.1486 75.0671 46.7111L82.3054 52.2697C82.5007 52.4221 82.7351 52.4963 82.9695 52.4963C83.2156 52.4963 83.4656 52.4103 83.6648 52.2463C84.0593 51.9221 84.1726 51.3674 83.9421 50.9104L80.2976 43.7346L89.114 42.0393C89.6257 41.9416 90.0007 41.4924 90.0007 40.969C90.0007 40.4377 89.6257 39.9882 89.114 39.8905ZM81.2312 55.9885C84.075 59.383 85.4265 63.6799 85.0359 68.0905C84.6453 72.4928 82.5632 76.4772 79.1726 79.3095C76.196 81.8017 72.4226 83.1767 68.5436 83.1767C63.6374 83.1767 59.0124 81.0244 55.8556 77.2705C55.1134 76.3838 54.4767 75.4346 53.9454 74.4424C53.1211 75.6143 52.297 76.7822 51.461 77.9658C50.3438 79.54 49.2227 81.126 48.1016 82.7275C47.8906 83.0322 47.5508 83.1924 47.207 83.1924C46.9883 83.1924 46.7695 83.1299 46.582 82.9932C46.0898 82.6494 45.9688 81.9659 46.3164 81.4737C47.4414 79.8682 48.5664 78.2823 49.6836 76.7042C50.7774 75.1612 51.8594 73.63 52.9297 72.1026C52.1602 69.9073 51.8477 67.5596 52.0586 65.169C52.4493 60.7667 54.5313 56.7823 57.9219 53.95C60.3828 51.8875 63.3907 50.6062 66.5508 50.2195C67.6289 47.9734 68.5196 45.7859 69.1836 43.7156C72.9688 31.9736 54.4106 10.9426 47.4216 3.02456L47.0583 2.6144C46.6599 2.16518 46.7029 1.4738 47.156 1.0753C47.6052 0.676856 48.2966 0.719827 48.6951 1.17295L49.0545 1.58311C56.9451 10.5245 75.4255 31.4621 71.2575 44.3881C70.6677 46.2201 69.9137 48.1342 69.0153 50.099C73.7458 50.2357 78.1755 52.3607 81.2303 55.9896L81.2312 55.9885ZM79.5593 57.3947C76.821 54.1369 72.8054 52.2697 68.5393 52.2697C65.176 52.2697 61.8987 53.465 59.3127 55.6291C56.3713 58.0861 54.5666 61.5432 54.2229 65.3674C53.883 69.1994 55.0549 72.9299 57.5237 75.8754C60.262 79.1332 64.2815 81.0004 68.5397 81.0004C71.9069 81.0004 75.1842 79.809 77.7663 77.641C80.7077 75.184 82.5124 71.7269 82.8522 67.9027C83.1998 64.0707 82.0242 60.3402 79.5593 57.3947ZM78.2234 64.0627V69.2072C78.2234 69.8088 77.7351 70.297 77.1296 70.297H72.1921V75.2111C72.1921 75.8127 71.7038 76.3009 71.1023 76.3009H65.9812C65.3796 76.3009 64.8914 75.8127 64.8914 75.2111V70.297H59.9539C59.3523 70.297 58.8601 69.8088 58.8601 69.2072V64.0627C58.8601 63.4612 59.3483 62.9689 59.9539 62.9689H64.8914V58.0548C64.8914 57.4533 65.3797 56.961 65.9812 56.961H71.1023C71.7038 56.961 72.1921 57.4493 72.1921 58.0548V62.9689H77.1296C77.735 62.9689 78.2234 63.4611 78.2234 64.0627ZM76.0398 65.1525H71.1023C70.5007 65.1525 70.0125 64.6643 70.0125 64.0627V59.1486H67.075V64.0627C67.075 64.6643 66.5867 65.1525 65.9852 65.1525H61.0477V68.1134H65.9852C66.5867 68.1134 67.075 68.6017 67.075 69.2072V74.1213H70.0125V69.2072C70.0125 68.6057 70.5008 68.1134 71.1023 68.1134H76.0398V65.1525Z" fill="#1B4965"/>
</svg>
